<?xml version="1.0" encoding="utf-8" standalone="no"?>
<!DOCTYPE svg PUBLIC "-//W3C//DTD SVG 1.1//EN"
  "http://www.w3.org/Graphics/SVG/1.1/DTD/svg11.dtd">
<svg xmlns:xlink="http://www.w3.org/1999/xlink" width="606.08125pt" height="266.51625pt" viewBox="0 0 606.08125 266.51625" xmlns="http://www.w3.org/2000/svg" version="1.1">
 <metadata>
  <rdf:RDF xmlns:dc="http://purl.org/dc/elements/1.1/" xmlns:cc="http://creativecommons.org/ns#" xmlns:rdf="http://www.w3.org/1999/02/22-rdf-syntax-ns#">
   <cc:Work>
    <dc:type rdf:resource="http://purl.org/dc/dcmitype/StillImage"/>
    <dc:date>2024-12-09T22:30:38.265001</dc:date>
    <dc:format>image/svg+xml</dc:format>
    <dc:creator>
     <cc:Agent>
      <dc:title>Matplotlib v3.8.1, https://matplotlib.org/</dc:title>
     </cc:Agent>
    </dc:creator>
   </cc:Work>
  </rdf:RDF>
 </metadata>
 <defs>
  <style type="text/css">*{stroke-linejoin: round; stroke-linecap: butt}</style>
 </defs>
 <g id="figure_1">
  <g id="patch_1">
   <path d="M -0 266.51625 
L 606.08125 266.51625 
L 606.08125 0 
L -0 0 
z
" style="fill: #ffffff"/>
  </g>
  <g id="axes_1">
   <g id="patch_2">
    <path d="M 40.88125 228.96 
L 598.88125 228.96 
L 598.88125 7.2 
L 40.88125 7.2 
z
" style="fill: #ffffff"/>
   </g>
   <g id="matplotlib.axis_1">
    <g id="xtick_1">
     <g id="line2d_1">
      <path d="M 40.88125 228.96 
L 40.88125 7.2 
" clip-path="url(#p2016259505)" style="fill: none; stroke-dasharray: 2.96,1.28; stroke-dashoffset: 0; stroke: #b0b0b0; stroke-opacity: 0.7; stroke-width: 0.8"/>
     </g>
     <g id="line2d_2">
      <defs>
       <path id="m64f943e0d4" d="M 0 0 
L 0 3.5 
" style="stroke: #000000; stroke-width: 0.8"/>
      </defs>
      <g>
       <use xlink:href="#m64f943e0d4" x="40.88125" y="228.96" style="stroke: #000000; stroke-width: 0.8"/>
      </g>
     </g>
     <g id="text_1">
      <!-- 0 -->
      <g transform="translate(37.7 243.558437) scale(0.1 -0.1)">
       <defs>
        <path id="DejaVuSans-30" d="M 2034 4250 
Q 1547 4250 1301 3770 
Q 1056 3291 1056 2328 
Q 1056 1369 1301 889 
Q 1547 409 2034 409 
Q 2525 409 2770 889 
Q 3016 1369 3016 2328 
Q 3016 3291 2770 3770 
Q 2525 4250 2034 4250 
z
M 2034 4750 
Q 2819 4750 3233 4129 
Q 3647 3509 3647 2328 
Q 3647 1150 3233 529 
Q 2819 -91 2034 -91 
Q 1250 -91 836 529 
Q 422 1150 422 2328 
Q 422 3509 836 4129 
Q 1250 4750 2034 4750 
z
" transform="scale(0.015625)"/>
       </defs>
       <use xlink:href="#DejaVuSans-30"/>
      </g>
     </g>
    </g>
    <g id="xtick_2">
     <g id="line2d_3">
      <path d="M 115.28125 228.96 
L 115.28125 7.2 
" clip-path="url(#p2016259505)" style="fill: none; stroke-dasharray: 2.96,1.28; stroke-dashoffset: 0; stroke: #b0b0b0; stroke-opacity: 0.7; stroke-width: 0.8"/>
     </g>
     <g id="line2d_4">
      <g>
       <use xlink:href="#m64f943e0d4" x="115.28125" y="228.96" style="stroke: #000000; stroke-width: 0.8"/>
      </g>
     </g>
     <g id="text_2">
      <!-- 2000 -->
      <g transform="translate(102.55625 243.558437) scale(0.1 -0.1)">
       <defs>
        <path id="DejaVuSans-32" d="M 1228 531 
L 3431 531 
L 3431 0 
L 469 0 
L 469 531 
Q 828 903 1448 1529 
Q 2069 2156 2228 2338 
Q 2531 2678 2651 2914 
Q 2772 3150 2772 3378 
Q 2772 3750 2511 3984 
Q 2250 4219 1831 4219 
Q 1534 4219 1204 4116 
Q 875 4013 500 3803 
L 500 4441 
Q 881 4594 1212 4672 
Q 1544 4750 1819 4750 
Q 2544 4750 2975 4387 
Q 3406 4025 3406 3419 
Q 3406 3131 3298 2873 
Q 3191 2616 2906 2266 
Q 2828 2175 2409 1742 
Q 1991 1309 1228 531 
z
" transform="scale(0.015625)"/>
       </defs>
       <use xlink:href="#DejaVuSans-32"/>
       <use xlink:href="#DejaVuSans-30" x="63.623047"/>
       <use xlink:href="#DejaVuSans-30" x="127.246094"/>
       <use xlink:href="#DejaVuSans-30" x="190.869141"/>
      </g>
     </g>
    </g>
    <g id="xtick_3">
     <g id="line2d_5">
      <path d="M 189.68125 228.96 
L 189.68125 7.2 
" clip-path="url(#p2016259505)" style="fill: none; stroke-dasharray: 2.96,1.28; stroke-dashoffset: 0; stroke: #b0b0b0; stroke-opacity: 0.7; stroke-width: 0.8"/>
     </g>
     <g id="line2d_6">
      <g>
       <use xlink:href="#m64f943e0d4" x="189.68125" y="228.96" style="stroke: #000000; stroke-width: 0.8"/>
      </g>
     </g>
     <g id="text_3">
      <!-- 4000 -->
      <g transform="translate(176.95625 243.558437) scale(0.1 -0.1)">
       <defs>
        <path id="DejaVuSans-34" d="M 2419 4116 
L 825 1625 
L 2419 1625 
L 2419 4116 
z
M 2253 4666 
L 3047 4666 
L 3047 1625 
L 3713 1625 
L 3713 1100 
L 3047 1100 
L 3047 0 
L 2419 0 
L 2419 1100 
L 313 1100 
L 313 1709 
L 2253 4666 
z
" transform="scale(0.015625)"/>
       </defs>
       <use xlink:href="#DejaVuSans-34"/>
       <use xlink:href="#DejaVuSans-30" x="63.623047"/>
       <use xlink:href="#DejaVuSans-30" x="127.246094"/>
       <use xlink:href="#DejaVuSans-30" x="190.869141"/>
      </g>
     </g>
    </g>
    <g id="xtick_4">
     <g id="line2d_7">
      <path d="M 264.08125 228.96 
L 264.08125 7.2 
" clip-path="url(#p2016259505)" style="fill: none; stroke-dasharray: 2.96,1.28; stroke-dashoffset: 0; stroke: #b0b0b0; stroke-opacity: 0.7; stroke-width: 0.8"/>
     </g>
     <g id="line2d_8">
      <g>
       <use xlink:href="#m64f943e0d4" x="264.08125" y="228.96" style="stroke: #000000; stroke-width: 0.8"/>
      </g>
     </g>
     <g id="text_4">
      <!-- 6000 -->
      <g transform="translate(251.35625 243.558437) scale(0.1 -0.1)">
       <defs>
        <path id="DejaVuSans-36" d="M 2113 2584 
Q 1688 2584 1439 2293 
Q 1191 2003 1191 1497 
Q 1191 994 1439 701 
Q 1688 409 2113 409 
Q 2538 409 2786 701 
Q 3034 994 3034 1497 
Q 3034 2003 2786 2293 
Q 2538 2584 2113 2584 
z
M 3366 4563 
L 3366 3988 
Q 3128 4100 2886 4159 
Q 2644 4219 2406 4219 
Q 1781 4219 1451 3797 
Q 1122 3375 1075 2522 
Q 1259 2794 1537 2939 
Q 1816 3084 2150 3084 
Q 2853 3084 3261 2657 
Q 3669 2231 3669 1497 
Q 3669 778 3244 343 
Q 2819 -91 2113 -91 
Q 1303 -91 875 529 
Q 447 1150 447 2328 
Q 447 3434 972 4092 
Q 1497 4750 2381 4750 
Q 2619 4750 2861 4703 
Q 3103 4656 3366 4563 
z
" transform="scale(0.015625)"/>
       </defs>
       <use xlink:href="#DejaVuSans-36"/>
       <use xlink:href="#DejaVuSans-30" x="63.623047"/>
       <use xlink:href="#DejaVuSans-30" x="127.246094"/>
       <use xlink:href="#DejaVuSans-30" x="190.869141"/>
      </g>
     </g>
    </g>
    <g id="xtick_5">
     <g id="line2d_9">
      <path d="M 338.48125 228.96 
L 338.48125 7.2 
" clip-path="url(#p2016259505)" style="fill: none; stroke-dasharray: 2.96,1.28; stroke-dashoffset: 0; stroke: #b0b0b0; stroke-opacity: 0.7; stroke-width: 0.8"/>
     </g>
     <g id="line2d_10">
      <g>
       <use xlink:href="#m64f943e0d4" x="338.48125" y="228.96" style="stroke: #000000; stroke-width: 0.8"/>
      </g>
     </g>
     <g id="text_5">
      <!-- 8000 -->
      <g transform="translate(325.75625 243.558437) scale(0.1 -0.1)">
       <defs>
        <path id="DejaVuSans-38" d="M 2034 2216 
Q 1584 2216 1326 1975 
Q 1069 1734 1069 1313 
Q 1069 891 1326 650 
Q 1584 409 2034 409 
Q 2484 409 2743 651 
Q 3003 894 3003 1313 
Q 3003 1734 2745 1975 
Q 2488 2216 2034 2216 
z
M 1403 2484 
Q 997 2584 770 2862 
Q 544 3141 544 3541 
Q 544 4100 942 4425 
Q 1341 4750 2034 4750 
Q 2731 4750 3128 4425 
Q 3525 4100 3525 3541 
Q 3525 3141 3298 2862 
Q 3072 2584 2669 2484 
Q 3125 2378 3379 2068 
Q 3634 1759 3634 1313 
Q 3634 634 3220 271 
Q 2806 -91 2034 -91 
Q 1263 -91 848 271 
Q 434 634 434 1313 
Q 434 1759 690 2068 
Q 947 2378 1403 2484 
z
M 1172 3481 
Q 1172 3119 1398 2916 
Q 1625 2713 2034 2713 
Q 2441 2713 2670 2916 
Q 2900 3119 2900 3481 
Q 2900 3844 2670 4047 
Q 2441 4250 2034 4250 
Q 1625 4250 1398 4047 
Q 1172 3844 1172 3481 
z
" transform="scale(0.015625)"/>
       </defs>
       <use xlink:href="#DejaVuSans-38"/>
       <use xlink:href="#DejaVuSans-30" x="63.623047"/>
       <use xlink:href="#DejaVuSans-30" x="127.246094"/>
       <use xlink:href="#DejaVuSans-30" x="190.869141"/>
      </g>
     </g>
    </g>
    <g id="xtick_6">
     <g id="line2d_11">
      <path d="M 412.88125 228.96 
L 412.88125 7.2 
" clip-path="url(#p2016259505)" style="fill: none; stroke-dasharray: 2.96,1.28; stroke-dashoffset: 0; stroke: #b0b0b0; stroke-opacity: 0.7; stroke-width: 0.8"/>
     </g>
     <g id="line2d_12">
      <g>
       <use xlink:href="#m64f943e0d4" x="412.88125" y="228.96" style="stroke: #000000; stroke-width: 0.8"/>
      </g>
     </g>
     <g id="text_6">
      <!-- 10000 -->
      <g transform="translate(396.975 243.558437) scale(0.1 -0.1)">
       <defs>
        <path id="DejaVuSans-31" d="M 794 531 
L 1825 531 
L 1825 4091 
L 703 3866 
L 703 4441 
L 1819 4666 
L 2450 4666 
L 2450 531 
L 3481 531 
L 3481 0 
L 794 0 
L 794 531 
z
" transform="scale(0.015625)"/>
       </defs>
       <use xlink:href="#DejaVuSans-31"/>
       <use xlink:href="#DejaVuSans-30" x="63.623047"/>
       <use xlink:href="#DejaVuSans-30" x="127.246094"/>
       <use xlink:href="#DejaVuSans-30" x="190.869141"/>
       <use xlink:href="#DejaVuSans-30" x="254.492188"/>
      </g>
     </g>
    </g>
    <g id="xtick_7">
     <g id="line2d_13">
      <path d="M 487.28125 228.96 
L 487.28125 7.2 
" clip-path="url(#p2016259505)" style="fill: none; stroke-dasharray: 2.96,1.28; stroke-dashoffset: 0; stroke: #b0b0b0; stroke-opacity: 0.7; stroke-width: 0.8"/>
     </g>
     <g id="line2d_14">
      <g>
       <use xlink:href="#m64f943e0d4" x="487.28125" y="228.96" style="stroke: #000000; stroke-width: 0.8"/>
      </g>
     </g>
     <g id="text_7">
      <!-- 12000 -->
      <g transform="translate(471.375 243.558437) scale(0.1 -0.1)">
       <use xlink:href="#DejaVuSans-31"/>
       <use xlink:href="#DejaVuSans-32" x="63.623047"/>
       <use xlink:href="#DejaVuSans-30" x="127.246094"/>
       <use xlink:href="#DejaVuSans-30" x="190.869141"/>
       <use xlink:href="#DejaVuSans-30" x="254.492188"/>
      </g>
     </g>
    </g>
    <g id="xtick_8">
     <g id="line2d_15">
      <path d="M 561.68125 228.96 
L 561.68125 7.2 
" clip-path="url(#p2016259505)" style="fill: none; stroke-dasharray: 2.96,1.28; stroke-dashoffset: 0; stroke: #b0b0b0; stroke-opacity: 0.7; stroke-width: 0.8"/>
     </g>
     <g id="line2d_16">
      <g>
       <use xlink:href="#m64f943e0d4" x="561.68125" y="228.96" style="stroke: #000000; stroke-width: 0.8"/>
      </g>
     </g>
     <g id="text_8">
      <!-- 14000 -->
      <g transform="translate(545.775 243.558437) scale(0.1 -0.1)">
       <use xlink:href="#DejaVuSans-31"/>
       <use xlink:href="#DejaVuSans-34" x="63.623047"/>
       <use xlink:href="#DejaVuSans-30" x="127.246094"/>
       <use xlink:href="#DejaVuSans-30" x="190.869141"/>
       <use xlink:href="#DejaVuSans-30" x="254.492188"/>
      </g>
     </g>
    </g>
    <g id="text_9">
     <!-- position -->
     <g transform="translate(300.076563 257.236562) scale(0.1 -0.1)">
      <defs>
       <path id="DejaVuSans-70" d="M 1159 525 
L 1159 -1331 
L 581 -1331 
L 581 3500 
L 1159 3500 
L 1159 2969 
Q 1341 3281 1617 3432 
Q 1894 3584 2278 3584 
Q 2916 3584 3314 3078 
Q 3713 2572 3713 1747 
Q 3713 922 3314 415 
Q 2916 -91 2278 -91 
Q 1894 -91 1617 61 
Q 1341 213 1159 525 
z
M 3116 1747 
Q 3116 2381 2855 2742 
Q 2594 3103 2138 3103 
Q 1681 3103 1420 2742 
Q 1159 2381 1159 1747 
Q 1159 1113 1420 752 
Q 1681 391 2138 391 
Q 2594 391 2855 752 
Q 3116 1113 3116 1747 
z
" transform="scale(0.015625)"/>
       <path id="DejaVuSans-6f" d="M 1959 3097 
Q 1497 3097 1228 2736 
Q 959 2375 959 1747 
Q 959 1119 1226 758 
Q 1494 397 1959 397 
Q 2419 397 2687 759 
Q 2956 1122 2956 1747 
Q 2956 2369 2687 2733 
Q 2419 3097 1959 3097 
z
M 1959 3584 
Q 2709 3584 3137 3096 
Q 3566 2609 3566 1747 
Q 3566 888 3137 398 
Q 2709 -91 1959 -91 
Q 1206 -91 779 398 
Q 353 888 353 1747 
Q 353 2609 779 3096 
Q 1206 3584 1959 3584 
z
" transform="scale(0.015625)"/>
       <path id="DejaVuSans-73" d="M 2834 3397 
L 2834 2853 
Q 2591 2978 2328 3040 
Q 2066 3103 1784 3103 
Q 1356 3103 1142 2972 
Q 928 2841 928 2578 
Q 928 2378 1081 2264 
Q 1234 2150 1697 2047 
L 1894 2003 
Q 2506 1872 2764 1633 
Q 3022 1394 3022 966 
Q 3022 478 2636 193 
Q 2250 -91 1575 -91 
Q 1294 -91 989 -36 
Q 684 19 347 128 
L 347 722 
Q 666 556 975 473 
Q 1284 391 1588 391 
Q 1994 391 2212 530 
Q 2431 669 2431 922 
Q 2431 1156 2273 1281 
Q 2116 1406 1581 1522 
L 1381 1569 
Q 847 1681 609 1914 
Q 372 2147 372 2553 
Q 372 3047 722 3315 
Q 1072 3584 1716 3584 
Q 2034 3584 2315 3537 
Q 2597 3491 2834 3397 
z
" transform="scale(0.015625)"/>
       <path id="DejaVuSans-69" d="M 603 3500 
L 1178 3500 
L 1178 0 
L 603 0 
L 603 3500 
z
M 603 4863 
L 1178 4863 
L 1178 4134 
L 603 4134 
L 603 4863 
z
" transform="scale(0.015625)"/>
       <path id="DejaVuSans-74" d="M 1172 4494 
L 1172 3500 
L 2356 3500 
L 2356 3053 
L 1172 3053 
L 1172 1153 
Q 1172 725 1289 603 
Q 1406 481 1766 481 
L 2356 481 
L 2356 0 
L 1766 0 
Q 1100 0 847 248 
Q 594 497 594 1153 
L 594 3053 
L 172 3053 
L 172 3500 
L 594 3500 
L 594 4494 
L 1172 4494 
z
" transform="scale(0.015625)"/>
       <path id="DejaVuSans-6e" d="M 3513 2113 
L 3513 0 
L 2938 0 
L 2938 2094 
Q 2938 2591 2744 2837 
Q 2550 3084 2163 3084 
Q 1697 3084 1428 2787 
Q 1159 2491 1159 1978 
L 1159 0 
L 581 0 
L 581 3500 
L 1159 3500 
L 1159 2956 
Q 1366 3272 1645 3428 
Q 1925 3584 2291 3584 
Q 2894 3584 3203 3211 
Q 3513 2838 3513 2113 
z
" transform="scale(0.015625)"/>
      </defs>
      <use xlink:href="#DejaVuSans-70"/>
      <use xlink:href="#DejaVuSans-6f" x="63.476562"/>
      <use xlink:href="#DejaVuSans-73" x="124.658203"/>
      <use xlink:href="#DejaVuSans-69" x="176.757812"/>
      <use xlink:href="#DejaVuSans-74" x="204.541016"/>
      <use xlink:href="#DejaVuSans-69" x="243.75"/>
      <use xlink:href="#DejaVuSans-6f" x="271.533203"/>
      <use xlink:href="#DejaVuSans-6e" x="332.714844"/>
     </g>
    </g>
   </g>
   <g id="matplotlib.axis_2">
    <g id="ytick_1">
     <g id="line2d_17">
      <path d="M 40.88125 185.059056 
L 598.88125 185.059056 
" clip-path="url(#p2016259505)" style="fill: none; stroke-dasharray: 2.96,1.28; stroke-dashoffset: 0; stroke: #b0b0b0; stroke-opacity: 0.7; stroke-width: 0.8"/>
     </g>
     <g id="line2d_18">
      <defs>
       <path id="m64d7190f5a" d="M 0 0 
L -3.5 0 
" style="stroke: #000000; stroke-width: 0.8"/>
      </defs>
      <g>
       <use xlink:href="#m64d7190f5a" x="40.88125" y="185.059056" style="stroke: #000000; stroke-width: 0.8"/>
      </g>
     </g>
     <g id="text_10">
      <!-- 10 -->
      <g transform="translate(21.15625 188.858275) scale(0.1 -0.1)">
       <use xlink:href="#DejaVuSans-31"/>
       <use xlink:href="#DejaVuSans-30" x="63.623047"/>
      </g>
     </g>
    </g>
    <g id="ytick_2">
     <g id="line2d_19">
      <path d="M 40.88125 140.179885 
L 598.88125 140.179885 
" clip-path="url(#p2016259505)" style="fill: none; stroke-dasharray: 2.96,1.28; stroke-dashoffset: 0; stroke: #b0b0b0; stroke-opacity: 0.7; stroke-width: 0.8"/>
     </g>
     <g id="line2d_20">
      <g>
       <use xlink:href="#m64d7190f5a" x="40.88125" y="140.179885" style="stroke: #000000; stroke-width: 0.8"/>
      </g>
     </g>
     <g id="text_11">
      <!-- 20 -->
      <g transform="translate(21.15625 143.979104) scale(0.1 -0.1)">
       <use xlink:href="#DejaVuSans-32"/>
       <use xlink:href="#DejaVuSans-30" x="63.623047"/>
      </g>
     </g>
    </g>
    <g id="ytick_3">
     <g id="line2d_21">
      <path d="M 40.88125 95.300713 
L 598.88125 95.300713 
" clip-path="url(#p2016259505)" style="fill: none; stroke-dasharray: 2.96,1.28; stroke-dashoffset: 0; stroke: #b0b0b0; stroke-opacity: 0.7; stroke-width: 0.8"/>
     </g>
     <g id="line2d_22">
      <g>
       <use xlink:href="#m64d7190f5a" x="40.88125" y="95.300713" style="stroke: #000000; stroke-width: 0.8"/>
      </g>
     </g>
     <g id="text_12">
      <!-- 30 -->
      <g transform="translate(21.15625 99.099932) scale(0.1 -0.1)">
       <defs>
        <path id="DejaVuSans-33" d="M 2597 2516 
Q 3050 2419 3304 2112 
Q 3559 1806 3559 1356 
Q 3559 666 3084 287 
Q 2609 -91 1734 -91 
Q 1441 -91 1130 -33 
Q 819 25 488 141 
L 488 750 
Q 750 597 1062 519 
Q 1375 441 1716 441 
Q 2309 441 2620 675 
Q 2931 909 2931 1356 
Q 2931 1769 2642 2001 
Q 2353 2234 1838 2234 
L 1294 2234 
L 1294 2753 
L 1863 2753 
Q 2328 2753 2575 2939 
Q 2822 3125 2822 3475 
Q 2822 3834 2567 4026 
Q 2313 4219 1838 4219 
Q 1578 4219 1281 4162 
Q 984 4106 628 3988 
L 628 4550 
Q 988 4650 1302 4700 
Q 1616 4750 1894 4750 
Q 2613 4750 3031 4423 
Q 3450 4097 3450 3541 
Q 3450 3153 3228 2886 
Q 3006 2619 2597 2516 
z
" transform="scale(0.015625)"/>
       </defs>
       <use xlink:href="#DejaVuSans-33"/>
       <use xlink:href="#DejaVuSans-30" x="63.623047"/>
      </g>
     </g>
    </g>
    <g id="ytick_4">
     <g id="line2d_23">
      <path d="M 40.88125 50.421542 
L 598.88125 50.421542 
" clip-path="url(#p2016259505)" style="fill: none; stroke-dasharray: 2.96,1.28; stroke-dashoffset: 0; stroke: #b0b0b0; stroke-opacity: 0.7; stroke-width: 0.8"/>
     </g>
     <g id="line2d_24">
      <g>
       <use xlink:href="#m64d7190f5a" x="40.88125" y="50.421542" style="stroke: #000000; stroke-width: 0.8"/>
      </g>
     </g>
     <g id="text_13">
      <!-- 40 -->
      <g transform="translate(21.15625 54.220761) scale(0.1 -0.1)">
       <use xlink:href="#DejaVuSans-34"/>
       <use xlink:href="#DejaVuSans-30" x="63.623047"/>
      </g>
     </g>
    </g>
    <g id="text_14">
     <!-- mean_phred_score -->
     <g transform="translate(14.798437 165.229219) rotate(-90) scale(0.1 -0.1)">
      <defs>
       <path id="DejaVuSans-6d" d="M 3328 2828 
Q 3544 3216 3844 3400 
Q 4144 3584 4550 3584 
Q 5097 3584 5394 3201 
Q 5691 2819 5691 2113 
L 5691 0 
L 5113 0 
L 5113 2094 
Q 5113 2597 4934 2840 
Q 4756 3084 4391 3084 
Q 3944 3084 3684 2787 
Q 3425 2491 3425 1978 
L 3425 0 
L 2847 0 
L 2847 2094 
Q 2847 2600 2669 2842 
Q 2491 3084 2119 3084 
Q 1678 3084 1418 2786 
Q 1159 2488 1159 1978 
L 1159 0 
L 581 0 
L 581 3500 
L 1159 3500 
L 1159 2956 
Q 1356 3278 1631 3431 
Q 1906 3584 2284 3584 
Q 2666 3584 2933 3390 
Q 3200 3197 3328 2828 
z
" transform="scale(0.015625)"/>
       <path id="DejaVuSans-65" d="M 3597 1894 
L 3597 1613 
L 953 1613 
Q 991 1019 1311 708 
Q 1631 397 2203 397 
Q 2534 397 2845 478 
Q 3156 559 3463 722 
L 3463 178 
Q 3153 47 2828 -22 
Q 2503 -91 2169 -91 
Q 1331 -91 842 396 
Q 353 884 353 1716 
Q 353 2575 817 3079 
Q 1281 3584 2069 3584 
Q 2775 3584 3186 3129 
Q 3597 2675 3597 1894 
z
M 3022 2063 
Q 3016 2534 2758 2815 
Q 2500 3097 2075 3097 
Q 1594 3097 1305 2825 
Q 1016 2553 972 2059 
L 3022 2063 
z
" transform="scale(0.015625)"/>
       <path id="DejaVuSans-61" d="M 2194 1759 
Q 1497 1759 1228 1600 
Q 959 1441 959 1056 
Q 959 750 1161 570 
Q 1363 391 1709 391 
Q 2188 391 2477 730 
Q 2766 1069 2766 1631 
L 2766 1759 
L 2194 1759 
z
M 3341 1997 
L 3341 0 
L 2766 0 
L 2766 531 
Q 2569 213 2275 61 
Q 1981 -91 1556 -91 
Q 1019 -91 701 211 
Q 384 513 384 1019 
Q 384 1609 779 1909 
Q 1175 2209 1959 2209 
L 2766 2209 
L 2766 2266 
Q 2766 2663 2505 2880 
Q 2244 3097 1772 3097 
Q 1472 3097 1187 3025 
Q 903 2953 641 2809 
L 641 3341 
Q 956 3463 1253 3523 
Q 1550 3584 1831 3584 
Q 2591 3584 2966 3190 
Q 3341 2797 3341 1997 
z
" transform="scale(0.015625)"/>
       <path id="DejaVuSans-5f" d="M 3263 -1063 
L 3263 -1509 
L -63 -1509 
L -63 -1063 
L 3263 -1063 
z
" transform="scale(0.015625)"/>
       <path id="DejaVuSans-68" d="M 3513 2113 
L 3513 0 
L 2938 0 
L 2938 2094 
Q 2938 2591 2744 2837 
Q 2550 3084 2163 3084 
Q 1697 3084 1428 2787 
Q 1159 2491 1159 1978 
L 1159 0 
L 581 0 
L 581 4863 
L 1159 4863 
L 1159 2956 
Q 1366 3272 1645 3428 
Q 1925 3584 2291 3584 
Q 2894 3584 3203 3211 
Q 3513 2838 3513 2113 
z
" transform="scale(0.015625)"/>
       <path id="DejaVuSans-72" d="M 2631 2963 
Q 2534 3019 2420 3045 
Q 2306 3072 2169 3072 
Q 1681 3072 1420 2755 
Q 1159 2438 1159 1844 
L 1159 0 
L 581 0 
L 581 3500 
L 1159 3500 
L 1159 2956 
Q 1341 3275 1631 3429 
Q 1922 3584 2338 3584 
Q 2397 3584 2469 3576 
Q 2541 3569 2628 3553 
L 2631 2963 
z
" transform="scale(0.015625)"/>
       <path id="DejaVuSans-64" d="M 2906 2969 
L 2906 4863 
L 3481 4863 
L 3481 0 
L 2906 0 
L 2906 525 
Q 2725 213 2448 61 
Q 2172 -91 1784 -91 
Q 1150 -91 751 415 
Q 353 922 353 1747 
Q 353 2572 751 3078 
Q 1150 3584 1784 3584 
Q 2172 3584 2448 3432 
Q 2725 3281 2906 2969 
z
M 947 1747 
Q 947 1113 1208 752 
Q 1469 391 1925 391 
Q 2381 391 2643 752 
Q 2906 1113 2906 1747 
Q 2906 2381 2643 2742 
Q 2381 3103 1925 3103 
Q 1469 3103 1208 2742 
Q 947 2381 947 1747 
z
" transform="scale(0.015625)"/>
       <path id="DejaVuSans-63" d="M 3122 3366 
L 3122 2828 
Q 2878 2963 2633 3030 
Q 2388 3097 2138 3097 
Q 1578 3097 1268 2742 
Q 959 2388 959 1747 
Q 959 1106 1268 751 
Q 1578 397 2138 397 
Q 2388 397 2633 464 
Q 2878 531 3122 666 
L 3122 134 
Q 2881 22 2623 -34 
Q 2366 -91 2075 -91 
Q 1284 -91 818 406 
Q 353 903 353 1747 
Q 353 2603 823 3093 
Q 1294 3584 2113 3584 
Q 2378 3584 2631 3529 
Q 2884 3475 3122 3366 
z
" transform="scale(0.015625)"/>
      </defs>
      <use xlink:href="#DejaVuSans-6d"/>
      <use xlink:href="#DejaVuSans-65" x="97.412109"/>
      <use xlink:href="#DejaVuSans-61" x="158.935547"/>
      <use xlink:href="#DejaVuSans-6e" x="220.214844"/>
      <use xlink:href="#DejaVuSans-5f" x="283.59375"/>
      <use xlink:href="#DejaVuSans-70" x="333.59375"/>
      <use xlink:href="#DejaVuSans-68" x="397.070312"/>
      <use xlink:href="#DejaVuSans-72" x="460.449219"/>
      <use xlink:href="#DejaVuSans-65" x="499.3125"/>
      <use xlink:href="#DejaVuSans-64" x="560.835938"/>
      <use xlink:href="#DejaVuSans-5f" x="624.3125"/>
      <use xlink:href="#DejaVuSans-73" x="674.3125"/>
      <use xlink:href="#DejaVuSans-63" x="726.412109"/>
      <use xlink:href="#DejaVuSans-6f" x="781.392578"/>
      <use xlink:href="#DejaVuSans-72" x="842.574219"/>
      <use xlink:href="#DejaVuSans-65" x="881.4375"/>
     </g>
    </g>
   </g>
   <g id="line2d_25">
    <path d="M 40.91845 142.397155 
L 40.95565 147.878809 
L 40.99285 160.267662 
L 41.03005 172.25783 
L 41.06725 180.190996 
L 41.10445 174.407216 
L 41.14165 167.591002 
L 41.17885 159.326339 
L 41.21605 151.963712 
L 50.33005 119.815848 
L 68.74405 70.006634 
L 87.34405 51.110843 
L 105.94405 47.167876 
L 124.54405 47.16031 
L 143.14405 45.00963 
L 161.74405 46.546523 
L 180.34405 48.408058 
L 198.94405 50.092206 
L 217.54405 51.428054 
L 236.14405 52.941317 
L 254.74405 63.717667 
L 273.34405 85.743746 
L 291.94405 110.392431 
L 310.54405 136.26885 
L 329.14405 138.479413 
L 347.74405 143.503936 
L 366.34405 154.312336 
L 384.94405 169.728331 
L 403.54405 173.466766 
L 422.14405 166.187365 
L 440.74405 191.014522 
L 459.34405 216.312911 
L 477.94405 214.804971 
L 496.54405 216.519356 
L 515.14405 215.935926 
L 533.74405 215.146053 
L 552.34405 216.277008 
L 570.94405 213.377814 
L 589.54405 218.835121 
L 607.08125 217.557214 
" clip-path="url(#p2016259505)" style="fill: none; stroke: #1f77b4; stroke-width: 1.5; stroke-linecap: square"/>
   </g>
   <g id="line2d_26">
    <path d="M 40.91845 145.359803 
L 40.95565 150.979883 
L 40.99285 163.132732 
L 41.03005 174.517545 
L 41.06725 181.558061 
L 41.10445 176.144278 
L 41.14165 169.827762 
L 41.17885 162.093471 
L 41.21605 154.963064 
L 44.75005 136.189124 
L 52.00405 130.552499 
L 59.44405 105.777908 
L 66.88405 87.443537 
L 74.32405 75.708719 
L 81.76405 63.419066 
L 89.20405 54.777244 
L 96.64405 50.67116 
L 104.08405 50.933136 
L 111.52405 49.468266 
L 118.96405 49.682079 
L 126.40405 49.546921 
L 133.84405 47.114487 
L 141.28405 44.140284 
L 148.72405 42.726865 
L 156.16405 42.158927 
L 163.60405 41.731324 
L 171.04405 38.74514 
L 178.48405 42.948486 
L 185.92405 40.038538 
L 193.36405 39.422688 
L 200.80405 41.930211 
L 208.24405 42.973477 
L 215.68405 43.971693 
L 223.12405 44.724556 
L 230.56405 43.158143 
L 238.00405 40.533465 
L 245.44405 43.868086 
L 252.88405 45.139161 
L 260.32405 47.2631 
L 267.76405 34.050837 
L 275.20405 27.758629 
L 282.64405 34.6884 
L 290.08405 31.788458 
L 297.52405 31.426433 
L 304.96405 32.851346 
L 311.43685 41.048817 
" clip-path="url(#p2016259505)" style="fill: none; stroke: #1f77b4; stroke-width: 1.5; stroke-linecap: square"/>
   </g>
   <g id="line2d_27">
    <path d="M 40.91845 144.362818 
L 40.95565 149.930311 
L 40.99285 162.032947 
L 41.03005 173.937502 
L 41.06725 181.362285 
L 41.10445 175.480214 
L 41.14165 169.181971 
L 41.17885 161.522068 
L 41.21605 154.395252 
L 44.75005 137.367156 
L 52.00405 123.512841 
L 59.44405 90.795568 
L 66.88405 76.268883 
L 74.32405 65.918846 
L 81.76405 57.82925 
L 89.20405 53.10001 
L 96.64405 54.080824 
L 104.08405 50.644206 
L 111.52405 49.571077 
L 118.96405 47.464761 
L 126.40405 45.927375 
L 133.84405 44.781519 
L 141.28405 46.518249 
L 148.72405 45.759943 
L 156.16405 48.373312 
L 163.60405 45.910988 
L 171.04405 45.506173 
L 178.48405 47.823869 
L 185.92405 44.042828 
L 193.36405 43.87791 
L 200.80405 43.884651 
L 208.24405 42.927191 
L 215.68405 44.354595 
L 223.12405 45.329627 
L 230.56405 45.87446 
L 238.00405 56.403733 
L 245.44405 60.714745 
L 252.88405 62.597164 
L 260.32405 62.382417 
L 267.76405 76.845228 
L 275.20405 77.230546 
L 282.64405 109.257112 
L 290.08405 186.950713 
L 297.52405 186.319413 
L 304.96405 175.488573 
L 312.40405 147.977641 
L 316.75645 67.965218 
" clip-path="url(#p2016259505)" style="fill: none; stroke: #1f77b4; stroke-width: 1.5; stroke-linecap: square"/>
   </g>
   <g id="line2d_28">
    <path d="M 40.91845 145.891693 
L 40.95565 151.447966 
L 40.99285 163.729365 
L 41.03005 175.371804 
L 41.06725 182.517717 
L 41.10445 176.748959 
L 41.14165 169.990464 
L 41.17885 161.51415 
L 41.21605 154.748112 
L 44.75005 138.061253 
L 52.00405 129.604511 
L 59.44405 103.916273 
L 66.88405 83.887866 
L 74.32405 71.49163 
L 81.76405 66.800706 
L 89.20405 62.265522 
L 96.64405 49.728551 
L 104.08405 48.019585 
L 111.52405 47.236381 
L 118.96405 47.257308 
L 126.40405 50.211675 
L 133.84405 46.8626 
L 141.28405 47.360409 
L 148.72405 47.118819 
L 156.16405 42.988362 
L 163.60405 46.678019 
L 171.04405 47.36742 
L 178.48405 50.576845 
L 185.92405 46.329351 
L 193.36405 45.00944 
L 200.80405 45.818394 
L 208.24405 44.921755 
L 215.68405 50.257951 
L 223.12405 45.111357 
L 230.56405 45.344337 
L 238.00405 45.698425 
L 245.44405 44.046278 
L 252.88405 43.518833 
L 260.32405 44.467576 
L 267.76405 39.621069 
L 275.20405 42.571427 
L 282.64405 67.803993 
L 290.08405 73.872031 
L 297.52405 72.064522 
L 304.96405 92.697722 
L 312.40405 102.357963 
L 319.84405 96.433913 
L 327.28405 96.56855 
L 334.72405 114.43046 
L 342.16405 144.735121 
L 349.60405 161.0487 
L 357.04405 177.115443 
L 364.48405 128.152267 
L 371.92405 113.633855 
L 379.36405 106.542946 
L 386.80405 92.675282 
L 394.24405 125.81855 
L 401.68405 93.124074 
L 409.12405 136.275397 
L 416.56405 125.167802 
L 424.00405 143.904856 
L 431.44405 161.542371 
L 438.88405 141.997491 
L 446.32405 140.561358 
L 453.76405 131.989436 
L 461.20405 128.421542 
L 468.64405 106.34099 
L 474.63325 102.621168 
" clip-path="url(#p2016259505)" style="fill: none; stroke: #1f77b4; stroke-width: 1.5; stroke-linecap: square"/>
   </g>
   <g id="line2d_29">
    <path d="M 40.91845 141.769749 
L 40.95565 148.456316 
L 40.99285 160.552131 
L 41.03005 170.956206 
L 41.06725 178.183362 
L 41.10445 173.078779 
L 41.14165 166.791378 
L 41.17885 158.313918 
L 41.21605 151.122931 
L 42.89005 130.845527 
L 46.42405 132.121887 
L 50.14405 124.170462 
L 53.86405 109.688956 
L 57.58405 94.728207 
L 61.30405 96.809528 
L 65.02405 101.328655 
L 68.74405 107.87873 
L 72.46405 108.359274 
L 76.18405 108.373436 
L 79.90405 103.616116 
L 83.62405 88.520628 
L 87.34405 80.543007 
L 91.06405 69.764535 
L 94.78405 66.78997 
L 98.50405 64.191142 
L 102.22405 59.151427 
L 105.94405 56.135502 
L 109.66405 55.273406 
L 113.38405 49.240376 
L 117.10405 46.903169 
L 120.82405 52.566428 
L 124.54405 54.575829 
L 128.26405 57.023385 
L 131.98405 52.792218 
L 135.70405 52.867017 
L 139.42405 48.861331 
L 143.14405 45.248118 
L 146.86405 43.779143 
L 150.58405 43.791991 
L 154.30405 39.800437 
L 158.02405 43.829689 
L 161.74405 48.585984 
L 165.46405 46.637477 
L 169.18405 46.163516 
L 172.90405 46.316041 
L 176.62405 40.047333 
L 180.34405 44.467201 
L 184.06405 39.666715 
L 187.78405 44.220378 
L 191.50405 39.227627 
L 195.22405 35.612863 
L 198.94405 41.079824 
L 202.66405 44.614868 
L 206.38405 54.035673 
L 210.10405 47.938634 
L 213.82405 45.197997 
L 217.54405 43.189383 
L 221.26405 44.515863 
L 224.98405 40.206544 
L 228.70405 42.57634 
L 232.42405 44.158093 
L 236.14405 40.232474 
L 239.86405 40.376729 
L 243.58405 45.779753 
L 247.30405 42.612566 
L 251.02405 42.060738 
L 254.74405 31.199385 
L 258.46405 35.669758 
L 262.18405 30.003282 
L 265.90405 33.164753 
L 269.62405 25.102209 
L 271.74445 17.28 
" clip-path="url(#p2016259505)" style="fill: none; stroke: #1f77b4; stroke-width: 1.5; stroke-linecap: square"/>
   </g>
   <g id="line2d_30">
    <path d="M 40.91845 144.145493 
L 40.95565 151.185699 
L 40.99285 162.948221 
L 41.03005 172.053601 
L 41.06725 178.920542 
L 41.10445 173.791459 
L 41.14165 168.244519 
L 41.17885 160.447303 
L 41.21605 153.984281 
L 134.03005 72.25662 
L 319.84405 123.419076 
L 505.84405 153.234338 
L 607.08125 152.508853 
" clip-path="url(#p2016259505)" style="fill: none; stroke: #1f77b4; stroke-width: 1.5; stroke-linecap: square"/>
   </g>
   <g id="line2d_31">
    <path d="M 40.91845 143.532457 
L 40.95565 150.972732 
L 40.99285 162.960325 
L 41.03005 173.104301 
L 41.06725 179.986082 
L 41.10445 174.953976 
L 41.14165 168.975455 
L 41.17885 161.120942 
L 41.21605 154.35667 
L 50.33005 120.316314 
L 68.74405 105.327259 
L 87.34405 83.414162 
L 105.94405 70.289502 
L 124.54405 54.057256 
L 143.14405 53.253921 
L 161.74405 48.797225 
L 180.34405 53.294416 
L 198.94405 56.869478 
L 217.54405 53.785816 
L 236.14405 57.394405 
L 254.74405 57.56829 
L 273.34405 177.498412 
L 291.94405 191.764005 
L 310.54405 189.744442 
L 329.14405 181.504626 
L 347.74405 192.329482 
L 366.34405 187.150426 
L 384.94405 179.844097 
L 403.54405 182.653533 
L 422.14405 198.917745 
L 440.74405 189.116133 
L 459.34405 201.143751 
L 477.94405 195.650541 
L 496.54405 212.327641 
L 515.14405 217.022002 
L 533.74405 205.129022 
L 552.34405 218.368377 
L 570.94405 211.071024 
L 589.54405 208.584718 
L 607.08125 194.527746 
" clip-path="url(#p2016259505)" style="fill: none; stroke: #1f77b4; stroke-width: 1.5; stroke-linecap: square"/>
   </g>
   <g id="line2d_32">
    <path d="M 40.91845 144.470096 
L 40.95565 151.249233 
L 40.99285 162.646327 
L 41.03005 172.153285 
L 41.06725 179.371794 
L 41.10445 173.952726 
L 41.14165 168.397354 
L 41.17885 161.061207 
L 41.21605 154.520962 
L 44.75005 132.716131 
L 52.00405 119.18271 
L 59.44405 104.807074 
L 66.88405 117.858401 
L 74.32405 121.437307 
L 81.76405 111.693669 
L 89.20405 101.409637 
L 96.64405 88.885795 
L 104.08405 77.213273 
L 111.52405 65.70247 
L 118.96405 55.267473 
L 126.40405 63.170772 
L 133.84405 66.166651 
L 141.28405 60.602247 
L 148.72405 58.741904 
L 156.16405 57.083737 
L 163.60405 59.59369 
L 171.04405 49.056467 
L 178.48405 53.472079 
L 185.92405 50.223326 
L 193.36405 50.810495 
L 200.80405 41.180576 
L 208.24405 45.814105 
L 215.68405 34.983251 
L 223.12405 42.980167 
L 230.56405 33.345017 
L 238.00405 35.714139 
L 245.44405 41.670104 
L 252.88405 40.271681 
L 260.32405 48.773835 
L 267.76405 28.485832 
L 275.20405 36.507129 
L 282.64405 35.832071 
L 290.08405 65.747779 
L 297.52405 125.347319 
L 304.96405 102.077468 
L 312.40405 108.293234 
L 319.84405 96.198297 
L 327.28405 76.316824 
L 334.72405 57.243176 
L 342.16405 89.780575 
L 349.60405 105.667802 
L 357.04405 98.71153 
L 364.48405 80.198872 
L 371.92405 58.163199 
L 379.36405 117.897376 
L 386.80405 70.370334 
L 394.24405 99.564235 
L 401.68405 78.022232 
L 409.12405 109.347894 
L 416.56405 85.696571 
L 424.00405 113.34214 
L 428.09605 78.022232 
" clip-path="url(#p2016259505)" style="fill: none; stroke: #1f77b4; stroke-width: 1.5; stroke-linecap: square"/>
   </g>
   <g id="line2d_33">
    <path d="M 40.91845 139.764504 
L 40.95565 144.823892 
L 40.99285 157.477522 
L 41.03005 167.480198 
L 41.06725 175.919392 
L 41.10445 169.896372 
L 41.14165 162.898111 
L 41.17885 153.772637 
L 41.21605 144.927092 
L 44.75005 118.808384 
L 52.00405 107.841008 
L 59.44405 76.310146 
L 66.88405 64.687615 
L 74.32405 59.194972 
L 81.76405 52.805357 
L 89.20405 46.340715 
L 96.64405 43.77402 
L 104.08405 44.513981 
L 111.52405 43.900528 
L 118.96405 45.47068 
L 126.40405 43.075837 
L 133.84405 41.597437 
L 141.28405 41.898136 
L 148.72405 42.332703 
L 156.16405 43.140203 
L 163.60405 42.28872 
L 171.04405 41.511405 
L 178.48405 45.780296 
L 185.92405 45.524521 
L 193.36405 45.467893 
L 200.80405 46.98333 
L 208.24405 43.396492 
L 215.68405 44.074923 
L 223.12405 42.959651 
L 230.56405 40.573822 
L 238.00405 40.998131 
L 245.44405 42.349916 
L 252.88405 36.178034 
L 260.32405 36.528012 
L 267.76405 42.926644 
L 275.20405 43.239551 
L 282.64405 40.816714 
L 290.08405 49.667679 
L 297.52405 52.920564 
L 304.96405 55.968608 
L 312.40405 49.335092 
L 319.84405 62.505259 
L 327.28405 49.378101 
L 334.72405 90.09473 
L 342.16405 59.700311 
L 349.60405 89.00641 
L 357.04405 108.360552 
L 364.48405 106.722463 
L 371.92405 66.510725 
L 379.36405 129.319125 
L 386.80405 117.111991 
L 394.24405 126.177583 
L 401.68405 140.022808 
L 409.12405 118.996916 
L 416.56405 118.570564 
L 424.00405 116.640759 
L 431.44405 116.102209 
L 438.06565 127.208357 
" clip-path="url(#p2016259505)" style="fill: none; stroke: #ff7f0e; stroke-width: 1.5; stroke-linecap: square"/>
   </g>
   <g id="line2d_34">
    <path d="M 40.91845 143.031258 
L 40.95565 148.737598 
L 40.99285 161.96653 
L 41.03005 172.096092 
L 41.06725 179.875069 
L 41.10445 174.431103 
L 41.14165 167.80825 
L 41.17885 158.934251 
L 41.21605 150.682042 
L 44.75005 120.774247 
L 52.00405 118.008941 
L 59.44405 91.797921 
L 66.88405 74.154336 
L 74.32405 65.398769 
L 81.76405 53.833804 
L 89.20405 46.247554 
L 96.64405 42.92871 
L 104.08405 44.414048 
L 111.52405 42.921338 
L 118.96405 44.070779 
L 126.40405 45.592495 
L 133.84405 43.53177 
L 141.28405 41.603204 
L 148.72405 39.09013 
L 156.16405 39.54555 
L 163.60405 39.734472 
L 171.04405 37.148556 
L 178.48405 41.362415 
L 185.92405 39.077248 
L 193.36405 38.469461 
L 200.80405 40.418182 
L 208.24405 41.452552 
L 215.68405 42.976696 
L 223.12405 44.724556 
L 230.56405 43.158143 
L 238.00405 40.533465 
L 245.44405 43.868086 
L 252.88405 45.139161 
L 260.32405 47.2631 
L 267.76405 34.050837 
L 275.20405 27.758629 
L 282.64405 34.6884 
L 290.08405 31.788458 
L 297.52405 31.426433 
L 304.96405 32.851346 
L 311.43685 41.048817 
" clip-path="url(#p2016259505)" style="fill: none; stroke: #ff7f0e; stroke-width: 1.5; stroke-linecap: square"/>
   </g>
   <g id="line2d_35">
    <path d="M 40.91845 141.296066 
L 40.95565 146.640688 
L 40.99285 158.995507 
L 41.03005 169.290464 
L 41.06725 177.382051 
L 41.10445 171.343077 
L 41.14165 164.82574 
L 41.17885 156.216651 
L 41.21605 147.772815 
L 44.75005 120.710124 
L 52.00405 110.815309 
L 59.44405 79.012855 
L 66.88405 68.546728 
L 74.32405 59.892039 
L 81.76405 51.661283 
L 89.20405 46.527307 
L 96.64405 48.210873 
L 104.08405 45.884941 
L 111.52405 44.956743 
L 118.96405 44.4673 
L 126.40405 43.443373 
L 133.84405 42.161889 
L 141.28405 43.632223 
L 148.72405 41.83344 
L 156.16405 44.411127 
L 163.60405 42.626806 
L 171.04405 42.477285 
L 178.48405 45.041475 
L 185.92405 41.66357 
L 193.36405 40.977212 
L 200.80405 40.833246 
L 208.24405 41.274517 
L 215.68405 42.195837 
L 223.12405 42.973929 
L 230.56405 42.814929 
L 238.00405 52.864588 
L 245.44405 57.341964 
L 252.88405 56.735374 
L 260.32405 54.517978 
L 267.76405 65.642234 
L 275.20405 61.101974 
L 282.64405 91.891125 
L 290.08405 177.2987 
L 297.52405 179.849333 
L 304.96405 177.83351 
L 309.80005 173.725164 
" clip-path="url(#p2016259505)" style="fill: none; stroke: #ff7f0e; stroke-width: 1.5; stroke-linecap: square"/>
   </g>
   <g id="line2d_36">
    <path d="M 40.91845 143.827776 
L 40.95565 149.375448 
L 40.99285 162.082787 
L 41.03005 171.781977 
L 41.06725 179.208041 
L 41.10445 173.899543 
L 41.14165 167.369896 
L 41.17885 158.240446 
L 41.21605 150.127972 
L 44.75005 121.972036 
L 52.00405 117.651795 
L 59.44405 90.037819 
L 66.88405 73.221552 
L 74.32405 64.580659 
L 81.76405 57.351133 
L 89.20405 54.627961 
L 96.64405 46.678949 
L 104.08405 46.868082 
L 111.52405 45.788278 
L 118.96405 45.996099 
L 126.40405 48.81705 
L 133.84405 45.533896 
L 141.28405 45.882257 
L 148.72405 45.724336 
L 156.16405 41.420258 
L 163.60405 45.036107 
L 171.04405 45.7063 
L 178.48405 48.784904 
L 185.92405 44.279845 
L 193.36405 42.666423 
L 200.80405 44.936273 
L 208.24405 44.921755 
L 215.68405 50.257951 
L 223.12405 45.111357 
L 230.56405 45.344337 
L 238.00405 45.698425 
L 245.44405 44.046278 
L 252.88405 43.518833 
L 260.32405 44.467576 
L 267.76405 39.621069 
L 275.20405 42.571427 
L 282.64405 67.803993 
L 290.08405 73.872031 
L 297.52405 72.064522 
L 304.96405 92.697722 
L 312.40405 102.357963 
L 319.84405 96.433913 
L 327.28405 96.56855 
L 334.72405 114.43046 
L 342.16405 144.735121 
L 349.60405 161.0487 
L 357.04405 177.115443 
L 364.48405 128.152267 
L 371.92405 113.633855 
L 379.36405 106.542946 
L 386.80405 92.675282 
L 394.24405 125.81855 
L 401.68405 93.124074 
L 409.12405 136.275397 
L 416.56405 125.167802 
L 424.00405 143.904856 
L 431.44405 161.542371 
L 438.88405 141.997491 
L 446.32405 140.561358 
L 453.76405 131.989436 
L 461.20405 128.421542 
L 468.64405 106.34099 
L 474.63325 102.621168 
" clip-path="url(#p2016259505)" style="fill: none; stroke: #ff7f0e; stroke-width: 1.5; stroke-linecap: square"/>
   </g>
   <g id="line2d_37">
    <path d="M 40.91845 138.089202 
L 40.95565 144.532919 
L 40.99285 156.574271 
L 41.03005 165.306907 
L 41.06725 172.179797 
L 41.10445 166.715002 
L 41.14165 160.34077 
L 41.17885 151.301581 
L 41.21605 142.853016 
L 42.89005 113.783829 
L 46.42405 119.679119 
L 50.14405 114.189521 
L 53.86405 98.006841 
L 57.58405 82.882093 
L 61.30405 87.968383 
L 65.02405 92.928635 
L 68.74405 100.223555 
L 72.46405 100.507924 
L 76.18405 100.731988 
L 79.90405 95.939357 
L 83.62405 83.118538 
L 87.34405 75.015844 
L 91.06405 66.508742 
L 94.78405 63.871216 
L 98.50405 59.32739 
L 102.22405 53.921368 
L 105.94405 50.954948 
L 109.66405 49.544809 
L 113.38405 43.475442 
L 117.10405 39.862279 
L 120.82405 43.153864 
L 124.54405 43.477177 
L 128.26405 45.501942 
L 131.98405 40.252113 
L 135.70405 40.817399 
L 139.42405 36.358128 
L 143.14405 34.711922 
L 146.86405 34.8838 
L 150.58405 36.404917 
L 154.30405 31.478712 
L 158.02405 35.912201 
L 161.74405 39.329703 
L 165.46405 38.344665 
L 169.18405 37.514878 
L 172.90405 36.875347 
L 176.62405 33.73261 
L 180.34405 38.670059 
L 184.06405 34.43951 
L 187.78405 38.677207 
L 191.50405 34.713832 
L 195.22405 35.612863 
L 198.94405 41.079824 
L 202.66405 44.614868 
L 206.38405 54.035673 
L 210.10405 47.938634 
L 213.82405 45.197997 
L 217.54405 43.189383 
L 221.26405 44.515863 
L 224.98405 40.206544 
L 228.70405 42.57634 
L 232.42405 44.158093 
L 236.14405 40.232474 
L 239.86405 40.376729 
L 243.58405 45.779753 
L 247.30405 42.612566 
L 251.02405 42.060738 
L 254.74405 31.199385 
L 258.46405 35.669758 
L 262.18405 30.003282 
L 265.90405 33.164753 
L 269.62405 25.102209 
L 271.74445 17.28 
" clip-path="url(#p2016259505)" style="fill: none; stroke: #ff7f0e; stroke-width: 1.5; stroke-linecap: square"/>
   </g>
   <g id="line2d_38">
    <path d="M 40.91845 142.194717 
L 40.95565 148.619544 
L 40.99285 160.218741 
L 41.03005 167.793841 
L 41.06725 174.188983 
L 41.10445 168.804967 
L 41.14165 163.270673 
L 41.17885 154.823593 
L 41.21605 147.649234 
L 134.03005 66.101762 
L 319.84405 123.246495 
L 505.84405 153.234338 
L 607.08125 152.508853 
" clip-path="url(#p2016259505)" style="fill: none; stroke: #ff7f0e; stroke-width: 1.5; stroke-linecap: square"/>
   </g>
   <g id="line2d_39">
    <path d="M 40.91845 140.452845 
L 40.95565 147.658989 
L 40.99285 159.016399 
L 41.03005 167.930817 
L 41.06725 175.114214 
L 41.10445 169.884756 
L 41.14165 164.052511 
L 41.17885 155.406503 
L 41.21605 147.463367 
L 42.89005 115.937778 
L 46.42405 123.280081 
L 50.14405 118.372685 
L 53.86405 99.54956 
L 57.58405 82.064349 
L 61.30405 85.216494 
L 65.02405 91.786325 
L 68.74405 95.399498 
L 72.46405 99.006843 
L 76.18405 99.305631 
L 79.90405 92.222151 
L 83.62405 86.479199 
L 87.34405 84.173906 
L 91.06405 71.699411 
L 94.78405 70.924337 
L 98.50405 70.700517 
L 102.22405 76.097959 
L 105.94405 72.854462 
L 109.66405 66.501442 
L 113.38405 53.889199 
L 117.10405 51.942091 
L 120.82405 47.357087 
L 124.54405 41.935779 
L 128.26405 42.642986 
L 131.98405 47.232225 
L 135.70405 40.65236 
L 139.42405 46.09905 
L 143.14405 48.246708 
L 146.86405 41.993543 
L 150.58405 45.241203 
L 154.30405 42.803303 
L 158.02405 38.6071 
L 161.74405 48.573482 
L 165.46405 42.753615 
L 169.18405 36.813239 
L 172.90405 48.43273 
L 176.62405 52.651692 
L 180.34405 39.179552 
L 184.06405 46.75706 
L 187.78405 49.908244 
L 191.50405 46.110043 
L 195.22405 57.047952 
L 198.94405 56.262448 
L 202.66405 44.825818 
L 206.38405 45.363117 
L 210.10405 41.450823 
L 213.82405 50.020434 
L 217.54405 43.628144 
L 221.26405 37.744672 
L 224.98405 43.293972 
L 228.70405 37.830894 
L 232.42405 41.846356 
L 236.14405 43.881151 
L 239.86405 44.751807 
L 243.58405 43.659747 
L 247.30405 36.391191 
L 251.02405 36.208202 
L 254.74405 22.756525 
L 258.46405 35.728101 
L 262.18405 42.190702 
L 265.71805 66.230104 
" clip-path="url(#p2016259505)" style="fill: none; stroke: #ff7f0e; stroke-width: 1.5; stroke-linecap: square"/>
   </g>
   <g id="line2d_40">
    <path d="M 40.91845 139.78148 
L 40.95565 146.120809 
L 40.99285 157.255648 
L 41.03005 165.666098 
L 41.06725 173.11276 
L 41.10445 168.082895 
L 41.14165 162.452492 
L 41.17885 153.910216 
L 41.21605 146.290717 
L 44.75005 118.671054 
L 52.00405 109.628971 
L 59.44405 93.653692 
L 66.88405 107.131213 
L 74.32405 113.327182 
L 81.76405 106.787076 
L 89.20405 96.031962 
L 96.64405 80.386938 
L 104.08405 66.350658 
L 111.52405 51.573989 
L 118.96405 39.181554 
L 126.40405 47.29435 
L 133.84405 50.87742 
L 141.28405 43.439075 
L 148.72405 42.605966 
L 156.16405 45.449194 
L 163.60405 45.033484 
L 171.04405 32.885006 
L 178.48405 40.334948 
L 185.92405 35.050426 
L 193.36405 35.420679 
L 200.80405 33.372319 
L 208.24405 39.497228 
L 215.68405 34.405288 
L 223.12405 42.980167 
L 230.56405 33.345017 
L 238.00405 35.714139 
L 245.44405 41.670104 
L 252.88405 40.271681 
L 260.32405 48.773835 
L 267.76405 28.485832 
L 275.20405 36.507129 
L 282.64405 35.832071 
L 290.08405 65.747779 
L 297.52405 125.347319 
L 304.96405 102.077468 
L 312.40405 108.293234 
L 319.84405 96.198297 
L 327.28405 76.316824 
L 334.72405 57.243176 
L 342.16405 89.780575 
L 349.60405 105.667802 
L 357.04405 98.71153 
L 364.48405 80.198872 
L 371.92405 58.163199 
L 379.36405 117.897376 
L 386.80405 70.370334 
L 394.24405 99.564235 
L 401.68405 78.022232 
L 409.12405 109.347894 
L 416.56405 85.696571 
L 424.00405 113.34214 
L 428.09605 78.022232 
" clip-path="url(#p2016259505)" style="fill: none; stroke: #ff7f0e; stroke-width: 1.5; stroke-linecap: square"/>
   </g>
   <g id="line2d_41"/>
   <g id="line2d_42"/>
   <g id="patch_3">
    <path d="M 40.88125 228.96 
L 40.88125 7.2 
" style="fill: none; stroke: #000000; stroke-width: 0.8; stroke-linejoin: miter; stroke-linecap: square"/>
   </g>
   <g id="patch_4">
    <path d="M 40.88125 228.96 
L 598.88125 228.96 
" style="fill: none; stroke: #000000; stroke-width: 0.8; stroke-linejoin: miter; stroke-linecap: square"/>
   </g>
   <g id="legend_1">
    <g id="patch_5">
     <path d="M 502.9625 59.5125 
L 591.88125 59.5125 
Q 593.88125 59.5125 593.88125 57.5125 
L 593.88125 14.2 
Q 593.88125 12.2 591.88125 12.2 
L 502.9625 12.2 
Q 500.9625 12.2 500.9625 14.2 
L 500.9625 57.5125 
Q 500.9625 59.5125 502.9625 59.5125 
z
" style="fill: #ffffff; opacity: 0.8; stroke: #cccccc; stroke-linejoin: miter"/>
    </g>
    <g id="text_15">
     <!-- stage -->
     <g transform="translate(533.542188 23.798437) scale(0.1 -0.1)">
      <defs>
       <path id="DejaVuSans-67" d="M 2906 1791 
Q 2906 2416 2648 2759 
Q 2391 3103 1925 3103 
Q 1463 3103 1205 2759 
Q 947 2416 947 1791 
Q 947 1169 1205 825 
Q 1463 481 1925 481 
Q 2391 481 2648 825 
Q 2906 1169 2906 1791 
z
M 3481 434 
Q 3481 -459 3084 -895 
Q 2688 -1331 1869 -1331 
Q 1566 -1331 1297 -1286 
Q 1028 -1241 775 -1147 
L 775 -588 
Q 1028 -725 1275 -790 
Q 1522 -856 1778 -856 
Q 2344 -856 2625 -561 
Q 2906 -266 2906 331 
L 2906 616 
Q 2728 306 2450 153 
Q 2172 0 1784 0 
Q 1141 0 747 490 
Q 353 981 353 1791 
Q 353 2603 747 3093 
Q 1141 3584 1784 3584 
Q 2172 3584 2450 3431 
Q 2728 3278 2906 2969 
L 2906 3500 
L 3481 3500 
L 3481 434 
z
" transform="scale(0.015625)"/>
      </defs>
      <use xlink:href="#DejaVuSans-73"/>
      <use xlink:href="#DejaVuSans-74" x="52.099609"/>
      <use xlink:href="#DejaVuSans-61" x="91.308594"/>
      <use xlink:href="#DejaVuSans-67" x="152.587891"/>
      <use xlink:href="#DejaVuSans-65" x="216.064453"/>
     </g>
    </g>
    <g id="line2d_43">
     <path d="M 504.9625 34.976562 
L 514.9625 34.976562 
L 524.9625 34.976562 
" style="fill: none; stroke: #1f77b4; stroke-width: 1.5; stroke-linecap: square"/>
    </g>
    <g id="text_16">
     <!-- raw_concat -->
     <g transform="translate(532.9625 38.476562) scale(0.1 -0.1)">
      <defs>
       <path id="DejaVuSans-77" d="M 269 3500 
L 844 3500 
L 1563 769 
L 2278 3500 
L 2956 3500 
L 3675 769 
L 4391 3500 
L 4966 3500 
L 4050 0 
L 3372 0 
L 2619 2869 
L 1863 0 
L 1184 0 
L 269 3500 
z
" transform="scale(0.015625)"/>
      </defs>
      <use xlink:href="#DejaVuSans-72"/>
      <use xlink:href="#DejaVuSans-61" x="41.113281"/>
      <use xlink:href="#DejaVuSans-77" x="102.392578"/>
      <use xlink:href="#DejaVuSans-5f" x="184.179688"/>
      <use xlink:href="#DejaVuSans-63" x="234.179688"/>
      <use xlink:href="#DejaVuSans-6f" x="289.160156"/>
      <use xlink:href="#DejaVuSans-6e" x="350.341797"/>
      <use xlink:href="#DejaVuSans-63" x="413.720703"/>
      <use xlink:href="#DejaVuSans-61" x="468.701172"/>
      <use xlink:href="#DejaVuSans-74" x="529.980469"/>
     </g>
    </g>
    <g id="line2d_44">
     <path d="M 504.9625 49.932812 
L 514.9625 49.932812 
L 524.9625 49.932812 
" style="fill: none; stroke: #ff7f0e; stroke-width: 1.5; stroke-linecap: square"/>
    </g>
    <g id="text_17">
     <!-- cleaned -->
     <g transform="translate(532.9625 53.432812) scale(0.1 -0.1)">
      <defs>
       <path id="DejaVuSans-6c" d="M 603 4863 
L 1178 4863 
L 1178 0 
L 603 0 
L 603 4863 
z
" transform="scale(0.015625)"/>
      </defs>
      <use xlink:href="#DejaVuSans-63"/>
      <use xlink:href="#DejaVuSans-6c" x="54.980469"/>
      <use xlink:href="#DejaVuSans-65" x="82.763672"/>
      <use xlink:href="#DejaVuSans-61" x="144.287109"/>
      <use xlink:href="#DejaVuSans-6e" x="205.566406"/>
      <use xlink:href="#DejaVuSans-65" x="268.945312"/>
      <use xlink:href="#DejaVuSans-64" x="330.46875"/>
     </g>
    </g>
   </g>
  </g>
 </g>
 <defs>
  <clipPath id="p2016259505">
   <rect x="40.88125" y="7.2" width="558" height="221.76"/>
  </clipPath>
 </defs>
</svg>
