<?xml version="1.0" encoding="utf-8" standalone="no"?>
<!DOCTYPE svg PUBLIC "-//W3C//DTD SVG 1.1//EN"
  "http://www.w3.org/Graphics/SVG/1.1/DTD/svg11.dtd">
<svg xmlns:xlink="http://www.w3.org/1999/xlink" width="712.405625pt" height="279.994375pt" viewBox="0 0 712.405625 279.994375" xmlns="http://www.w3.org/2000/svg" version="1.1">
 <metadata>
  <rdf:RDF xmlns:dc="http://purl.org/dc/elements/1.1/" xmlns:cc="http://creativecommons.org/ns#" xmlns:rdf="http://www.w3.org/1999/02/22-rdf-syntax-ns#">
   <cc:Work>
    <dc:type rdf:resource="http://purl.org/dc/dcmitype/StillImage"/>
    <dc:date>2024-12-09T22:45:36.470682</dc:date>
    <dc:format>image/svg+xml</dc:format>
    <dc:creator>
     <cc:Agent>
      <dc:title>Matplotlib v3.8.1, https://matplotlib.org/</dc:title>
     </cc:Agent>
    </dc:creator>
   </cc:Work>
  </rdf:RDF>
 </metadata>
 <defs>
  <style type="text/css">*{stroke-linejoin: round; stroke-linecap: butt}</style>
 </defs>
 <g id="figure_1">
  <g id="patch_1">
   <path d="M 0 279.994375 
L 712.405625 279.994375 
L 712.405625 0 
L 0 0 
z
" style="fill: #ffffff"/>
  </g>
  <g id="axes_1">
   <g id="patch_2">
    <path d="M 46.965625 242.438125 
L 705.205625 242.438125 
L 705.205625 22.318125 
L 46.965625 22.318125 
z
" style="fill: #ffffff"/>
   </g>
   <g id="matplotlib.axis_1">
    <g id="xtick_1">
     <g id="line2d_1">
      <path d="M 46.965625 242.438125 
L 46.965625 22.318125 
" clip-path="url(#paf8c099b77)" style="fill: none; stroke-dasharray: 2.96,1.28; stroke-dashoffset: 0; stroke: #b0b0b0; stroke-opacity: 0.7; stroke-width: 0.8"/>
     </g>
     <g id="line2d_2">
      <defs>
       <path id="md6de831b6a" d="M 0 0 
L 0 3.5 
" style="stroke: #000000; stroke-width: 0.8"/>
      </defs>
      <g>
       <use xlink:href="#md6de831b6a" x="46.965625" y="242.438125" style="stroke: #000000; stroke-width: 0.8"/>
      </g>
     </g>
     <g id="text_1">
      <!-- 0 -->
      <g transform="translate(43.784375 257.036563) scale(0.1 -0.1)">
       <defs>
        <path id="DejaVuSans-30" d="M 2034 4250 
Q 1547 4250 1301 3770 
Q 1056 3291 1056 2328 
Q 1056 1369 1301 889 
Q 1547 409 2034 409 
Q 2525 409 2770 889 
Q 3016 1369 3016 2328 
Q 3016 3291 2770 3770 
Q 2525 4250 2034 4250 
z
M 2034 4750 
Q 2819 4750 3233 4129 
Q 3647 3509 3647 2328 
Q 3647 1150 3233 529 
Q 2819 -91 2034 -91 
Q 1250 -91 836 529 
Q 422 1150 422 2328 
Q 422 3509 836 4129 
Q 1250 4750 2034 4750 
z
" transform="scale(0.015625)"/>
       </defs>
       <use xlink:href="#DejaVuSans-30"/>
      </g>
     </g>
    </g>
    <g id="xtick_2">
     <g id="line2d_3">
      <path d="M 134.730958 242.438125 
L 134.730958 22.318125 
" clip-path="url(#paf8c099b77)" style="fill: none; stroke-dasharray: 2.96,1.28; stroke-dashoffset: 0; stroke: #b0b0b0; stroke-opacity: 0.7; stroke-width: 0.8"/>
     </g>
     <g id="line2d_4">
      <g>
       <use xlink:href="#md6de831b6a" x="134.730958" y="242.438125" style="stroke: #000000; stroke-width: 0.8"/>
      </g>
     </g>
     <g id="text_2">
      <!-- 2000 -->
      <g transform="translate(122.005958 257.036563) scale(0.1 -0.1)">
       <defs>
        <path id="DejaVuSans-32" d="M 1228 531 
L 3431 531 
L 3431 0 
L 469 0 
L 469 531 
Q 828 903 1448 1529 
Q 2069 2156 2228 2338 
Q 2531 2678 2651 2914 
Q 2772 3150 2772 3378 
Q 2772 3750 2511 3984 
Q 2250 4219 1831 4219 
Q 1534 4219 1204 4116 
Q 875 4013 500 3803 
L 500 4441 
Q 881 4594 1212 4672 
Q 1544 4750 1819 4750 
Q 2544 4750 2975 4387 
Q 3406 4025 3406 3419 
Q 3406 3131 3298 2873 
Q 3191 2616 2906 2266 
Q 2828 2175 2409 1742 
Q 1991 1309 1228 531 
z
" transform="scale(0.015625)"/>
       </defs>
       <use xlink:href="#DejaVuSans-32"/>
       <use xlink:href="#DejaVuSans-30" x="63.623047"/>
       <use xlink:href="#DejaVuSans-30" x="127.246094"/>
       <use xlink:href="#DejaVuSans-30" x="190.869141"/>
      </g>
     </g>
    </g>
    <g id="xtick_3">
     <g id="line2d_5">
      <path d="M 222.496292 242.438125 
L 222.496292 22.318125 
" clip-path="url(#paf8c099b77)" style="fill: none; stroke-dasharray: 2.96,1.28; stroke-dashoffset: 0; stroke: #b0b0b0; stroke-opacity: 0.7; stroke-width: 0.8"/>
     </g>
     <g id="line2d_6">
      <g>
       <use xlink:href="#md6de831b6a" x="222.496292" y="242.438125" style="stroke: #000000; stroke-width: 0.8"/>
      </g>
     </g>
     <g id="text_3">
      <!-- 4000 -->
      <g transform="translate(209.771292 257.036563) scale(0.1 -0.1)">
       <defs>
        <path id="DejaVuSans-34" d="M 2419 4116 
L 825 1625 
L 2419 1625 
L 2419 4116 
z
M 2253 4666 
L 3047 4666 
L 3047 1625 
L 3713 1625 
L 3713 1100 
L 3047 1100 
L 3047 0 
L 2419 0 
L 2419 1100 
L 313 1100 
L 313 1709 
L 2253 4666 
z
" transform="scale(0.015625)"/>
       </defs>
       <use xlink:href="#DejaVuSans-34"/>
       <use xlink:href="#DejaVuSans-30" x="63.623047"/>
       <use xlink:href="#DejaVuSans-30" x="127.246094"/>
       <use xlink:href="#DejaVuSans-30" x="190.869141"/>
      </g>
     </g>
    </g>
    <g id="xtick_4">
     <g id="line2d_7">
      <path d="M 310.261625 242.438125 
L 310.261625 22.318125 
" clip-path="url(#paf8c099b77)" style="fill: none; stroke-dasharray: 2.96,1.28; stroke-dashoffset: 0; stroke: #b0b0b0; stroke-opacity: 0.7; stroke-width: 0.8"/>
     </g>
     <g id="line2d_8">
      <g>
       <use xlink:href="#md6de831b6a" x="310.261625" y="242.438125" style="stroke: #000000; stroke-width: 0.8"/>
      </g>
     </g>
     <g id="text_4">
      <!-- 6000 -->
      <g transform="translate(297.536625 257.036563) scale(0.1 -0.1)">
       <defs>
        <path id="DejaVuSans-36" d="M 2113 2584 
Q 1688 2584 1439 2293 
Q 1191 2003 1191 1497 
Q 1191 994 1439 701 
Q 1688 409 2113 409 
Q 2538 409 2786 701 
Q 3034 994 3034 1497 
Q 3034 2003 2786 2293 
Q 2538 2584 2113 2584 
z
M 3366 4563 
L 3366 3988 
Q 3128 4100 2886 4159 
Q 2644 4219 2406 4219 
Q 1781 4219 1451 3797 
Q 1122 3375 1075 2522 
Q 1259 2794 1537 2939 
Q 1816 3084 2150 3084 
Q 2853 3084 3261 2657 
Q 3669 2231 3669 1497 
Q 3669 778 3244 343 
Q 2819 -91 2113 -91 
Q 1303 -91 875 529 
Q 447 1150 447 2328 
Q 447 3434 972 4092 
Q 1497 4750 2381 4750 
Q 2619 4750 2861 4703 
Q 3103 4656 3366 4563 
z
" transform="scale(0.015625)"/>
       </defs>
       <use xlink:href="#DejaVuSans-36"/>
       <use xlink:href="#DejaVuSans-30" x="63.623047"/>
       <use xlink:href="#DejaVuSans-30" x="127.246094"/>
       <use xlink:href="#DejaVuSans-30" x="190.869141"/>
      </g>
     </g>
    </g>
    <g id="xtick_5">
     <g id="line2d_9">
      <path d="M 398.026958 242.438125 
L 398.026958 22.318125 
" clip-path="url(#paf8c099b77)" style="fill: none; stroke-dasharray: 2.96,1.28; stroke-dashoffset: 0; stroke: #b0b0b0; stroke-opacity: 0.7; stroke-width: 0.8"/>
     </g>
     <g id="line2d_10">
      <g>
       <use xlink:href="#md6de831b6a" x="398.026958" y="242.438125" style="stroke: #000000; stroke-width: 0.8"/>
      </g>
     </g>
     <g id="text_5">
      <!-- 8000 -->
      <g transform="translate(385.301958 257.036563) scale(0.1 -0.1)">
       <defs>
        <path id="DejaVuSans-38" d="M 2034 2216 
Q 1584 2216 1326 1975 
Q 1069 1734 1069 1313 
Q 1069 891 1326 650 
Q 1584 409 2034 409 
Q 2484 409 2743 651 
Q 3003 894 3003 1313 
Q 3003 1734 2745 1975 
Q 2488 2216 2034 2216 
z
M 1403 2484 
Q 997 2584 770 2862 
Q 544 3141 544 3541 
Q 544 4100 942 4425 
Q 1341 4750 2034 4750 
Q 2731 4750 3128 4425 
Q 3525 4100 3525 3541 
Q 3525 3141 3298 2862 
Q 3072 2584 2669 2484 
Q 3125 2378 3379 2068 
Q 3634 1759 3634 1313 
Q 3634 634 3220 271 
Q 2806 -91 2034 -91 
Q 1263 -91 848 271 
Q 434 634 434 1313 
Q 434 1759 690 2068 
Q 947 2378 1403 2484 
z
M 1172 3481 
Q 1172 3119 1398 2916 
Q 1625 2713 2034 2713 
Q 2441 2713 2670 2916 
Q 2900 3119 2900 3481 
Q 2900 3844 2670 4047 
Q 2441 4250 2034 4250 
Q 1625 4250 1398 4047 
Q 1172 3844 1172 3481 
z
" transform="scale(0.015625)"/>
       </defs>
       <use xlink:href="#DejaVuSans-38"/>
       <use xlink:href="#DejaVuSans-30" x="63.623047"/>
       <use xlink:href="#DejaVuSans-30" x="127.246094"/>
       <use xlink:href="#DejaVuSans-30" x="190.869141"/>
      </g>
     </g>
    </g>
    <g id="xtick_6">
     <g id="line2d_11">
      <path d="M 485.792292 242.438125 
L 485.792292 22.318125 
" clip-path="url(#paf8c099b77)" style="fill: none; stroke-dasharray: 2.96,1.28; stroke-dashoffset: 0; stroke: #b0b0b0; stroke-opacity: 0.7; stroke-width: 0.8"/>
     </g>
     <g id="line2d_12">
      <g>
       <use xlink:href="#md6de831b6a" x="485.792292" y="242.438125" style="stroke: #000000; stroke-width: 0.8"/>
      </g>
     </g>
     <g id="text_6">
      <!-- 10000 -->
      <g transform="translate(469.886042 257.036563) scale(0.1 -0.1)">
       <defs>
        <path id="DejaVuSans-31" d="M 794 531 
L 1825 531 
L 1825 4091 
L 703 3866 
L 703 4441 
L 1819 4666 
L 2450 4666 
L 2450 531 
L 3481 531 
L 3481 0 
L 794 0 
L 794 531 
z
" transform="scale(0.015625)"/>
       </defs>
       <use xlink:href="#DejaVuSans-31"/>
       <use xlink:href="#DejaVuSans-30" x="63.623047"/>
       <use xlink:href="#DejaVuSans-30" x="127.246094"/>
       <use xlink:href="#DejaVuSans-30" x="190.869141"/>
       <use xlink:href="#DejaVuSans-30" x="254.492188"/>
      </g>
     </g>
    </g>
    <g id="xtick_7">
     <g id="line2d_13">
      <path d="M 573.557625 242.438125 
L 573.557625 22.318125 
" clip-path="url(#paf8c099b77)" style="fill: none; stroke-dasharray: 2.96,1.28; stroke-dashoffset: 0; stroke: #b0b0b0; stroke-opacity: 0.7; stroke-width: 0.8"/>
     </g>
     <g id="line2d_14">
      <g>
       <use xlink:href="#md6de831b6a" x="573.557625" y="242.438125" style="stroke: #000000; stroke-width: 0.8"/>
      </g>
     </g>
     <g id="text_7">
      <!-- 12000 -->
      <g transform="translate(557.651375 257.036563) scale(0.1 -0.1)">
       <use xlink:href="#DejaVuSans-31"/>
       <use xlink:href="#DejaVuSans-32" x="63.623047"/>
       <use xlink:href="#DejaVuSans-30" x="127.246094"/>
       <use xlink:href="#DejaVuSans-30" x="190.869141"/>
       <use xlink:href="#DejaVuSans-30" x="254.492188"/>
      </g>
     </g>
    </g>
    <g id="xtick_8">
     <g id="line2d_15">
      <path d="M 661.322958 242.438125 
L 661.322958 22.318125 
" clip-path="url(#paf8c099b77)" style="fill: none; stroke-dasharray: 2.96,1.28; stroke-dashoffset: 0; stroke: #b0b0b0; stroke-opacity: 0.7; stroke-width: 0.8"/>
     </g>
     <g id="line2d_16">
      <g>
       <use xlink:href="#md6de831b6a" x="661.322958" y="242.438125" style="stroke: #000000; stroke-width: 0.8"/>
      </g>
     </g>
     <g id="text_8">
      <!-- 14000 -->
      <g transform="translate(645.416708 257.036563) scale(0.1 -0.1)">
       <use xlink:href="#DejaVuSans-31"/>
       <use xlink:href="#DejaVuSans-34" x="63.623047"/>
       <use xlink:href="#DejaVuSans-30" x="127.246094"/>
       <use xlink:href="#DejaVuSans-30" x="190.869141"/>
       <use xlink:href="#DejaVuSans-30" x="254.492188"/>
      </g>
     </g>
    </g>
    <g id="text_9">
     <!-- Position -->
     <g transform="translate(356.621562 270.714687) scale(0.1 -0.1)">
      <defs>
       <path id="DejaVuSans-50" d="M 1259 4147 
L 1259 2394 
L 2053 2394 
Q 2494 2394 2734 2622 
Q 2975 2850 2975 3272 
Q 2975 3691 2734 3919 
Q 2494 4147 2053 4147 
L 1259 4147 
z
M 628 4666 
L 2053 4666 
Q 2838 4666 3239 4311 
Q 3641 3956 3641 3272 
Q 3641 2581 3239 2228 
Q 2838 1875 2053 1875 
L 1259 1875 
L 1259 0 
L 628 0 
L 628 4666 
z
" transform="scale(0.015625)"/>
       <path id="DejaVuSans-6f" d="M 1959 3097 
Q 1497 3097 1228 2736 
Q 959 2375 959 1747 
Q 959 1119 1226 758 
Q 1494 397 1959 397 
Q 2419 397 2687 759 
Q 2956 1122 2956 1747 
Q 2956 2369 2687 2733 
Q 2419 3097 1959 3097 
z
M 1959 3584 
Q 2709 3584 3137 3096 
Q 3566 2609 3566 1747 
Q 3566 888 3137 398 
Q 2709 -91 1959 -91 
Q 1206 -91 779 398 
Q 353 888 353 1747 
Q 353 2609 779 3096 
Q 1206 3584 1959 3584 
z
" transform="scale(0.015625)"/>
       <path id="DejaVuSans-73" d="M 2834 3397 
L 2834 2853 
Q 2591 2978 2328 3040 
Q 2066 3103 1784 3103 
Q 1356 3103 1142 2972 
Q 928 2841 928 2578 
Q 928 2378 1081 2264 
Q 1234 2150 1697 2047 
L 1894 2003 
Q 2506 1872 2764 1633 
Q 3022 1394 3022 966 
Q 3022 478 2636 193 
Q 2250 -91 1575 -91 
Q 1294 -91 989 -36 
Q 684 19 347 128 
L 347 722 
Q 666 556 975 473 
Q 1284 391 1588 391 
Q 1994 391 2212 530 
Q 2431 669 2431 922 
Q 2431 1156 2273 1281 
Q 2116 1406 1581 1522 
L 1381 1569 
Q 847 1681 609 1914 
Q 372 2147 372 2553 
Q 372 3047 722 3315 
Q 1072 3584 1716 3584 
Q 2034 3584 2315 3537 
Q 2597 3491 2834 3397 
z
" transform="scale(0.015625)"/>
       <path id="DejaVuSans-69" d="M 603 3500 
L 1178 3500 
L 1178 0 
L 603 0 
L 603 3500 
z
M 603 4863 
L 1178 4863 
L 1178 4134 
L 603 4134 
L 603 4863 
z
" transform="scale(0.015625)"/>
       <path id="DejaVuSans-74" d="M 1172 4494 
L 1172 3500 
L 2356 3500 
L 2356 3053 
L 1172 3053 
L 1172 1153 
Q 1172 725 1289 603 
Q 1406 481 1766 481 
L 2356 481 
L 2356 0 
L 1766 0 
Q 1100 0 847 248 
Q 594 497 594 1153 
L 594 3053 
L 172 3053 
L 172 3500 
L 594 3500 
L 594 4494 
L 1172 4494 
z
" transform="scale(0.015625)"/>
       <path id="DejaVuSans-6e" d="M 3513 2113 
L 3513 0 
L 2938 0 
L 2938 2094 
Q 2938 2591 2744 2837 
Q 2550 3084 2163 3084 
Q 1697 3084 1428 2787 
Q 1159 2491 1159 1978 
L 1159 0 
L 581 0 
L 581 3500 
L 1159 3500 
L 1159 2956 
Q 1366 3272 1645 3428 
Q 1925 3584 2291 3584 
Q 2894 3584 3203 3211 
Q 3513 2838 3513 2113 
z
" transform="scale(0.015625)"/>
      </defs>
      <use xlink:href="#DejaVuSans-50"/>
      <use xlink:href="#DejaVuSans-6f" x="56.677734"/>
      <use xlink:href="#DejaVuSans-73" x="117.859375"/>
      <use xlink:href="#DejaVuSans-69" x="169.958984"/>
      <use xlink:href="#DejaVuSans-74" x="197.742188"/>
      <use xlink:href="#DejaVuSans-69" x="236.951172"/>
      <use xlink:href="#DejaVuSans-6f" x="264.734375"/>
      <use xlink:href="#DejaVuSans-6e" x="325.916016"/>
     </g>
    </g>
   </g>
   <g id="matplotlib.axis_2">
    <g id="ytick_1">
     <g id="line2d_17">
      <path d="M 46.965625 232.43267 
L 705.205625 232.43267 
" clip-path="url(#paf8c099b77)" style="fill: none; stroke-dasharray: 2.96,1.28; stroke-dashoffset: 0; stroke: #b0b0b0; stroke-opacity: 0.7; stroke-width: 0.8"/>
     </g>
     <g id="line2d_18">
      <defs>
       <path id="mb2b85237ce" d="M 0 0 
L -3.5 0 
" style="stroke: #000000; stroke-width: 0.8"/>
      </defs>
      <g>
       <use xlink:href="#mb2b85237ce" x="46.965625" y="232.43267" style="stroke: #000000; stroke-width: 0.8"/>
      </g>
     </g>
     <g id="text_10">
      <!-- 0 -->
      <g transform="translate(33.603125 236.231889) scale(0.1 -0.1)">
       <use xlink:href="#DejaVuSans-30"/>
      </g>
     </g>
    </g>
    <g id="ytick_2">
     <g id="line2d_19">
      <path d="M 46.965625 190.948621 
L 705.205625 190.948621 
" clip-path="url(#paf8c099b77)" style="fill: none; stroke-dasharray: 2.96,1.28; stroke-dashoffset: 0; stroke: #b0b0b0; stroke-opacity: 0.7; stroke-width: 0.8"/>
     </g>
     <g id="line2d_20">
      <g>
       <use xlink:href="#mb2b85237ce" x="46.965625" y="190.948621" style="stroke: #000000; stroke-width: 0.8"/>
      </g>
     </g>
     <g id="text_11">
      <!-- 20 -->
      <g transform="translate(27.240625 194.74784) scale(0.1 -0.1)">
       <use xlink:href="#DejaVuSans-32"/>
       <use xlink:href="#DejaVuSans-30" x="63.623047"/>
      </g>
     </g>
    </g>
    <g id="ytick_3">
     <g id="line2d_21">
      <path d="M 46.965625 149.464571 
L 705.205625 149.464571 
" clip-path="url(#paf8c099b77)" style="fill: none; stroke-dasharray: 2.96,1.28; stroke-dashoffset: 0; stroke: #b0b0b0; stroke-opacity: 0.7; stroke-width: 0.8"/>
     </g>
     <g id="line2d_22">
      <g>
       <use xlink:href="#mb2b85237ce" x="46.965625" y="149.464571" style="stroke: #000000; stroke-width: 0.8"/>
      </g>
     </g>
     <g id="text_12">
      <!-- 40 -->
      <g transform="translate(27.240625 153.26379) scale(0.1 -0.1)">
       <use xlink:href="#DejaVuSans-34"/>
       <use xlink:href="#DejaVuSans-30" x="63.623047"/>
      </g>
     </g>
    </g>
    <g id="ytick_4">
     <g id="line2d_23">
      <path d="M 46.965625 107.980521 
L 705.205625 107.980521 
" clip-path="url(#paf8c099b77)" style="fill: none; stroke-dasharray: 2.96,1.28; stroke-dashoffset: 0; stroke: #b0b0b0; stroke-opacity: 0.7; stroke-width: 0.8"/>
     </g>
     <g id="line2d_24">
      <g>
       <use xlink:href="#mb2b85237ce" x="46.965625" y="107.980521" style="stroke: #000000; stroke-width: 0.8"/>
      </g>
     </g>
     <g id="text_13">
      <!-- 60 -->
      <g transform="translate(27.240625 111.77974) scale(0.1 -0.1)">
       <use xlink:href="#DejaVuSans-36"/>
       <use xlink:href="#DejaVuSans-30" x="63.623047"/>
      </g>
     </g>
    </g>
    <g id="ytick_5">
     <g id="line2d_25">
      <path d="M 46.965625 66.496472 
L 705.205625 66.496472 
" clip-path="url(#paf8c099b77)" style="fill: none; stroke-dasharray: 2.96,1.28; stroke-dashoffset: 0; stroke: #b0b0b0; stroke-opacity: 0.7; stroke-width: 0.8"/>
     </g>
     <g id="line2d_26">
      <g>
       <use xlink:href="#mb2b85237ce" x="46.965625" y="66.496472" style="stroke: #000000; stroke-width: 0.8"/>
      </g>
     </g>
     <g id="text_14">
      <!-- 80 -->
      <g transform="translate(27.240625 70.29569) scale(0.1 -0.1)">
       <use xlink:href="#DejaVuSans-38"/>
       <use xlink:href="#DejaVuSans-30" x="63.623047"/>
      </g>
     </g>
    </g>
    <g id="ytick_6">
     <g id="line2d_27">
      <path d="M 46.965625 25.012422 
L 705.205625 25.012422 
" clip-path="url(#paf8c099b77)" style="fill: none; stroke-dasharray: 2.96,1.28; stroke-dashoffset: 0; stroke: #b0b0b0; stroke-opacity: 0.7; stroke-width: 0.8"/>
     </g>
     <g id="line2d_28">
      <g>
       <use xlink:href="#mb2b85237ce" x="46.965625" y="25.012422" style="stroke: #000000; stroke-width: 0.8"/>
      </g>
     </g>
     <g id="text_15">
      <!-- 100 -->
      <g transform="translate(20.878125 28.811641) scale(0.1 -0.1)">
       <use xlink:href="#DejaVuSans-31"/>
       <use xlink:href="#DejaVuSans-30" x="63.623047"/>
       <use xlink:href="#DejaVuSans-30" x="127.246094"/>
      </g>
     </g>
    </g>
    <g id="text_16">
     <!-- % Adapters -->
     <g transform="translate(14.798438 161.160156) rotate(-90) scale(0.1 -0.1)">
      <defs>
       <path id="DejaVuSans-25" d="M 4653 2053 
Q 4381 2053 4226 1822 
Q 4072 1591 4072 1178 
Q 4072 772 4226 539 
Q 4381 306 4653 306 
Q 4919 306 5073 539 
Q 5228 772 5228 1178 
Q 5228 1588 5073 1820 
Q 4919 2053 4653 2053 
z
M 4653 2450 
Q 5147 2450 5437 2106 
Q 5728 1763 5728 1178 
Q 5728 594 5436 251 
Q 5144 -91 4653 -91 
Q 4153 -91 3862 251 
Q 3572 594 3572 1178 
Q 3572 1766 3864 2108 
Q 4156 2450 4653 2450 
z
M 1428 4353 
Q 1159 4353 1004 4120 
Q 850 3888 850 3481 
Q 850 3069 1003 2837 
Q 1156 2606 1428 2606 
Q 1700 2606 1854 2837 
Q 2009 3069 2009 3481 
Q 2009 3884 1853 4118 
Q 1697 4353 1428 4353 
z
M 4250 4750 
L 4750 4750 
L 1831 -91 
L 1331 -91 
L 4250 4750 
z
M 1428 4750 
Q 1922 4750 2215 4408 
Q 2509 4066 2509 3481 
Q 2509 2891 2217 2550 
Q 1925 2209 1428 2209 
Q 931 2209 642 2551 
Q 353 2894 353 3481 
Q 353 4063 643 4406 
Q 934 4750 1428 4750 
z
" transform="scale(0.015625)"/>
       <path id="DejaVuSans-20" transform="scale(0.015625)"/>
       <path id="DejaVuSans-41" d="M 2188 4044 
L 1331 1722 
L 3047 1722 
L 2188 4044 
z
M 1831 4666 
L 2547 4666 
L 4325 0 
L 3669 0 
L 3244 1197 
L 1141 1197 
L 716 0 
L 50 0 
L 1831 4666 
z
" transform="scale(0.015625)"/>
       <path id="DejaVuSans-64" d="M 2906 2969 
L 2906 4863 
L 3481 4863 
L 3481 0 
L 2906 0 
L 2906 525 
Q 2725 213 2448 61 
Q 2172 -91 1784 -91 
Q 1150 -91 751 415 
Q 353 922 353 1747 
Q 353 2572 751 3078 
Q 1150 3584 1784 3584 
Q 2172 3584 2448 3432 
Q 2725 3281 2906 2969 
z
M 947 1747 
Q 947 1113 1208 752 
Q 1469 391 1925 391 
Q 2381 391 2643 752 
Q 2906 1113 2906 1747 
Q 2906 2381 2643 2742 
Q 2381 3103 1925 3103 
Q 1469 3103 1208 2742 
Q 947 2381 947 1747 
z
" transform="scale(0.015625)"/>
       <path id="DejaVuSans-61" d="M 2194 1759 
Q 1497 1759 1228 1600 
Q 959 1441 959 1056 
Q 959 750 1161 570 
Q 1363 391 1709 391 
Q 2188 391 2477 730 
Q 2766 1069 2766 1631 
L 2766 1759 
L 2194 1759 
z
M 3341 1997 
L 3341 0 
L 2766 0 
L 2766 531 
Q 2569 213 2275 61 
Q 1981 -91 1556 -91 
Q 1019 -91 701 211 
Q 384 513 384 1019 
Q 384 1609 779 1909 
Q 1175 2209 1959 2209 
L 2766 2209 
L 2766 2266 
Q 2766 2663 2505 2880 
Q 2244 3097 1772 3097 
Q 1472 3097 1187 3025 
Q 903 2953 641 2809 
L 641 3341 
Q 956 3463 1253 3523 
Q 1550 3584 1831 3584 
Q 2591 3584 2966 3190 
Q 3341 2797 3341 1997 
z
" transform="scale(0.015625)"/>
       <path id="DejaVuSans-70" d="M 1159 525 
L 1159 -1331 
L 581 -1331 
L 581 3500 
L 1159 3500 
L 1159 2969 
Q 1341 3281 1617 3432 
Q 1894 3584 2278 3584 
Q 2916 3584 3314 3078 
Q 3713 2572 3713 1747 
Q 3713 922 3314 415 
Q 2916 -91 2278 -91 
Q 1894 -91 1617 61 
Q 1341 213 1159 525 
z
M 3116 1747 
Q 3116 2381 2855 2742 
Q 2594 3103 2138 3103 
Q 1681 3103 1420 2742 
Q 1159 2381 1159 1747 
Q 1159 1113 1420 752 
Q 1681 391 2138 391 
Q 2594 391 2855 752 
Q 3116 1113 3116 1747 
z
" transform="scale(0.015625)"/>
       <path id="DejaVuSans-65" d="M 3597 1894 
L 3597 1613 
L 953 1613 
Q 991 1019 1311 708 
Q 1631 397 2203 397 
Q 2534 397 2845 478 
Q 3156 559 3463 722 
L 3463 178 
Q 3153 47 2828 -22 
Q 2503 -91 2169 -91 
Q 1331 -91 842 396 
Q 353 884 353 1716 
Q 353 2575 817 3079 
Q 1281 3584 2069 3584 
Q 2775 3584 3186 3129 
Q 3597 2675 3597 1894 
z
M 3022 2063 
Q 3016 2534 2758 2815 
Q 2500 3097 2075 3097 
Q 1594 3097 1305 2825 
Q 1016 2553 972 2059 
L 3022 2063 
z
" transform="scale(0.015625)"/>
       <path id="DejaVuSans-72" d="M 2631 2963 
Q 2534 3019 2420 3045 
Q 2306 3072 2169 3072 
Q 1681 3072 1420 2755 
Q 1159 2438 1159 1844 
L 1159 0 
L 581 0 
L 581 3500 
L 1159 3500 
L 1159 2956 
Q 1341 3275 1631 3429 
Q 1922 3584 2338 3584 
Q 2397 3584 2469 3576 
Q 2541 3569 2628 3553 
L 2631 2963 
z
" transform="scale(0.015625)"/>
      </defs>
      <use xlink:href="#DejaVuSans-25"/>
      <use xlink:href="#DejaVuSans-20" x="95.019531"/>
      <use xlink:href="#DejaVuSans-41" x="126.806641"/>
      <use xlink:href="#DejaVuSans-64" x="193.464844"/>
      <use xlink:href="#DejaVuSans-61" x="256.941406"/>
      <use xlink:href="#DejaVuSans-70" x="318.220703"/>
      <use xlink:href="#DejaVuSans-74" x="381.697266"/>
      <use xlink:href="#DejaVuSans-65" x="420.90625"/>
      <use xlink:href="#DejaVuSans-72" x="482.429688"/>
      <use xlink:href="#DejaVuSans-73" x="523.542969"/>
     </g>
    </g>
   </g>
   <g id="line2d_29">
    <path d="M 47.009508 114.162013 
L 47.05339 111.695088 
L 47.097273 102.025873 
L 47.141156 96.581623 
L 47.185038 91.392573 
L 47.228921 89.152491 
L 47.272804 87.763073 
L 47.316686 86.884053 
L 47.360569 86.288588 
L 58.111822 79.261583 
L 79.833742 77.71571 
L 101.775076 77.449055 
L 123.716409 77.36671 
L 145.657742 77.246937 
L 167.599076 77.200831 
L 189.540409 77.100339 
L 211.481742 76.975745 
L 233.423076 76.957995 
L 255.364409 76.893911 
L 277.305742 76.823987 
L 299.247076 76.817862 
L 321.188409 76.817862 
L 343.129742 76.817862 
L 365.071076 76.817862 
L 387.012409 76.817862 
L 408.953742 76.817862 
L 430.895076 76.817862 
L 452.836409 76.817862 
L 474.777742 76.817862 
L 496.719076 76.817862 
L 518.660409 76.817862 
L 540.601742 76.817862 
L 562.543076 76.817862 
L 584.484409 76.817862 
L 606.425742 76.817862 
L 628.367076 76.817862 
L 650.308409 76.817862 
L 672.249742 76.817862 
L 694.191076 76.817862 
L 713.405625 76.817862 
" clip-path="url(#paf8c099b77)" style="fill: none; stroke: #1f77b4; stroke-width: 1.5; stroke-linecap: square"/>
   </g>
   <g id="line2d_30">
    <path d="M 47.009508 111.387238 
L 47.05339 107.574568 
L 47.097273 98.468046 
L 47.141156 92.54332 
L 47.185038 87.55119 
L 47.228921 85.055125 
L 47.272804 83.793378 
L 47.316686 82.9705 
L 47.360569 82.175051 
L 51.529422 75.960441 
L 60.086542 74.489639 
L 68.863076 73.78841 
L 77.639609 73.475442 
L 86.416142 73.350638 
L 95.192676 73.288237 
L 103.969209 73.270682 
L 112.745742 73.260533 
L 121.522276 73.260533 
L 130.298809 73.245036 
L 139.075342 73.20252 
L 147.851876 73.178245 
L 156.628409 73.157673 
L 165.404942 73.150816 
L 174.181476 73.150816 
L 182.958009 73.135044 
L 191.734542 73.083477 
L 200.511076 73.068528 
L 209.287609 73.068528 
L 218.064142 73.068528 
L 226.840676 73.048505 
L 235.617209 73.041099 
L 244.393742 73.041099 
L 253.170276 73.041099 
L 261.946809 73.041099 
L 270.723342 73.021213 
L 279.499876 73.01367 
L 288.276409 73.01367 
L 297.052942 73.01367 
L 305.829476 73.01367 
L 314.606009 73.01367 
L 323.382542 73.01367 
L 332.159076 73.01367 
L 340.935609 73.01367 
L 349.712142 73.01367 
L 358.488676 73.01367 
L 365.860964 73.01367 
" clip-path="url(#paf8c099b77)" style="fill: none; stroke: #1f77b4; stroke-width: 1.5; stroke-linecap: square"/>
   </g>
   <g id="line2d_31">
    <path d="M 47.009508 114.689163 
L 47.05339 111.328619 
L 47.097273 101.091406 
L 47.141156 95.801661 
L 47.185038 90.885309 
L 47.228921 88.61383 
L 47.272804 87.24472 
L 47.316686 86.466816 
L 47.360569 86.155655 
L 51.529422 79.438661 
L 60.086542 77.920455 
L 68.863076 77.282262 
L 77.639609 76.889421 
L 86.416142 76.742242 
L 95.192676 76.677987 
L 103.969209 76.630535 
L 112.745742 76.602997 
L 121.522276 76.602997 
L 130.298809 76.57577 
L 139.075342 76.4846 
L 147.851876 76.478532 
L 156.628409 76.478065 
L 165.404942 76.417389 
L 174.181476 76.398253 
L 182.958009 76.380361 
L 191.734542 76.354068 
L 200.511076 76.354068 
L 209.287609 76.323418 
L 218.064142 76.291835 
L 226.840676 76.291835 
L 235.617209 76.266631 
L 244.393742 76.260719 
L 253.170276 76.260719 
L 261.946809 76.260719 
L 270.723342 76.260719 
L 279.499876 76.260719 
L 288.276409 76.260719 
L 297.052942 76.260719 
L 305.829476 76.260719 
L 314.606009 76.247806 
L 323.382542 76.229603 
L 332.159076 76.222757 
L 340.935609 76.198487 
L 349.712142 76.198487 
L 358.488676 76.198487 
L 367.265209 76.198487 
L 372.136185 76.198487 
" clip-path="url(#paf8c099b77)" style="fill: none; stroke: #1f77b4; stroke-width: 1.5; stroke-linecap: square"/>
   </g>
   <g id="line2d_32">
    <path d="M 47.009508 111.084175 
L 47.05339 108.505083 
L 47.097273 98.407279 
L 47.141156 93.030527 
L 47.185038 88.61547 
L 47.228921 86.08009 
L 47.272804 85.336962 
L 47.316686 84.331553 
L 47.360569 83.457284 
L 51.529422 76.814913 
L 60.086542 75.814209 
L 68.863076 75.466906 
L 77.639609 75.183861 
L 86.416142 74.983216 
L 95.192676 74.873496 
L 103.969209 74.807707 
L 112.745742 74.802024 
L 121.522276 74.7782 
L 130.298809 74.758311 
L 139.075342 74.725744 
L 147.851876 74.652306 
L 156.628409 74.627171 
L 165.404942 74.589577 
L 174.181476 74.583457 
L 182.958009 74.583457 
L 191.734542 74.583457 
L 200.511076 74.564442 
L 209.287609 74.537121 
L 218.064142 74.49603 
L 226.840676 74.49603 
L 235.617209 74.49603 
L 244.393742 74.49603 
L 253.170276 74.49603 
L 261.946809 74.49603 
L 270.723342 74.464557 
L 279.499876 74.452317 
L 288.276409 74.452317 
L 297.052942 74.452317 
L 305.829476 74.452317 
L 314.606009 74.452317 
L 323.382542 74.452317 
L 332.159076 74.452317 
L 340.935609 74.452317 
L 349.712142 74.452317 
L 358.488676 74.452317 
L 367.265209 74.452317 
L 376.041742 74.452317 
L 384.818276 74.452317 
L 393.594809 74.452317 
L 402.371342 74.452317 
L 411.147876 74.452317 
L 419.924409 74.452317 
L 428.700942 74.452317 
L 437.477476 74.452317 
L 446.254009 74.452317 
L 455.030542 74.452317 
L 463.807076 74.452317 
L 472.583609 74.452317 
L 481.360142 74.452317 
L 490.136676 74.452317 
L 498.913209 74.452317 
L 507.689742 74.452317 
L 516.466276 74.452317 
L 525.242809 74.452317 
L 534.019342 74.452317 
L 542.795876 74.452317 
L 551.572409 74.452317 
L 558.418105 74.452317 
" clip-path="url(#paf8c099b77)" style="fill: none; stroke: #1f77b4; stroke-width: 1.5; stroke-linecap: square"/>
   </g>
   <g id="line2d_33">
    <path d="M 47.009508 127.062485 
L 47.05339 123.130762 
L 47.097273 100.545196 
L 47.141156 95.39027 
L 47.185038 89.055826 
L 47.228921 86.522049 
L 47.272804 84.599873 
L 47.316686 83.201927 
L 47.360569 82.328211 
L 49.335289 75.590887 
L 53.504142 72.636076 
L 57.892409 71.954577 
L 62.280676 71.208424 
L 66.668942 70.083951 
L 71.057209 68.623534 
L 75.445476 67.764234 
L 79.833742 67.123363 
L 84.222009 66.60787 
L 88.610276 66.316923 
L 92.998542 66.041265 
L 97.386809 65.969184 
L 101.775076 65.877007 
L 106.163342 65.72498 
L 110.551609 65.61926 
L 114.939876 65.596544 
L 119.328142 65.558537 
L 123.716409 65.552858 
L 128.104676 65.552858 
L 132.492942 65.552858 
L 136.881209 65.552858 
L 141.269476 65.528394 
L 145.657742 65.509172 
L 150.046009 65.509172 
L 154.434276 65.509172 
L 158.822542 65.509172 
L 163.210809 65.509172 
L 167.599076 65.509172 
L 171.987342 65.509172 
L 176.375609 65.509172 
L 180.763876 65.509172 
L 185.152142 65.509172 
L 189.540409 65.509172 
L 193.928676 65.47335 
L 198.316942 65.465486 
L 202.705209 65.465486 
L 207.093476 65.465486 
L 211.481742 65.410442 
L 215.870009 65.378115 
L 220.258276 65.378115 
L 224.646542 65.338798 
L 229.034809 65.334429 
L 233.423076 65.334429 
L 237.811342 65.334429 
L 242.199609 65.334429 
L 246.587876 65.334429 
L 250.976142 65.334429 
L 255.364409 65.334429 
L 259.752676 65.334429 
L 264.140942 65.334429 
L 268.529209 65.334429 
L 272.917476 65.334429 
L 277.305742 65.334429 
L 281.694009 65.334429 
L 286.082276 65.334429 
L 290.470542 65.334429 
L 294.858809 65.334429 
L 299.247076 65.334429 
L 303.635342 65.334429 
L 308.023609 65.334429 
L 312.411876 65.334429 
L 316.800142 65.334429 
L 319.038158 65.334429 
" clip-path="url(#paf8c099b77)" style="fill: none; stroke: #1f77b4; stroke-width: 1.5; stroke-linecap: square"/>
   </g>
   <g id="line2d_34">
    <path d="M 47.009508 126.945649 
L 47.05339 123.045143 
L 47.097273 97.561836 
L 47.141156 91.797755 
L 47.185038 85.946996 
L 47.228921 83.086624 
L 47.272804 81.656439 
L 47.316686 80.312931 
L 47.360569 79.402813 
L 156.847822 63.702559 
L 376.041742 62.803993 
L 595.455076 62.803993 
L 713.405625 62.803993 
" clip-path="url(#paf8c099b77)" style="fill: none; stroke: #1f77b4; stroke-width: 1.5; stroke-linecap: square"/>
   </g>
   <g id="line2d_35">
    <path d="M 47.009508 129.231285 
L 47.05339 125.064469 
L 47.097273 99.046092 
L 47.141156 92.941221 
L 47.185038 87.223961 
L 47.228921 84.849845 
L 47.272804 83.008693 
L 47.316686 82.18502 
L 47.360569 81.700507 
L 58.111822 71.727339 
L 79.833742 67.654362 
L 101.775076 66.342493 
L 123.716409 65.883853 
L 145.657742 65.761562 
L 167.599076 65.760011 
L 189.540409 65.742569 
L 211.481742 65.71156 
L 233.423076 65.671733 
L 255.364409 65.663108 
L 277.305742 65.663108 
L 299.247076 65.663108 
L 321.188409 65.663108 
L 343.129742 65.663108 
L 365.071076 65.663108 
L 387.012409 65.663108 
L 408.953742 65.663108 
L 430.895076 65.663108 
L 452.836409 65.663108 
L 474.777742 65.663108 
L 496.719076 65.663108 
L 518.660409 65.663108 
L 540.601742 65.663108 
L 562.543076 65.663108 
L 584.484409 65.663108 
L 606.425742 65.663108 
L 628.367076 65.663108 
L 650.308409 65.663108 
L 672.249742 65.663108 
L 694.191076 65.663108 
L 713.405625 65.663108 
" clip-path="url(#paf8c099b77)" style="fill: none; stroke: #1f77b4; stroke-width: 1.5; stroke-linecap: square"/>
   </g>
   <g id="line2d_36">
    <path d="M 47.009508 133.552344 
L 47.05339 129.636292 
L 47.097273 102.419727 
L 47.141156 96.088775 
L 47.185038 89.105148 
L 47.228921 87.603995 
L 47.272804 86.429179 
L 47.316686 84.928026 
L 47.360569 84.01428 
L 51.529422 75.11007 
L 60.086542 72.707331 
L 68.863076 70.027119 
L 77.639609 67.653665 
L 86.416142 66.761784 
L 95.192676 66.444258 
L 103.969209 66.25955 
L 112.745742 66.139132 
L 121.522276 65.939413 
L 130.298809 65.885567 
L 139.075342 65.818995 
L 147.851876 65.703797 
L 156.628409 65.674101 
L 165.404942 65.674101 
L 174.181476 65.674101 
L 182.958009 65.674101 
L 191.734542 65.645057 
L 200.511076 65.608833 
L 209.287609 65.608833 
L 218.064142 65.608833 
L 226.840676 65.481888 
L 235.617209 65.478298 
L 244.393742 65.478298 
L 253.170276 65.478298 
L 261.946809 65.478298 
L 270.723342 65.478298 
L 279.499876 65.478298 
L 288.276409 65.478298 
L 297.052942 65.478298 
L 305.829476 65.478298 
L 314.606009 65.478298 
L 323.382542 65.478298 
L 332.159076 65.478298 
L 340.935609 65.478298 
L 349.712142 65.478298 
L 358.488676 65.478298 
L 367.265209 65.478298 
L 376.041742 65.478298 
L 384.818276 65.478298 
L 393.594809 65.478298 
L 402.371342 65.478298 
L 411.147876 65.478298 
L 419.924409 65.478298 
L 428.700942 65.478298 
L 437.477476 65.478298 
L 446.254009 65.478298 
L 455.030542 65.478298 
L 463.807076 65.478298 
L 472.583609 65.478298 
L 481.360142 65.478298 
L 490.136676 65.478298 
L 498.913209 65.478298 
L 503.520889 65.478298 
" clip-path="url(#paf8c099b77)" style="fill: none; stroke: #1f77b4; stroke-width: 1.5; stroke-linecap: square"/>
   </g>
   <g id="line2d_37">
    <path d="M 47.009508 232.37596 
L 47.05339 232.37596 
L 47.097273 232.37596 
L 47.141156 232.37596 
L 47.185038 232.37596 
L 47.228921 232.37596 
L 47.272804 232.37596 
L 47.316686 232.37596 
L 47.360569 232.37596 
L 58.111822 232.281229 
L 79.833742 232.234182 
L 101.775076 232.234182 
L 123.716409 232.234182 
L 145.657742 232.234182 
L 167.599076 232.233842 
L 189.540409 232.205827 
L 211.481742 232.205827 
L 233.423076 232.205827 
L 255.364409 232.205827 
L 277.305742 232.205827 
L 299.247076 232.15439 
L 321.188409 232.149116 
L 343.129742 232.149116 
L 365.071076 232.149116 
L 387.012409 232.149116 
L 408.953742 232.149116 
L 430.895076 232.149116 
L 452.836409 232.149116 
L 474.777742 232.149116 
L 496.719076 232.149116 
L 518.660409 232.149116 
L 540.601742 232.149116 
L 562.543076 232.149116 
L 584.484409 232.149116 
L 606.425742 232.149116 
L 628.367076 232.149116 
L 650.308409 232.149116 
L 672.249742 232.149116 
L 694.191076 232.149116 
L 713.405625 232.149116 
" clip-path="url(#paf8c099b77)" style="fill: none; stroke-dasharray: 6,2.25; stroke-dashoffset: 0; stroke: #1f77b4; stroke-width: 1.5"/>
   </g>
   <g id="line2d_38">
    <path d="M 47.009508 232.43267 
L 47.05339 232.43267 
L 47.097273 232.43267 
L 47.141156 232.43267 
L 47.185038 232.43267 
L 47.228921 232.43267 
L 47.272804 232.43267 
L 47.316686 232.43267 
L 47.360569 232.43267 
L 156.847822 232.215524 
L 376.041742 232.172628 
L 595.455076 232.129298 
L 713.405625 232.129298 
" clip-path="url(#paf8c099b77)" style="fill: none; stroke-dasharray: 6,2.25; stroke-dashoffset: 0; stroke: #1f77b4; stroke-width: 1.5"/>
   </g>
   <g id="line2d_39">
    <path d="M 47.009508 232.384219 
L 47.05339 232.384219 
L 47.097273 232.384219 
L 47.141156 232.384219 
L 47.185038 232.384219 
L 47.228921 232.384219 
L 47.272804 232.384219 
L 47.316686 232.384219 
L 47.360569 232.384219 
L 58.111822 232.294634 
L 79.833742 232.287316 
L 101.775076 232.287316 
L 123.716409 232.261831 
L 145.657742 232.190414 
L 167.599076 232.190414 
L 189.540409 232.190414 
L 211.481742 232.190414 
L 233.423076 232.190414 
L 255.364409 232.190414 
L 277.305742 232.190414 
L 299.247076 232.190414 
L 321.188409 232.190414 
L 343.129742 232.190414 
L 365.071076 232.190414 
L 387.012409 232.190414 
L 408.953742 232.190414 
L 430.895076 232.190414 
L 452.836409 232.190414 
L 474.777742 232.190414 
L 496.719076 232.190414 
L 518.660409 232.190414 
L 540.601742 232.190414 
L 562.543076 232.190414 
L 584.484409 232.190414 
L 606.425742 232.190414 
L 628.367076 232.190414 
L 650.308409 232.190414 
L 672.249742 232.190414 
L 694.191076 232.190414 
L 713.405625 232.190414 
" clip-path="url(#paf8c099b77)" style="fill: none; stroke-dasharray: 6,2.25; stroke-dashoffset: 0; stroke: #1f77b4; stroke-width: 1.5"/>
   </g>
   <g id="line2d_40">
    <path d="M 47.009508 232.367403 
L 47.05339 232.367403 
L 47.097273 232.367403 
L 47.141156 232.367403 
L 47.185038 232.367403 
L 47.228921 232.367403 
L 47.272804 232.367403 
L 47.316686 232.367403 
L 47.360569 232.367403 
L 51.529422 232.310723 
L 60.086542 232.302135 
L 68.863076 232.209129 
L 77.639609 232.1716 
L 86.416142 232.1716 
L 95.192676 232.1716 
L 103.969209 232.1716 
L 112.745742 232.1716 
L 121.522276 232.1716 
L 130.298809 232.1716 
L 139.075342 232.1716 
L 147.851876 232.1716 
L 156.628409 232.1716 
L 165.404942 232.1716 
L 174.181476 232.1716 
L 182.958009 232.1716 
L 191.734542 232.1716 
L 200.511076 232.1716 
L 209.287609 232.1716 
L 218.064142 232.1716 
L 226.840676 232.1716 
L 235.617209 232.1716 
L 244.393742 232.1716 
L 253.170276 232.1716 
L 261.946809 232.1716 
L 270.723342 232.1716 
L 279.499876 232.1716 
L 288.276409 232.1716 
L 297.052942 232.1716 
L 305.829476 232.1716 
L 314.606009 232.1716 
L 323.382542 232.1716 
L 332.159076 232.1716 
L 340.935609 232.1716 
L 349.712142 232.1716 
L 358.488676 232.1716 
L 367.265209 232.1716 
L 376.041742 232.1716 
L 384.818276 232.1716 
L 393.594809 232.1716 
L 402.371342 232.1716 
L 411.147876 232.1716 
L 419.924409 232.1716 
L 428.700942 232.1716 
L 437.477476 232.1716 
L 446.254009 232.1716 
L 455.030542 232.1716 
L 463.807076 232.1716 
L 472.583609 232.1716 
L 481.360142 232.1716 
L 490.136676 232.1716 
L 498.913209 232.1716 
L 503.520889 232.1716 
" clip-path="url(#paf8c099b77)" style="fill: none; stroke-dasharray: 6,2.25; stroke-dashoffset: 0; stroke: #1f77b4; stroke-width: 1.5"/>
   </g>
   <g id="line2d_41">
    <path d="M 47.009508 90.535519 
L 47.05339 87.435245 
L 47.097273 75.213011 
L 47.141156 67.343085 
L 47.185038 61.142537 
L 47.228921 58.757711 
L 47.272804 56.969091 
L 47.316686 55.776678 
L 47.360569 55.061231 
L 51.529422 48.77439 
L 60.086542 47.425017 
L 68.863076 46.169705 
L 77.639609 45.504934 
L 86.416142 45.084907 
L 95.192676 44.904853 
L 103.969209 44.866099 
L 112.745742 44.866099 
L 121.522276 44.709595 
L 130.298809 44.628511 
L 139.075342 44.52179 
L 147.851876 44.425204 
L 156.628409 44.389134 
L 165.404942 44.375123 
L 174.181476 44.329513 
L 182.958009 44.275258 
L 191.734542 44.121735 
L 200.511076 44.064798 
L 209.287609 44.017399 
L 218.064142 43.971789 
L 226.840676 43.971789 
L 235.617209 43.971789 
L 244.393742 43.933334 
L 253.170276 43.912169 
L 261.946809 43.860895 
L 270.723342 43.765502 
L 279.499876 43.733307 
L 288.276409 43.733307 
L 297.052942 43.733307 
L 305.829476 43.733307 
L 314.606009 43.733307 
L 323.382542 43.733307 
L 332.159076 43.733307 
L 340.935609 43.733307 
L 349.712142 43.733307 
L 358.488676 43.733307 
L 367.265209 43.733307 
L 376.041742 43.733307 
L 384.818276 43.733307 
L 393.594809 43.733307 
L 402.371342 43.733307 
L 411.147876 43.733307 
L 419.924409 43.733307 
L 428.700942 43.733307 
L 437.477476 43.733307 
L 446.254009 43.733307 
L 455.030542 43.733307 
L 463.807076 43.733307 
L 472.583609 43.733307 
L 481.360142 43.733307 
L 490.136676 43.733307 
L 498.913209 43.733307 
L 507.689742 43.733307 
L 515.237561 43.733307 
" clip-path="url(#paf8c099b77)" style="fill: none; stroke: #ff7f0e; stroke-width: 1.5; stroke-linecap: square"/>
   </g>
   <g id="line2d_42">
    <path d="M 47.009508 84.038045 
L 47.05339 79.220757 
L 47.097273 68.423387 
L 47.141156 61.114398 
L 47.185038 55.023574 
L 47.228921 51.756677 
L 47.272804 50.261657 
L 47.316686 49.43109 
L 47.360569 48.434409 
L 51.529422 42.071684 
L 60.086542 40.663072 
L 68.863076 39.385383 
L 77.639609 38.790697 
L 86.416142 38.593852 
L 95.192676 38.46816 
L 103.969209 38.432722 
L 112.745742 38.412235 
L 121.522276 38.412235 
L 130.298809 38.403929 
L 139.075342 38.350496 
L 147.851876 38.301493 
L 156.628409 38.259965 
L 165.404942 38.246122 
L 174.181476 38.246122 
L 182.958009 38.214283 
L 191.734542 38.110186 
L 200.511076 38.080008 
L 209.287609 38.080008 
L 218.064142 38.080008 
L 226.840676 38.039587 
L 235.617209 38.024637 
L 244.393742 38.024637 
L 253.170276 38.024637 
L 261.946809 38.024637 
L 270.723342 37.984493 
L 279.499876 37.969266 
L 288.276409 37.969266 
L 297.052942 37.969266 
L 305.829476 37.969266 
L 314.606009 37.969266 
L 323.382542 37.969266 
L 332.159076 37.969266 
L 340.935609 37.969266 
L 349.712142 37.969266 
L 358.488676 37.969266 
L 365.860964 37.969266 
" clip-path="url(#paf8c099b77)" style="fill: none; stroke: #ff7f0e; stroke-width: 1.5; stroke-linecap: square"/>
   </g>
   <g id="line2d_43">
    <path d="M 47.009508 88.926801 
L 47.05339 84.907029 
L 47.097273 72.445735 
L 47.141156 65.411133 
L 47.185038 58.845505 
L 47.228921 56.63463 
L 47.272804 54.758737 
L 47.316686 54.088775 
L 47.360569 53.82079 
L 51.529422 46.022784 
L 60.086542 44.435962 
L 68.863076 43.282622 
L 77.639609 42.503121 
L 86.416142 42.26227 
L 95.192676 42.16345 
L 103.969209 42.155746 
L 112.745742 42.096454 
L 121.522276 42.096454 
L 130.298809 42.08607 
L 139.075342 41.975526 
L 147.851876 41.962462 
L 156.628409 41.961457 
L 165.404942 41.830814 
L 174.181476 41.828469 
L 182.958009 41.818085 
L 191.734542 41.761473 
L 200.511076 41.761473 
L 209.287609 41.695482 
L 218.064142 41.627481 
L 226.840676 41.627481 
L 235.617209 41.573214 
L 244.393742 41.560484 
L 253.170276 41.560484 
L 261.946809 41.560484 
L 270.723342 41.560484 
L 279.499876 41.560484 
L 288.276409 41.560484 
L 297.052942 41.560484 
L 305.829476 41.560484 
L 314.606009 41.532681 
L 323.382542 41.493488 
L 332.159076 41.478749 
L 340.935609 41.426492 
L 349.712142 41.426492 
L 358.488676 41.426492 
L 363.930126 41.426492 
" clip-path="url(#paf8c099b77)" style="fill: none; stroke: #ff7f0e; stroke-width: 1.5; stroke-linecap: square"/>
   </g>
   <g id="line2d_44">
    <path d="M 47.009508 84.776055 
L 47.05339 81.990081 
L 47.097273 69.138653 
L 47.141156 63.207225 
L 47.185038 57.725147 
L 47.228921 53.860732 
L 47.272804 52.69242 
L 47.316686 51.793719 
L 47.360569 50.535537 
L 51.529422 43.860552 
L 60.086542 43.048008 
L 68.863076 42.466099 
L 77.639609 41.88419 
L 86.416142 41.589416 
L 95.192676 41.425852 
L 103.969209 41.290598 
L 112.745742 41.278915 
L 121.522276 41.229935 
L 130.298809 41.189044 
L 139.075342 41.122091 
L 147.851876 40.971109 
L 156.628409 40.919434 
L 165.404942 40.842146 
L 174.181476 40.829564 
L 182.958009 40.829564 
L 191.734542 40.829564 
L 200.511076 40.79047 
L 209.287609 40.734302 
L 218.064142 40.649824 
L 226.840676 40.649824 
L 235.617209 40.649824 
L 244.393742 40.649824 
L 253.170276 40.649824 
L 261.946809 40.649824 
L 270.723342 40.585117 
L 279.499876 40.559954 
L 288.276409 40.559954 
L 297.052942 40.559954 
L 305.829476 40.559954 
L 314.606009 40.559954 
L 323.382542 40.559954 
L 332.159076 40.559954 
L 340.935609 40.559954 
L 349.712142 40.559954 
L 358.488676 40.559954 
L 367.265209 40.559954 
L 376.041742 40.559954 
L 384.818276 40.559954 
L 393.594809 40.559954 
L 402.371342 40.559954 
L 411.147876 40.559954 
L 419.924409 40.559954 
L 428.700942 40.559954 
L 437.477476 40.559954 
L 446.254009 40.559954 
L 455.030542 40.559954 
L 463.807076 40.559954 
L 472.583609 40.559954 
L 481.360142 40.559954 
L 490.136676 40.559954 
L 498.913209 40.559954 
L 507.689742 40.559954 
L 516.466276 40.559954 
L 525.242809 40.559954 
L 534.019342 40.559954 
L 542.795876 40.559954 
L 551.572409 40.559954 
L 558.418105 40.559954 
" clip-path="url(#paf8c099b77)" style="fill: none; stroke: #ff7f0e; stroke-width: 1.5; stroke-linecap: square"/>
   </g>
   <g id="line2d_45">
    <path d="M 47.009508 109.265091 
L 47.05339 104.731315 
L 47.097273 79.701094 
L 47.141156 72.994884 
L 47.185038 66.005313 
L 47.228921 63.266156 
L 47.272804 61.188176 
L 47.316686 60.054732 
L 47.360569 59.110195 
L 49.335289 51.652553 
L 53.504142 48.479435 
L 57.892409 47.405497 
L 62.280676 46.122816 
L 66.668942 44.009888 
L 71.057209 41.298123 
L 75.445476 39.89832 
L 79.833742 38.748818 
L 84.222009 37.683381 
L 88.610276 37.12516 
L 92.998542 36.552771 
L 97.386809 36.396922 
L 101.775076 36.197625 
L 106.163342 35.868926 
L 110.551609 35.640348 
L 114.939876 35.591232 
L 119.328142 35.509058 
L 123.716409 35.496779 
L 128.104676 35.496779 
L 132.492942 35.496779 
L 136.881209 35.496779 
L 141.269476 35.496779 
L 145.657742 35.496779 
L 150.046009 35.496779 
L 154.434276 35.496779 
L 158.822542 35.496779 
L 163.210809 35.496779 
L 167.599076 35.496779 
L 171.987342 35.496779 
L 176.375609 35.496779 
L 180.763876 35.496779 
L 185.152142 35.496779 
L 189.540409 35.496779 
L 193.928676 35.419327 
L 198.316942 35.402325 
L 202.705209 35.402325 
L 207.093476 35.402325 
L 211.481742 35.402325 
L 215.870009 35.402325 
L 220.258276 35.402325 
L 224.646542 35.317317 
L 229.034809 35.307871 
L 233.423076 35.307871 
L 237.811342 35.307871 
L 242.199609 35.307871 
L 246.587876 35.307871 
L 250.976142 35.307871 
L 255.364409 35.307871 
L 259.752676 35.307871 
L 264.140942 35.307871 
L 268.529209 35.307871 
L 272.917476 35.307871 
L 277.305742 35.307871 
L 281.694009 35.307871 
L 286.082276 35.307871 
L 290.470542 35.307871 
L 294.858809 35.307871 
L 299.247076 35.307871 
L 303.635342 35.307871 
L 308.023609 35.307871 
L 312.411876 35.307871 
L 316.800142 35.307871 
L 319.038158 35.307871 
" clip-path="url(#paf8c099b77)" style="fill: none; stroke: #ff7f0e; stroke-width: 1.5; stroke-linecap: square"/>
   </g>
   <g id="line2d_46">
    <path d="M 47.009508 111.101686 
L 47.05339 106.900118 
L 47.097273 78.689593 
L 47.141156 71.915636 
L 47.185038 65.055934 
L 47.228921 62.054814 
L 47.272804 60.339889 
L 47.316686 58.796456 
L 47.360569 57.7675 
L 156.847822 35.873297 
L 376.041742 34.358766 
L 595.455076 34.358766 
L 713.405625 34.358766 
" clip-path="url(#paf8c099b77)" style="fill: none; stroke: #ff7f0e; stroke-width: 1.5; stroke-linecap: square"/>
   </g>
   <g id="line2d_47">
    <path d="M 47.009508 111.639023 
L 47.05339 106.697943 
L 47.097273 75.895037 
L 47.141156 68.956499 
L 47.185038 61.912831 
L 47.228921 58.75895 
L 47.272804 56.656363 
L 47.316686 55.605069 
L 47.360569 55.184551 
L 49.335289 47.122297 
L 53.504142 44.452945 
L 57.892409 43.504678 
L 62.280676 42.776132 
L 66.668942 41.854147 
L 71.057209 39.742098 
L 75.445476 38.196696 
L 79.833742 37.126479 
L 84.222009 36.164546 
L 88.610276 35.477 
L 92.998542 35.197355 
L 97.386809 34.931378 
L 101.775076 34.612836 
L 106.163342 34.298499 
L 110.551609 33.867469 
L 114.939876 33.792827 
L 119.328142 33.585722 
L 123.716409 33.527901 
L 128.104676 33.527901 
L 132.492942 33.497413 
L 136.881209 33.334463 
L 141.269476 33.317642 
L 145.657742 33.317642 
L 150.046009 33.317642 
L 154.434276 33.317642 
L 158.822542 33.317642 
L 163.210809 33.317642 
L 167.599076 33.317642 
L 171.987342 33.317642 
L 176.375609 33.317642 
L 180.763876 33.317642 
L 185.152142 33.317642 
L 189.540409 33.317642 
L 193.928676 33.233539 
L 198.316942 33.212513 
L 202.705209 33.212513 
L 207.093476 33.212513 
L 211.481742 33.212513 
L 215.870009 33.212513 
L 220.258276 33.212513 
L 224.646542 33.200949 
L 229.034809 33.107384 
L 233.423076 33.107384 
L 237.811342 33.107384 
L 242.199609 33.107384 
L 246.587876 33.107384 
L 250.976142 33.107384 
L 255.364409 33.107384 
L 259.752676 33.107384 
L 264.140942 33.107384 
L 268.529209 33.107384 
L 272.917476 33.107384 
L 277.305742 33.107384 
L 281.694009 33.107384 
L 286.082276 33.107384 
L 290.470542 33.107384 
L 294.858809 33.107384 
L 299.247076 33.107384 
L 303.635342 33.107384 
L 308.023609 33.107384 
L 311.929166 33.107384 
" clip-path="url(#paf8c099b77)" style="fill: none; stroke: #ff7f0e; stroke-width: 1.5; stroke-linecap: square"/>
   </g>
   <g id="line2d_48">
    <path d="M 47.009508 117.620418 
L 47.05339 113.152488 
L 47.097273 79.439928 
L 47.141156 71.722595 
L 47.185038 64.953005 
L 47.228921 62.922128 
L 47.272804 61.432818 
L 47.316686 59.943508 
L 47.360569 58.860374 
L 51.529422 48.944705 
L 60.086542 45.890516 
L 68.863076 40.980532 
L 77.639609 36.682519 
L 86.416142 34.850668 
L 95.192676 34.284053 
L 103.969209 33.944219 
L 112.745742 33.694422 
L 121.522276 33.280123 
L 130.298809 33.168424 
L 139.075342 33.030325 
L 147.851876 32.791358 
L 156.628409 32.729755 
L 165.404942 32.729755 
L 174.181476 32.729755 
L 182.958009 32.729755 
L 191.734542 32.669506 
L 200.511076 32.594363 
L 209.287609 32.594363 
L 218.064142 32.594363 
L 226.840676 32.331026 
L 235.617209 32.32358 
L 244.393742 32.32358 
L 253.170276 32.32358 
L 261.946809 32.32358 
L 270.723342 32.32358 
L 279.499876 32.32358 
L 288.276409 32.32358 
L 297.052942 32.32358 
L 305.829476 32.32358 
L 314.606009 32.32358 
L 323.382542 32.32358 
L 332.159076 32.32358 
L 340.935609 32.32358 
L 349.712142 32.32358 
L 358.488676 32.32358 
L 367.265209 32.32358 
L 376.041742 32.32358 
L 384.818276 32.32358 
L 393.594809 32.32358 
L 402.371342 32.32358 
L 411.147876 32.32358 
L 419.924409 32.32358 
L 428.700942 32.32358 
L 437.477476 32.32358 
L 446.254009 32.32358 
L 455.030542 32.32358 
L 463.807076 32.32358 
L 472.583609 32.32358 
L 481.360142 32.32358 
L 490.136676 32.32358 
L 498.913209 32.32358 
L 503.520889 32.32358 
" clip-path="url(#paf8c099b77)" style="fill: none; stroke: #ff7f0e; stroke-width: 1.5; stroke-linecap: square"/>
   </g>
   <g id="line2d_49">
    <path d="M 47.009508 232.43267 
L 47.05339 232.43267 
L 47.097273 232.43267 
L 47.141156 232.43267 
L 47.185038 232.43267 
L 47.228921 232.43267 
L 47.272804 232.43267 
L 47.316686 232.43267 
L 47.360569 232.43267 
L 156.847822 232.263102 
L 376.041742 232.261161 
L 595.455076 232.175432 
L 713.405625 232.175432 
" clip-path="url(#paf8c099b77)" style="fill: none; stroke-dasharray: 6,2.25; stroke-dashoffset: 0; stroke: #ff7f0e; stroke-width: 1.5"/>
   </g>
   <g id="line2d_50">
    <path d="M 47.009508 232.327541 
L 47.05339 232.327541 
L 47.097273 232.327541 
L 47.141156 232.327541 
L 47.185038 232.327541 
L 47.228921 232.327541 
L 47.272804 232.327541 
L 47.316686 232.327541 
L 47.360569 232.327541 
L 49.335289 232.327541 
L 53.504142 232.327541 
L 57.892409 232.327541 
L 62.280676 232.327541 
L 66.668942 232.327541 
L 71.057209 232.327541 
L 75.445476 232.327541 
L 79.833742 232.327541 
L 84.222009 232.327541 
L 88.610276 232.327541 
L 92.998542 232.327541 
L 97.386809 232.327541 
L 101.775076 232.327541 
L 106.163342 232.327541 
L 110.551609 232.327541 
L 114.939876 232.327541 
L 119.328142 232.327541 
L 123.716409 232.327541 
L 128.104676 232.259207 
L 132.492942 232.222412 
L 136.881209 232.222412 
L 141.269476 232.222412 
L 145.657742 232.222412 
L 150.046009 232.222412 
L 154.434276 232.222412 
L 158.822542 232.222412 
L 163.210809 232.222412 
L 167.599076 232.222412 
L 171.987342 232.222412 
L 176.375609 232.222412 
L 180.763876 232.222412 
L 185.152142 232.222412 
L 189.540409 232.222412 
L 193.928676 232.222412 
L 198.316942 232.222412 
L 202.705209 232.222412 
L 207.093476 232.222412 
L 211.481742 232.222412 
L 215.870009 232.222412 
L 220.258276 232.222412 
L 224.646542 232.222412 
L 229.034809 232.222412 
L 233.423076 232.222412 
L 237.811342 232.222412 
L 242.199609 232.222412 
L 246.587876 232.222412 
L 250.976142 232.222412 
L 255.364409 232.222412 
L 259.752676 232.222412 
L 264.140942 232.222412 
L 268.529209 232.222412 
L 272.917476 232.222412 
L 277.305742 232.222412 
L 281.694009 232.222412 
L 286.082276 232.222412 
L 290.470542 232.222412 
L 294.858809 232.222412 
L 299.247076 232.222412 
L 303.635342 232.222412 
L 308.023609 232.222412 
L 311.929166 232.222412 
" clip-path="url(#paf8c099b77)" style="fill: none; stroke-dasharray: 6,2.25; stroke-dashoffset: 0; stroke: #ff7f0e; stroke-width: 1.5"/>
   </g>
   <g id="line2d_51"/>
   <g id="line2d_52"/>
   <g id="line2d_53"/>
   <g id="line2d_54"/>
   <g id="line2d_55"/>
   <g id="line2d_56"/>
   <g id="patch_3">
    <path d="M 46.965625 242.438125 
L 46.965625 22.318125 
" style="fill: none; stroke: #000000; stroke-width: 0.8; stroke-linejoin: miter; stroke-linecap: square"/>
   </g>
   <g id="patch_4">
    <path d="M 46.965625 242.438125 
L 705.205625 242.438125 
" style="fill: none; stroke: #000000; stroke-width: 0.8; stroke-linejoin: miter; stroke-linecap: square"/>
   </g>
   <g id="text_17">
    <!-- Adapter contamination along reads -->
    <g transform="translate(270.013125 16.318125) scale(0.12 -0.12)">
     <defs>
      <path id="DejaVuSans-63" d="M 3122 3366 
L 3122 2828 
Q 2878 2963 2633 3030 
Q 2388 3097 2138 3097 
Q 1578 3097 1268 2742 
Q 959 2388 959 1747 
Q 959 1106 1268 751 
Q 1578 397 2138 397 
Q 2388 397 2633 464 
Q 2878 531 3122 666 
L 3122 134 
Q 2881 22 2623 -34 
Q 2366 -91 2075 -91 
Q 1284 -91 818 406 
Q 353 903 353 1747 
Q 353 2603 823 3093 
Q 1294 3584 2113 3584 
Q 2378 3584 2631 3529 
Q 2884 3475 3122 3366 
z
" transform="scale(0.015625)"/>
      <path id="DejaVuSans-6d" d="M 3328 2828 
Q 3544 3216 3844 3400 
Q 4144 3584 4550 3584 
Q 5097 3584 5394 3201 
Q 5691 2819 5691 2113 
L 5691 0 
L 5113 0 
L 5113 2094 
Q 5113 2597 4934 2840 
Q 4756 3084 4391 3084 
Q 3944 3084 3684 2787 
Q 3425 2491 3425 1978 
L 3425 0 
L 2847 0 
L 2847 2094 
Q 2847 2600 2669 2842 
Q 2491 3084 2119 3084 
Q 1678 3084 1418 2786 
Q 1159 2488 1159 1978 
L 1159 0 
L 581 0 
L 581 3500 
L 1159 3500 
L 1159 2956 
Q 1356 3278 1631 3431 
Q 1906 3584 2284 3584 
Q 2666 3584 2933 3390 
Q 3200 3197 3328 2828 
z
" transform="scale(0.015625)"/>
      <path id="DejaVuSans-6c" d="M 603 4863 
L 1178 4863 
L 1178 0 
L 603 0 
L 603 4863 
z
" transform="scale(0.015625)"/>
      <path id="DejaVuSans-67" d="M 2906 1791 
Q 2906 2416 2648 2759 
Q 2391 3103 1925 3103 
Q 1463 3103 1205 2759 
Q 947 2416 947 1791 
Q 947 1169 1205 825 
Q 1463 481 1925 481 
Q 2391 481 2648 825 
Q 2906 1169 2906 1791 
z
M 3481 434 
Q 3481 -459 3084 -895 
Q 2688 -1331 1869 -1331 
Q 1566 -1331 1297 -1286 
Q 1028 -1241 775 -1147 
L 775 -588 
Q 1028 -725 1275 -790 
Q 1522 -856 1778 -856 
Q 2344 -856 2625 -561 
Q 2906 -266 2906 331 
L 2906 616 
Q 2728 306 2450 153 
Q 2172 0 1784 0 
Q 1141 0 747 490 
Q 353 981 353 1791 
Q 353 2603 747 3093 
Q 1141 3584 1784 3584 
Q 2172 3584 2450 3431 
Q 2728 3278 2906 2969 
L 2906 3500 
L 3481 3500 
L 3481 434 
z
" transform="scale(0.015625)"/>
     </defs>
     <use xlink:href="#DejaVuSans-41"/>
     <use xlink:href="#DejaVuSans-64" x="66.658203"/>
     <use xlink:href="#DejaVuSans-61" x="130.134766"/>
     <use xlink:href="#DejaVuSans-70" x="191.414062"/>
     <use xlink:href="#DejaVuSans-74" x="254.890625"/>
     <use xlink:href="#DejaVuSans-65" x="294.099609"/>
     <use xlink:href="#DejaVuSans-72" x="355.623047"/>
     <use xlink:href="#DejaVuSans-20" x="396.736328"/>
     <use xlink:href="#DejaVuSans-63" x="428.523438"/>
     <use xlink:href="#DejaVuSans-6f" x="483.503906"/>
     <use xlink:href="#DejaVuSans-6e" x="544.685547"/>
     <use xlink:href="#DejaVuSans-74" x="608.064453"/>
     <use xlink:href="#DejaVuSans-61" x="647.273438"/>
     <use xlink:href="#DejaVuSans-6d" x="708.552734"/>
     <use xlink:href="#DejaVuSans-69" x="805.964844"/>
     <use xlink:href="#DejaVuSans-6e" x="833.748047"/>
     <use xlink:href="#DejaVuSans-61" x="897.126953"/>
     <use xlink:href="#DejaVuSans-74" x="958.40625"/>
     <use xlink:href="#DejaVuSans-69" x="997.615234"/>
     <use xlink:href="#DejaVuSans-6f" x="1025.398438"/>
     <use xlink:href="#DejaVuSans-6e" x="1086.580078"/>
     <use xlink:href="#DejaVuSans-20" x="1149.958984"/>
     <use xlink:href="#DejaVuSans-61" x="1181.746094"/>
     <use xlink:href="#DejaVuSans-6c" x="1243.025391"/>
     <use xlink:href="#DejaVuSans-6f" x="1270.808594"/>
     <use xlink:href="#DejaVuSans-6e" x="1331.990234"/>
     <use xlink:href="#DejaVuSans-67" x="1395.369141"/>
     <use xlink:href="#DejaVuSans-20" x="1458.845703"/>
     <use xlink:href="#DejaVuSans-72" x="1490.632812"/>
     <use xlink:href="#DejaVuSans-65" x="1529.496094"/>
     <use xlink:href="#DejaVuSans-61" x="1591.019531"/>
     <use xlink:href="#DejaVuSans-64" x="1652.298828"/>
     <use xlink:href="#DejaVuSans-73" x="1715.775391"/>
    </g>
   </g>
   <g id="legend_1">
    <g id="patch_5">
     <path d="M 609.286875 178.051562 
L 698.205625 178.051562 
Q 700.205625 178.051562 700.205625 176.051562 
L 700.205625 88.704687 
Q 700.205625 86.704687 698.205625 86.704687 
L 609.286875 86.704687 
Q 607.286875 86.704687 607.286875 88.704687 
L 607.286875 176.051562 
Q 607.286875 178.051562 609.286875 178.051562 
z
" style="fill: #ffffff; opacity: 0.8; stroke: #cccccc; stroke-linejoin: miter"/>
    </g>
    <g id="line2d_57">
     <path d="M 611.286875 94.803125 
L 621.286875 94.803125 
L 631.286875 94.803125 
" style="fill: none"/>
    </g>
    <g id="text_18">
     <!-- stage -->
     <g transform="translate(639.286875 98.303125) scale(0.1 -0.1)">
      <use xlink:href="#DejaVuSans-73"/>
      <use xlink:href="#DejaVuSans-74" x="52.099609"/>
      <use xlink:href="#DejaVuSans-61" x="91.308594"/>
      <use xlink:href="#DejaVuSans-67" x="152.587891"/>
      <use xlink:href="#DejaVuSans-65" x="216.064453"/>
     </g>
    </g>
    <g id="line2d_58">
     <path d="M 611.286875 109.48125 
L 621.286875 109.48125 
L 631.286875 109.48125 
" style="fill: none; stroke: #1f77b4; stroke-width: 1.5; stroke-linecap: square"/>
    </g>
    <g id="text_19">
     <!-- raw_concat -->
     <g transform="translate(639.286875 112.98125) scale(0.1 -0.1)">
      <defs>
       <path id="DejaVuSans-77" d="M 269 3500 
L 844 3500 
L 1563 769 
L 2278 3500 
L 2956 3500 
L 3675 769 
L 4391 3500 
L 4966 3500 
L 4050 0 
L 3372 0 
L 2619 2869 
L 1863 0 
L 1184 0 
L 269 3500 
z
" transform="scale(0.015625)"/>
       <path id="DejaVuSans-5f" d="M 3263 -1063 
L 3263 -1509 
L -63 -1509 
L -63 -1063 
L 3263 -1063 
z
" transform="scale(0.015625)"/>
      </defs>
      <use xlink:href="#DejaVuSans-72"/>
      <use xlink:href="#DejaVuSans-61" x="41.113281"/>
      <use xlink:href="#DejaVuSans-77" x="102.392578"/>
      <use xlink:href="#DejaVuSans-5f" x="184.179688"/>
      <use xlink:href="#DejaVuSans-63" x="234.179688"/>
      <use xlink:href="#DejaVuSans-6f" x="289.160156"/>
      <use xlink:href="#DejaVuSans-6e" x="350.341797"/>
      <use xlink:href="#DejaVuSans-63" x="413.720703"/>
      <use xlink:href="#DejaVuSans-61" x="468.701172"/>
      <use xlink:href="#DejaVuSans-74" x="529.980469"/>
     </g>
    </g>
    <g id="line2d_59">
     <path d="M 611.286875 124.4375 
L 621.286875 124.4375 
L 631.286875 124.4375 
" style="fill: none; stroke: #ff7f0e; stroke-width: 1.5; stroke-linecap: square"/>
    </g>
    <g id="text_20">
     <!-- cleaned -->
     <g transform="translate(639.286875 127.9375) scale(0.1 -0.1)">
      <use xlink:href="#DejaVuSans-63"/>
      <use xlink:href="#DejaVuSans-6c" x="54.980469"/>
      <use xlink:href="#DejaVuSans-65" x="82.763672"/>
      <use xlink:href="#DejaVuSans-61" x="144.287109"/>
      <use xlink:href="#DejaVuSans-6e" x="205.566406"/>
      <use xlink:href="#DejaVuSans-65" x="268.945312"/>
      <use xlink:href="#DejaVuSans-64" x="330.46875"/>
     </g>
    </g>
    <g id="line2d_60">
     <path d="M 611.286875 139.115625 
L 621.286875 139.115625 
L 631.286875 139.115625 
" style="fill: none"/>
    </g>
    <g id="text_21">
     <!-- adapter -->
     <g transform="translate(639.286875 142.615625) scale(0.1 -0.1)">
      <use xlink:href="#DejaVuSans-61"/>
      <use xlink:href="#DejaVuSans-64" x="61.279297"/>
      <use xlink:href="#DejaVuSans-61" x="124.755859"/>
      <use xlink:href="#DejaVuSans-70" x="186.035156"/>
      <use xlink:href="#DejaVuSans-74" x="249.511719"/>
      <use xlink:href="#DejaVuSans-65" x="288.720703"/>
      <use xlink:href="#DejaVuSans-72" x="350.244141"/>
     </g>
    </g>
    <g id="line2d_61">
     <path d="M 611.286875 153.79375 
L 621.286875 153.79375 
L 631.286875 153.79375 
" style="fill: none; stroke: #333333; stroke-width: 1.5; stroke-linecap: square"/>
    </g>
    <g id="text_22">
     <!-- polya -->
     <g transform="translate(639.286875 157.29375) scale(0.1 -0.1)">
      <defs>
       <path id="DejaVuSans-79" d="M 2059 -325 
Q 1816 -950 1584 -1140 
Q 1353 -1331 966 -1331 
L 506 -1331 
L 506 -850 
L 844 -850 
Q 1081 -850 1212 -737 
Q 1344 -625 1503 -206 
L 1606 56 
L 191 3500 
L 800 3500 
L 1894 763 
L 2988 3500 
L 3597 3500 
L 2059 -325 
z
" transform="scale(0.015625)"/>
      </defs>
      <use xlink:href="#DejaVuSans-70"/>
      <use xlink:href="#DejaVuSans-6f" x="63.476562"/>
      <use xlink:href="#DejaVuSans-6c" x="124.658203"/>
      <use xlink:href="#DejaVuSans-79" x="152.441406"/>
      <use xlink:href="#DejaVuSans-61" x="211.621094"/>
     </g>
    </g>
    <g id="line2d_62">
     <path d="M 611.286875 168.471875 
L 621.286875 168.471875 
L 631.286875 168.471875 
" style="fill: none; stroke-dasharray: 6,2.25; stroke-dashoffset: 0; stroke: #333333; stroke-width: 1.5"/>
    </g>
    <g id="text_23">
     <!-- polyg -->
     <g transform="translate(639.286875 171.971875) scale(0.1 -0.1)">
      <use xlink:href="#DejaVuSans-70"/>
      <use xlink:href="#DejaVuSans-6f" x="63.476562"/>
      <use xlink:href="#DejaVuSans-6c" x="124.658203"/>
      <use xlink:href="#DejaVuSans-79" x="152.441406"/>
      <use xlink:href="#DejaVuSans-67" x="211.621094"/>
     </g>
    </g>
   </g>
  </g>
 </g>
 <defs>
  <clipPath id="paf8c099b77">
   <rect x="46.965625" y="22.318125" width="658.24" height="220.12"/>
  </clipPath>
 </defs>
</svg>
