<?xml version="1.0" encoding="utf-8" standalone="no"?>
<!DOCTYPE svg PUBLIC "-//W3C//DTD SVG 1.1//EN"
  "http://www.w3.org/Graphics/SVG/1.1/DTD/svg11.dtd">
<svg xmlns:xlink="http://www.w3.org/1999/xlink" width="612.165625pt" height="266.794375pt" viewBox="0 0 612.165625 266.794375" xmlns="http://www.w3.org/2000/svg" version="1.1">
 <metadata>
  <rdf:RDF xmlns:dc="http://purl.org/dc/elements/1.1/" xmlns:cc="http://creativecommons.org/ns#" xmlns:rdf="http://www.w3.org/1999/02/22-rdf-syntax-ns#">
   <cc:Work>
    <dc:type rdf:resource="http://purl.org/dc/dcmitype/StillImage"/>
    <dc:date>2024-12-09T22:30:38.359667</dc:date>
    <dc:format>image/svg+xml</dc:format>
    <dc:creator>
     <cc:Agent>
      <dc:title>Matplotlib v3.8.1, https://matplotlib.org/</dc:title>
     </cc:Agent>
    </dc:creator>
   </cc:Work>
  </rdf:RDF>
 </metadata>
 <defs>
  <style type="text/css">*{stroke-linejoin: round; stroke-linecap: butt}</style>
 </defs>
 <g id="figure_1">
  <g id="patch_1">
   <path d="M 0 266.794375 
L 612.165625 266.794375 
L 612.165625 0 
L 0 0 
z
" style="fill: #ffffff"/>
  </g>
  <g id="axes_1">
   <g id="patch_2">
    <path d="M 46.965625 228.96 
L 604.965625 228.96 
L 604.965625 7.2 
L 46.965625 7.2 
z
" style="fill: #ffffff"/>
   </g>
   <g id="matplotlib.axis_1">
    <g id="xtick_1">
     <g id="line2d_1">
      <path d="M 49.783807 228.96 
L 49.783807 7.2 
" clip-path="url(#p51c3473f75)" style="fill: none; stroke-dasharray: 2.96,1.28; stroke-dashoffset: 0; stroke: #b0b0b0; stroke-opacity: 0.7; stroke-width: 0.8"/>
     </g>
     <g id="line2d_2">
      <defs>
       <path id="mf358b4a8b4" d="M 0 0 
L 0 3.5 
" style="stroke: #000000; stroke-width: 0.8"/>
      </defs>
      <g>
       <use xlink:href="#mf358b4a8b4" x="49.783807" y="228.96" style="stroke: #000000; stroke-width: 0.8"/>
      </g>
     </g>
     <g id="text_1">
      <!-- 0 -->
      <g transform="translate(46.602557 243.558437) scale(0.1 -0.1)">
       <defs>
        <path id="DejaVuSans-30" d="M 2034 4250 
Q 1547 4250 1301 3770 
Q 1056 3291 1056 2328 
Q 1056 1369 1301 889 
Q 1547 409 2034 409 
Q 2525 409 2770 889 
Q 3016 1369 3016 2328 
Q 3016 3291 2770 3770 
Q 2525 4250 2034 4250 
z
M 2034 4750 
Q 2819 4750 3233 4129 
Q 3647 3509 3647 2328 
Q 3647 1150 3233 529 
Q 2819 -91 2034 -91 
Q 1250 -91 836 529 
Q 422 1150 422 2328 
Q 422 3509 836 4129 
Q 1250 4750 2034 4750 
z
" transform="scale(0.015625)"/>
       </defs>
       <use xlink:href="#DejaVuSans-30"/>
      </g>
     </g>
    </g>
    <g id="xtick_2">
     <g id="line2d_3">
      <path d="M 162.51108 228.96 
L 162.51108 7.2 
" clip-path="url(#p51c3473f75)" style="fill: none; stroke-dasharray: 2.96,1.28; stroke-dashoffset: 0; stroke: #b0b0b0; stroke-opacity: 0.7; stroke-width: 0.8"/>
     </g>
     <g id="line2d_4">
      <g>
       <use xlink:href="#mf358b4a8b4" x="162.51108" y="228.96" style="stroke: #000000; stroke-width: 0.8"/>
      </g>
     </g>
     <g id="text_2">
      <!-- 10 -->
      <g transform="translate(156.14858 243.558437) scale(0.1 -0.1)">
       <defs>
        <path id="DejaVuSans-31" d="M 794 531 
L 1825 531 
L 1825 4091 
L 703 3866 
L 703 4441 
L 1819 4666 
L 2450 4666 
L 2450 531 
L 3481 531 
L 3481 0 
L 794 0 
L 794 531 
z
" transform="scale(0.015625)"/>
       </defs>
       <use xlink:href="#DejaVuSans-31"/>
       <use xlink:href="#DejaVuSans-30" x="63.623047"/>
      </g>
     </g>
    </g>
    <g id="xtick_3">
     <g id="line2d_5">
      <path d="M 275.238352 228.96 
L 275.238352 7.2 
" clip-path="url(#p51c3473f75)" style="fill: none; stroke-dasharray: 2.96,1.28; stroke-dashoffset: 0; stroke: #b0b0b0; stroke-opacity: 0.7; stroke-width: 0.8"/>
     </g>
     <g id="line2d_6">
      <g>
       <use xlink:href="#mf358b4a8b4" x="275.238352" y="228.96" style="stroke: #000000; stroke-width: 0.8"/>
      </g>
     </g>
     <g id="text_3">
      <!-- 20 -->
      <g transform="translate(268.875852 243.558437) scale(0.1 -0.1)">
       <defs>
        <path id="DejaVuSans-32" d="M 1228 531 
L 3431 531 
L 3431 0 
L 469 0 
L 469 531 
Q 828 903 1448 1529 
Q 2069 2156 2228 2338 
Q 2531 2678 2651 2914 
Q 2772 3150 2772 3378 
Q 2772 3750 2511 3984 
Q 2250 4219 1831 4219 
Q 1534 4219 1204 4116 
Q 875 4013 500 3803 
L 500 4441 
Q 881 4594 1212 4672 
Q 1544 4750 1819 4750 
Q 2544 4750 2975 4387 
Q 3406 4025 3406 3419 
Q 3406 3131 3298 2873 
Q 3191 2616 2906 2266 
Q 2828 2175 2409 1742 
Q 1991 1309 1228 531 
z
" transform="scale(0.015625)"/>
       </defs>
       <use xlink:href="#DejaVuSans-32"/>
       <use xlink:href="#DejaVuSans-30" x="63.623047"/>
      </g>
     </g>
    </g>
    <g id="xtick_4">
     <g id="line2d_7">
      <path d="M 387.965625 228.96 
L 387.965625 7.2 
" clip-path="url(#p51c3473f75)" style="fill: none; stroke-dasharray: 2.96,1.28; stroke-dashoffset: 0; stroke: #b0b0b0; stroke-opacity: 0.7; stroke-width: 0.8"/>
     </g>
     <g id="line2d_8">
      <g>
       <use xlink:href="#mf358b4a8b4" x="387.965625" y="228.96" style="stroke: #000000; stroke-width: 0.8"/>
      </g>
     </g>
     <g id="text_4">
      <!-- 30 -->
      <g transform="translate(381.603125 243.558437) scale(0.1 -0.1)">
       <defs>
        <path id="DejaVuSans-33" d="M 2597 2516 
Q 3050 2419 3304 2112 
Q 3559 1806 3559 1356 
Q 3559 666 3084 287 
Q 2609 -91 1734 -91 
Q 1441 -91 1130 -33 
Q 819 25 488 141 
L 488 750 
Q 750 597 1062 519 
Q 1375 441 1716 441 
Q 2309 441 2620 675 
Q 2931 909 2931 1356 
Q 2931 1769 2642 2001 
Q 2353 2234 1838 2234 
L 1294 2234 
L 1294 2753 
L 1863 2753 
Q 2328 2753 2575 2939 
Q 2822 3125 2822 3475 
Q 2822 3834 2567 4026 
Q 2313 4219 1838 4219 
Q 1578 4219 1281 4162 
Q 984 4106 628 3988 
L 628 4550 
Q 988 4650 1302 4700 
Q 1616 4750 1894 4750 
Q 2613 4750 3031 4423 
Q 3450 4097 3450 3541 
Q 3450 3153 3228 2886 
Q 3006 2619 2597 2516 
z
" transform="scale(0.015625)"/>
       </defs>
       <use xlink:href="#DejaVuSans-33"/>
       <use xlink:href="#DejaVuSans-30" x="63.623047"/>
      </g>
     </g>
    </g>
    <g id="xtick_5">
     <g id="line2d_9">
      <path d="M 500.692898 228.96 
L 500.692898 7.2 
" clip-path="url(#p51c3473f75)" style="fill: none; stroke-dasharray: 2.96,1.28; stroke-dashoffset: 0; stroke: #b0b0b0; stroke-opacity: 0.7; stroke-width: 0.8"/>
     </g>
     <g id="line2d_10">
      <g>
       <use xlink:href="#mf358b4a8b4" x="500.692898" y="228.96" style="stroke: #000000; stroke-width: 0.8"/>
      </g>
     </g>
     <g id="text_5">
      <!-- 40 -->
      <g transform="translate(494.330398 243.558437) scale(0.1 -0.1)">
       <defs>
        <path id="DejaVuSans-34" d="M 2419 4116 
L 825 1625 
L 2419 1625 
L 2419 4116 
z
M 2253 4666 
L 3047 4666 
L 3047 1625 
L 3713 1625 
L 3713 1100 
L 3047 1100 
L 3047 0 
L 2419 0 
L 2419 1100 
L 313 1100 
L 313 1709 
L 2253 4666 
z
" transform="scale(0.015625)"/>
       </defs>
       <use xlink:href="#DejaVuSans-34"/>
       <use xlink:href="#DejaVuSans-30" x="63.623047"/>
      </g>
     </g>
    </g>
    <g id="text_6">
     <!-- mean_phred_score -->
     <g transform="translate(278.816406 257.236562) scale(0.1 -0.1)">
      <defs>
       <path id="DejaVuSans-6d" d="M 3328 2828 
Q 3544 3216 3844 3400 
Q 4144 3584 4550 3584 
Q 5097 3584 5394 3201 
Q 5691 2819 5691 2113 
L 5691 0 
L 5113 0 
L 5113 2094 
Q 5113 2597 4934 2840 
Q 4756 3084 4391 3084 
Q 3944 3084 3684 2787 
Q 3425 2491 3425 1978 
L 3425 0 
L 2847 0 
L 2847 2094 
Q 2847 2600 2669 2842 
Q 2491 3084 2119 3084 
Q 1678 3084 1418 2786 
Q 1159 2488 1159 1978 
L 1159 0 
L 581 0 
L 581 3500 
L 1159 3500 
L 1159 2956 
Q 1356 3278 1631 3431 
Q 1906 3584 2284 3584 
Q 2666 3584 2933 3390 
Q 3200 3197 3328 2828 
z
" transform="scale(0.015625)"/>
       <path id="DejaVuSans-65" d="M 3597 1894 
L 3597 1613 
L 953 1613 
Q 991 1019 1311 708 
Q 1631 397 2203 397 
Q 2534 397 2845 478 
Q 3156 559 3463 722 
L 3463 178 
Q 3153 47 2828 -22 
Q 2503 -91 2169 -91 
Q 1331 -91 842 396 
Q 353 884 353 1716 
Q 353 2575 817 3079 
Q 1281 3584 2069 3584 
Q 2775 3584 3186 3129 
Q 3597 2675 3597 1894 
z
M 3022 2063 
Q 3016 2534 2758 2815 
Q 2500 3097 2075 3097 
Q 1594 3097 1305 2825 
Q 1016 2553 972 2059 
L 3022 2063 
z
" transform="scale(0.015625)"/>
       <path id="DejaVuSans-61" d="M 2194 1759 
Q 1497 1759 1228 1600 
Q 959 1441 959 1056 
Q 959 750 1161 570 
Q 1363 391 1709 391 
Q 2188 391 2477 730 
Q 2766 1069 2766 1631 
L 2766 1759 
L 2194 1759 
z
M 3341 1997 
L 3341 0 
L 2766 0 
L 2766 531 
Q 2569 213 2275 61 
Q 1981 -91 1556 -91 
Q 1019 -91 701 211 
Q 384 513 384 1019 
Q 384 1609 779 1909 
Q 1175 2209 1959 2209 
L 2766 2209 
L 2766 2266 
Q 2766 2663 2505 2880 
Q 2244 3097 1772 3097 
Q 1472 3097 1187 3025 
Q 903 2953 641 2809 
L 641 3341 
Q 956 3463 1253 3523 
Q 1550 3584 1831 3584 
Q 2591 3584 2966 3190 
Q 3341 2797 3341 1997 
z
" transform="scale(0.015625)"/>
       <path id="DejaVuSans-6e" d="M 3513 2113 
L 3513 0 
L 2938 0 
L 2938 2094 
Q 2938 2591 2744 2837 
Q 2550 3084 2163 3084 
Q 1697 3084 1428 2787 
Q 1159 2491 1159 1978 
L 1159 0 
L 581 0 
L 581 3500 
L 1159 3500 
L 1159 2956 
Q 1366 3272 1645 3428 
Q 1925 3584 2291 3584 
Q 2894 3584 3203 3211 
Q 3513 2838 3513 2113 
z
" transform="scale(0.015625)"/>
       <path id="DejaVuSans-5f" d="M 3263 -1063 
L 3263 -1509 
L -63 -1509 
L -63 -1063 
L 3263 -1063 
z
" transform="scale(0.015625)"/>
       <path id="DejaVuSans-70" d="M 1159 525 
L 1159 -1331 
L 581 -1331 
L 581 3500 
L 1159 3500 
L 1159 2969 
Q 1341 3281 1617 3432 
Q 1894 3584 2278 3584 
Q 2916 3584 3314 3078 
Q 3713 2572 3713 1747 
Q 3713 922 3314 415 
Q 2916 -91 2278 -91 
Q 1894 -91 1617 61 
Q 1341 213 1159 525 
z
M 3116 1747 
Q 3116 2381 2855 2742 
Q 2594 3103 2138 3103 
Q 1681 3103 1420 2742 
Q 1159 2381 1159 1747 
Q 1159 1113 1420 752 
Q 1681 391 2138 391 
Q 2594 391 2855 752 
Q 3116 1113 3116 1747 
z
" transform="scale(0.015625)"/>
       <path id="DejaVuSans-68" d="M 3513 2113 
L 3513 0 
L 2938 0 
L 2938 2094 
Q 2938 2591 2744 2837 
Q 2550 3084 2163 3084 
Q 1697 3084 1428 2787 
Q 1159 2491 1159 1978 
L 1159 0 
L 581 0 
L 581 4863 
L 1159 4863 
L 1159 2956 
Q 1366 3272 1645 3428 
Q 1925 3584 2291 3584 
Q 2894 3584 3203 3211 
Q 3513 2838 3513 2113 
z
" transform="scale(0.015625)"/>
       <path id="DejaVuSans-72" d="M 2631 2963 
Q 2534 3019 2420 3045 
Q 2306 3072 2169 3072 
Q 1681 3072 1420 2755 
Q 1159 2438 1159 1844 
L 1159 0 
L 581 0 
L 581 3500 
L 1159 3500 
L 1159 2956 
Q 1341 3275 1631 3429 
Q 1922 3584 2338 3584 
Q 2397 3584 2469 3576 
Q 2541 3569 2628 3553 
L 2631 2963 
z
" transform="scale(0.015625)"/>
       <path id="DejaVuSans-64" d="M 2906 2969 
L 2906 4863 
L 3481 4863 
L 3481 0 
L 2906 0 
L 2906 525 
Q 2725 213 2448 61 
Q 2172 -91 1784 -91 
Q 1150 -91 751 415 
Q 353 922 353 1747 
Q 353 2572 751 3078 
Q 1150 3584 1784 3584 
Q 2172 3584 2448 3432 
Q 2725 3281 2906 2969 
z
M 947 1747 
Q 947 1113 1208 752 
Q 1469 391 1925 391 
Q 2381 391 2643 752 
Q 2906 1113 2906 1747 
Q 2906 2381 2643 2742 
Q 2381 3103 1925 3103 
Q 1469 3103 1208 2742 
Q 947 2381 947 1747 
z
" transform="scale(0.015625)"/>
       <path id="DejaVuSans-73" d="M 2834 3397 
L 2834 2853 
Q 2591 2978 2328 3040 
Q 2066 3103 1784 3103 
Q 1356 3103 1142 2972 
Q 928 2841 928 2578 
Q 928 2378 1081 2264 
Q 1234 2150 1697 2047 
L 1894 2003 
Q 2506 1872 2764 1633 
Q 3022 1394 3022 966 
Q 3022 478 2636 193 
Q 2250 -91 1575 -91 
Q 1294 -91 989 -36 
Q 684 19 347 128 
L 347 722 
Q 666 556 975 473 
Q 1284 391 1588 391 
Q 1994 391 2212 530 
Q 2431 669 2431 922 
Q 2431 1156 2273 1281 
Q 2116 1406 1581 1522 
L 1381 1569 
Q 847 1681 609 1914 
Q 372 2147 372 2553 
Q 372 3047 722 3315 
Q 1072 3584 1716 3584 
Q 2034 3584 2315 3537 
Q 2597 3491 2834 3397 
z
" transform="scale(0.015625)"/>
       <path id="DejaVuSans-63" d="M 3122 3366 
L 3122 2828 
Q 2878 2963 2633 3030 
Q 2388 3097 2138 3097 
Q 1578 3097 1268 2742 
Q 959 2388 959 1747 
Q 959 1106 1268 751 
Q 1578 397 2138 397 
Q 2388 397 2633 464 
Q 2878 531 3122 666 
L 3122 134 
Q 2881 22 2623 -34 
Q 2366 -91 2075 -91 
Q 1284 -91 818 406 
Q 353 903 353 1747 
Q 353 2603 823 3093 
Q 1294 3584 2113 3584 
Q 2378 3584 2631 3529 
Q 2884 3475 3122 3366 
z
" transform="scale(0.015625)"/>
       <path id="DejaVuSans-6f" d="M 1959 3097 
Q 1497 3097 1228 2736 
Q 959 2375 959 1747 
Q 959 1119 1226 758 
Q 1494 397 1959 397 
Q 2419 397 2687 759 
Q 2956 1122 2956 1747 
Q 2956 2369 2687 2733 
Q 2419 3097 1959 3097 
z
M 1959 3584 
Q 2709 3584 3137 3096 
Q 3566 2609 3566 1747 
Q 3566 888 3137 398 
Q 2709 -91 1959 -91 
Q 1206 -91 779 398 
Q 353 888 353 1747 
Q 353 2609 779 3096 
Q 1206 3584 1959 3584 
z
" transform="scale(0.015625)"/>
      </defs>
      <use xlink:href="#DejaVuSans-6d"/>
      <use xlink:href="#DejaVuSans-65" x="97.412109"/>
      <use xlink:href="#DejaVuSans-61" x="158.935547"/>
      <use xlink:href="#DejaVuSans-6e" x="220.214844"/>
      <use xlink:href="#DejaVuSans-5f" x="283.59375"/>
      <use xlink:href="#DejaVuSans-70" x="333.59375"/>
      <use xlink:href="#DejaVuSans-68" x="397.070312"/>
      <use xlink:href="#DejaVuSans-72" x="460.449219"/>
      <use xlink:href="#DejaVuSans-65" x="499.3125"/>
      <use xlink:href="#DejaVuSans-64" x="560.835938"/>
      <use xlink:href="#DejaVuSans-5f" x="624.3125"/>
      <use xlink:href="#DejaVuSans-73" x="674.3125"/>
      <use xlink:href="#DejaVuSans-63" x="726.412109"/>
      <use xlink:href="#DejaVuSans-6f" x="781.392578"/>
      <use xlink:href="#DejaVuSans-72" x="842.574219"/>
      <use xlink:href="#DejaVuSans-65" x="881.4375"/>
     </g>
    </g>
   </g>
   <g id="matplotlib.axis_2">
    <g id="ytick_1">
     <g id="line2d_11">
      <path d="M 46.965625 219.267692 
L 604.965625 219.267692 
" clip-path="url(#p51c3473f75)" style="fill: none; stroke-dasharray: 2.96,1.28; stroke-dashoffset: 0; stroke: #b0b0b0; stroke-opacity: 0.7; stroke-width: 0.8"/>
     </g>
     <g id="line2d_12">
      <defs>
       <path id="ma2b64f699a" d="M 0 0 
L -3.5 0 
" style="stroke: #000000; stroke-width: 0.8"/>
      </defs>
      <g>
       <use xlink:href="#ma2b64f699a" x="46.965625" y="219.267692" style="stroke: #000000; stroke-width: 0.8"/>
      </g>
     </g>
     <g id="text_7">
      <!-- 0 -->
      <g transform="translate(33.603125 223.066911) scale(0.1 -0.1)">
       <use xlink:href="#DejaVuSans-30"/>
      </g>
     </g>
    </g>
    <g id="ytick_2">
     <g id="line2d_13">
      <path d="M 46.965625 180.498462 
L 604.965625 180.498462 
" clip-path="url(#p51c3473f75)" style="fill: none; stroke-dasharray: 2.96,1.28; stroke-dashoffset: 0; stroke: #b0b0b0; stroke-opacity: 0.7; stroke-width: 0.8"/>
     </g>
     <g id="line2d_14">
      <g>
       <use xlink:href="#ma2b64f699a" x="46.965625" y="180.498462" style="stroke: #000000; stroke-width: 0.8"/>
      </g>
     </g>
     <g id="text_8">
      <!-- 100 -->
      <g transform="translate(20.878125 184.29768) scale(0.1 -0.1)">
       <use xlink:href="#DejaVuSans-31"/>
       <use xlink:href="#DejaVuSans-30" x="63.623047"/>
       <use xlink:href="#DejaVuSans-30" x="127.246094"/>
      </g>
     </g>
    </g>
    <g id="ytick_3">
     <g id="line2d_15">
      <path d="M 46.965625 141.729231 
L 604.965625 141.729231 
" clip-path="url(#p51c3473f75)" style="fill: none; stroke-dasharray: 2.96,1.28; stroke-dashoffset: 0; stroke: #b0b0b0; stroke-opacity: 0.7; stroke-width: 0.8"/>
     </g>
     <g id="line2d_16">
      <g>
       <use xlink:href="#ma2b64f699a" x="46.965625" y="141.729231" style="stroke: #000000; stroke-width: 0.8"/>
      </g>
     </g>
     <g id="text_9">
      <!-- 200 -->
      <g transform="translate(20.878125 145.52845) scale(0.1 -0.1)">
       <use xlink:href="#DejaVuSans-32"/>
       <use xlink:href="#DejaVuSans-30" x="63.623047"/>
       <use xlink:href="#DejaVuSans-30" x="127.246094"/>
      </g>
     </g>
    </g>
    <g id="ytick_4">
     <g id="line2d_17">
      <path d="M 46.965625 102.96 
L 604.965625 102.96 
" clip-path="url(#p51c3473f75)" style="fill: none; stroke-dasharray: 2.96,1.28; stroke-dashoffset: 0; stroke: #b0b0b0; stroke-opacity: 0.7; stroke-width: 0.8"/>
     </g>
     <g id="line2d_18">
      <g>
       <use xlink:href="#ma2b64f699a" x="46.965625" y="102.96" style="stroke: #000000; stroke-width: 0.8"/>
      </g>
     </g>
     <g id="text_10">
      <!-- 300 -->
      <g transform="translate(20.878125 106.759219) scale(0.1 -0.1)">
       <use xlink:href="#DejaVuSans-33"/>
       <use xlink:href="#DejaVuSans-30" x="63.623047"/>
       <use xlink:href="#DejaVuSans-30" x="127.246094"/>
      </g>
     </g>
    </g>
    <g id="ytick_5">
     <g id="line2d_19">
      <path d="M 46.965625 64.190769 
L 604.965625 64.190769 
" clip-path="url(#p51c3473f75)" style="fill: none; stroke-dasharray: 2.96,1.28; stroke-dashoffset: 0; stroke: #b0b0b0; stroke-opacity: 0.7; stroke-width: 0.8"/>
     </g>
     <g id="line2d_20">
      <g>
       <use xlink:href="#ma2b64f699a" x="46.965625" y="64.190769" style="stroke: #000000; stroke-width: 0.8"/>
      </g>
     </g>
     <g id="text_11">
      <!-- 400 -->
      <g transform="translate(20.878125 67.989988) scale(0.1 -0.1)">
       <use xlink:href="#DejaVuSans-34"/>
       <use xlink:href="#DejaVuSans-30" x="63.623047"/>
       <use xlink:href="#DejaVuSans-30" x="127.246094"/>
      </g>
     </g>
    </g>
    <g id="ytick_6">
     <g id="line2d_21">
      <path d="M 46.965625 25.421538 
L 604.965625 25.421538 
" clip-path="url(#p51c3473f75)" style="fill: none; stroke-dasharray: 2.96,1.28; stroke-dashoffset: 0; stroke: #b0b0b0; stroke-opacity: 0.7; stroke-width: 0.8"/>
     </g>
     <g id="line2d_22">
      <g>
       <use xlink:href="#ma2b64f699a" x="46.965625" y="25.421538" style="stroke: #000000; stroke-width: 0.8"/>
      </g>
     </g>
     <g id="text_12">
      <!-- 500 -->
      <g transform="translate(20.878125 29.220757) scale(0.1 -0.1)">
       <defs>
        <path id="DejaVuSans-35" d="M 691 4666 
L 3169 4666 
L 3169 4134 
L 1269 4134 
L 1269 2991 
Q 1406 3038 1543 3061 
Q 1681 3084 1819 3084 
Q 2600 3084 3056 2656 
Q 3513 2228 3513 1497 
Q 3513 744 3044 326 
Q 2575 -91 1722 -91 
Q 1428 -91 1123 -41 
Q 819 9 494 109 
L 494 744 
Q 775 591 1075 516 
Q 1375 441 1709 441 
Q 2250 441 2565 725 
Q 2881 1009 2881 1497 
Q 2881 1984 2565 2268 
Q 2250 2553 1709 2553 
Q 1456 2553 1204 2497 
Q 953 2441 691 2322 
L 691 4666 
z
" transform="scale(0.015625)"/>
       </defs>
       <use xlink:href="#DejaVuSans-35"/>
       <use xlink:href="#DejaVuSans-30" x="63.623047"/>
       <use xlink:href="#DejaVuSans-30" x="127.246094"/>
      </g>
     </g>
    </g>
    <g id="text_13">
     <!-- n_sequences -->
     <g transform="translate(14.520312 150.44875) rotate(-90) scale(0.1 -0.1)">
      <defs>
       <path id="DejaVuSans-71" d="M 947 1747 
Q 947 1113 1208 752 
Q 1469 391 1925 391 
Q 2381 391 2643 752 
Q 2906 1113 2906 1747 
Q 2906 2381 2643 2742 
Q 2381 3103 1925 3103 
Q 1469 3103 1208 2742 
Q 947 2381 947 1747 
z
M 2906 525 
Q 2725 213 2448 61 
Q 2172 -91 1784 -91 
Q 1150 -91 751 415 
Q 353 922 353 1747 
Q 353 2572 751 3078 
Q 1150 3584 1784 3584 
Q 2172 3584 2448 3432 
Q 2725 3281 2906 2969 
L 2906 3500 
L 3481 3500 
L 3481 -1331 
L 2906 -1331 
L 2906 525 
z
" transform="scale(0.015625)"/>
       <path id="DejaVuSans-75" d="M 544 1381 
L 544 3500 
L 1119 3500 
L 1119 1403 
Q 1119 906 1312 657 
Q 1506 409 1894 409 
Q 2359 409 2629 706 
Q 2900 1003 2900 1516 
L 2900 3500 
L 3475 3500 
L 3475 0 
L 2900 0 
L 2900 538 
Q 2691 219 2414 64 
Q 2138 -91 1772 -91 
Q 1169 -91 856 284 
Q 544 659 544 1381 
z
M 1991 3584 
L 1991 3584 
z
" transform="scale(0.015625)"/>
      </defs>
      <use xlink:href="#DejaVuSans-6e"/>
      <use xlink:href="#DejaVuSans-5f" x="63.378906"/>
      <use xlink:href="#DejaVuSans-73" x="113.378906"/>
      <use xlink:href="#DejaVuSans-65" x="165.478516"/>
      <use xlink:href="#DejaVuSans-71" x="227.001953"/>
      <use xlink:href="#DejaVuSans-75" x="290.478516"/>
      <use xlink:href="#DejaVuSans-65" x="353.857422"/>
      <use xlink:href="#DejaVuSans-6e" x="415.380859"/>
      <use xlink:href="#DejaVuSans-63" x="478.759766"/>
      <use xlink:href="#DejaVuSans-65" x="533.740234"/>
      <use xlink:href="#DejaVuSans-73" x="595.263672"/>
     </g>
    </g>
   </g>
   <g id="line2d_23">
    <path d="M 72.329261 207.636923 
L 83.601989 163.052308 
L 94.874716 144.055385 
L 106.147443 138.627692 
L 117.42017 144.443077 
L 128.692898 146.381538 
L 139.965625 144.055385 
L 151.238352 139.015385 
L 162.51108 144.055385 
L 173.783807 138.24 
L 185.056534 142.892308 
L 196.329261 134.363077 
L 207.601989 141.341538 
L 218.874716 134.750769 
L 230.147443 122.344615 
L 241.42017 116.141538 
L 252.692898 109.550769 
L 263.965625 111.101538 
L 275.238352 85.513846 
L 286.51108 87.064615 
L 297.783807 36.664615 
L 309.056534 26.196923 
L 320.329261 45.193846 
L 331.601989 63.027692 
L 342.874716 100.246154 
L 354.147443 149.095385 
L 365.42017 163.052308 
L 376.692898 184.763077 
L 387.965625 198.72 
L 399.238352 201.821538 
L 410.51108 210.350769 
L 421.783807 210.738462 
L 433.056534 210.738462 
L 444.329261 213.84 
L 455.601989 213.452308 
L 466.874716 213.84 
L 478.147443 213.84 
L 489.42017 210.738462 
L 500.692898 215.003077 
L 511.965625 211.901538 
L 523.238352 204.923077 
L 534.51108 207.636923 
L 545.783807 206.086154 
L 557.056534 208.024615 
L 568.329261 216.941538 
L 579.601989 218.88 
" clip-path="url(#p51c3473f75)" style="fill: none; stroke: #1f77b4; stroke-width: 1.5; stroke-linecap: square"/>
   </g>
   <g id="line2d_24">
    <path d="M 72.329261 200.658462 
L 83.601989 157.236923 
L 94.874716 148.707692 
L 106.147443 151.033846 
L 117.42017 140.566154 
L 128.692898 153.747692 
L 139.965625 154.135385 
L 151.238352 145.993846 
L 162.51108 141.341538 
L 173.783807 138.24 
L 185.056534 137.076923 
L 196.329261 131.649231 
L 207.601989 142.116923 
L 218.874716 135.526154 
L 230.147443 125.833846 
L 241.42017 115.753846 
L 252.692898 99.470769 
L 263.965625 99.858462 
L 275.238352 87.064615 
L 286.51108 56.436923 
L 297.783807 47.132308 
L 309.056534 17.28 
L 320.329261 23.095385 
L 331.601989 21.544615 
L 342.874716 89.778462 
L 354.147443 124.670769 
L 365.42017 165.378462 
L 376.692898 184.763077 
L 387.965625 195.230769 
L 399.238352 205.310769 
L 410.51108 209.187692 
L 421.783807 209.963077 
L 433.056534 213.064615 
L 444.329261 212.676923 
L 455.601989 215.390769 
L 466.874716 216.166154 
L 478.147443 215.003077 
L 489.42017 216.553846 
L 500.692898 214.615385 
L 511.965625 213.064615 
L 523.238352 210.350769 
L 534.51108 208.412308 
L 545.783807 211.513846 
L 557.056534 215.003077 
L 568.329261 218.104615 
L 579.601989 218.88 
" clip-path="url(#p51c3473f75)" style="fill: none; stroke: #1f77b4; stroke-width: 1.5; stroke-linecap: square"/>
   </g>
   <g id="line2d_25">
    <path d="M 72.329261 203.76 
L 83.601989 163.44 
L 94.874716 140.178462 
L 106.147443 151.421538 
L 117.42017 147.932308 
L 128.692898 151.809231 
L 139.965625 147.932308 
L 151.238352 148.32 
L 162.51108 144.443077 
L 173.783807 145.218462 
L 185.056534 143.667692 
L 196.329261 146.769231 
L 207.601989 145.993846 
L 218.874716 130.098462 
L 230.147443 133.975385 
L 241.42017 125.058462 
L 252.692898 120.793846 
L 263.965625 116.916923 
L 275.238352 100.633846 
L 286.51108 76.984615 
L 297.783807 64.190769 
L 309.056534 51.396923 
L 320.329261 69.230769 
L 331.601989 72.72 
L 342.874716 119.630769 
L 354.147443 151.033846 
L 365.42017 175.458462 
L 376.692898 198.72 
L 387.965625 200.270769 
L 399.238352 203.76 
L 410.51108 206.861538 
L 421.783807 211.513846 
L 433.056534 214.615385 
L 444.329261 213.452308 
L 455.601989 215.003077 
L 466.874716 215.003077 
L 478.147443 213.452308 
L 489.42017 215.003077 
L 500.692898 217.329231 
L 511.965625 208.412308 
L 523.238352 209.963077 
L 534.51108 211.126154 
L 545.783807 211.901538 
L 557.056534 213.064615 
L 568.329261 215.003077 
L 579.601989 218.492308 
" clip-path="url(#p51c3473f75)" style="fill: none; stroke: #1f77b4; stroke-width: 1.5; stroke-linecap: square"/>
   </g>
   <g id="line2d_26">
    <path d="M 72.329261 207.249231 
L 83.601989 180.498462 
L 94.874716 166.929231 
L 106.147443 169.643077 
L 117.42017 163.44 
L 128.692898 171.969231 
L 139.965625 175.846154 
L 151.238352 177.396923 
L 162.51108 174.683077 
L 173.783807 172.744615 
L 185.056534 161.889231 
L 196.329261 164.603077 
L 207.601989 163.827692 
L 218.874716 157.236923 
L 230.147443 159.175385 
L 241.42017 156.073846 
L 252.692898 151.809231 
L 263.965625 143.667692 
L 275.238352 134.750769 
L 286.51108 121.181538 
L 297.783807 111.876923 
L 309.056534 96.756923 
L 320.329261 89.778462 
L 331.601989 112.264615 
L 342.874716 134.750769 
L 354.147443 173.132308 
L 365.42017 184.763077 
L 376.692898 201.046154 
L 387.965625 204.535385 
L 399.238352 212.676923 
L 410.51108 213.064615 
L 421.783807 211.513846 
L 433.056534 214.615385 
L 444.329261 215.003077 
L 455.601989 216.553846 
L 466.874716 218.104615 
L 478.147443 217.716923 
L 489.42017 215.390769 
L 500.692898 214.615385 
L 511.965625 215.003077 
L 523.238352 215.003077 
L 534.51108 216.553846 
L 545.783807 213.84 
L 557.056534 216.941538 
L 568.329261 217.329231 
" clip-path="url(#p51c3473f75)" style="fill: none; stroke: #1f77b4; stroke-width: 1.5; stroke-linecap: square"/>
   </g>
   <g id="line2d_27">
    <path d="M 72.329261 212.289231 
L 83.601989 187.864615 
L 94.874716 183.987692 
L 106.147443 177.396923 
L 117.42017 173.132308 
L 128.692898 163.827692 
L 139.965625 170.806154 
L 151.238352 166.541538 
L 162.51108 172.744615 
L 173.783807 167.704615 
L 185.056534 164.990769 
L 196.329261 159.563077 
L 207.601989 161.113846 
L 218.874716 158.4 
L 230.147443 158.012308 
L 241.42017 155.686154 
L 252.692898 156.849231 
L 263.965625 134.750769 
L 275.238352 132.812308 
L 286.51108 121.956923 
L 297.783807 106.449231 
L 309.056534 104.510769 
L 320.329261 105.673846 
L 331.601989 115.366154 
L 342.874716 135.526154 
L 354.147443 166.541538 
L 365.42017 178.947692 
L 376.692898 199.495385 
L 387.965625 204.535385 
L 399.238352 204.923077 
L 410.51108 207.636923 
L 421.783807 212.676923 
L 433.056534 214.227692 
L 444.329261 214.615385 
L 455.601989 216.553846 
L 466.874716 214.227692 
L 478.147443 216.941538 
L 489.42017 216.166154 
L 500.692898 216.166154 
L 511.965625 215.003077 
L 523.238352 215.390769 
L 534.51108 215.003077 
L 545.783807 215.390769 
L 557.056534 217.329231 
L 568.329261 216.941538 
L 579.601989 218.88 
" clip-path="url(#p51c3473f75)" style="fill: none; stroke: #1f77b4; stroke-width: 1.5; stroke-linecap: square"/>
   </g>
   <g id="line2d_28">
    <path d="M 72.329261 213.452308 
L 83.601989 183.6 
L 94.874716 176.233846 
L 106.147443 190.578462 
L 117.42017 175.458462 
L 128.692898 174.295385 
L 139.965625 178.947692 
L 151.238352 172.356923 
L 162.51108 164.990769 
L 173.783807 160.726154 
L 185.056534 157.236923 
L 196.329261 171.969231 
L 207.601989 161.889231 
L 218.874716 161.501538 
L 230.147443 158.787692 
L 241.42017 151.809231 
L 252.692898 147.544615 
L 263.965625 149.095385 
L 275.238352 137.464615 
L 286.51108 126.996923 
L 297.783807 109.163077 
L 309.056534 91.716923 
L 320.329261 97.532308 
L 331.601989 99.858462 
L 342.874716 120.793846 
L 354.147443 158.012308 
L 365.42017 182.824615 
L 376.692898 190.190769 
L 387.965625 201.821538 
L 399.238352 206.473846 
L 410.51108 210.738462 
L 421.783807 213.064615 
L 433.056534 215.390769 
L 444.329261 213.84 
L 455.601989 216.166154 
L 466.874716 217.716923 
L 478.147443 215.003077 
L 489.42017 215.778462 
L 500.692898 216.941538 
L 511.965625 215.778462 
L 523.238352 217.329231 
L 534.51108 216.941538 
L 545.783807 216.941538 
L 557.056534 217.716923 
L 568.329261 218.88 
" clip-path="url(#p51c3473f75)" style="fill: none; stroke: #1f77b4; stroke-width: 1.5; stroke-linecap: square"/>
   </g>
   <g id="line2d_29">
    <path d="M 72.329261 213.064615 
L 83.601989 190.966154 
L 94.874716 181.273846 
L 106.147443 171.581538 
L 117.42017 176.621538 
L 128.692898 177.009231 
L 139.965625 174.295385 
L 151.238352 172.356923 
L 162.51108 164.990769 
L 173.783807 167.704615 
L 185.056534 168.48 
L 196.329261 164.990769 
L 207.601989 164.603077 
L 218.874716 170.806154 
L 230.147443 163.052308 
L 241.42017 163.052308 
L 252.692898 149.095385 
L 263.965625 149.870769 
L 275.238352 152.196923 
L 286.51108 123.12 
L 297.783807 125.058462 
L 309.056534 99.858462 
L 320.329261 109.550769 
L 331.601989 132.036923 
L 342.874716 155.686154 
L 354.147443 173.52 
L 365.42017 190.578462 
L 376.692898 202.596923 
L 387.965625 206.861538 
L 399.238352 207.636923 
L 410.51108 216.166154 
L 421.783807 215.003077 
L 433.056534 214.615385 
L 444.329261 216.166154 
L 455.601989 216.166154 
L 466.874716 213.452308 
L 478.147443 216.166154 
L 489.42017 217.329231 
L 500.692898 215.390769 
L 511.965625 218.104615 
L 523.238352 215.390769 
L 534.51108 217.329231 
L 545.783807 218.104615 
L 557.056534 217.716923 
L 568.329261 218.104615 
L 579.601989 218.88 
" clip-path="url(#p51c3473f75)" style="fill: none; stroke: #1f77b4; stroke-width: 1.5; stroke-linecap: square"/>
   </g>
   <g id="line2d_30">
    <path d="M 72.329261 209.575385 
L 83.601989 200.270769 
L 94.874716 188.252308 
L 106.147443 190.966154 
L 117.42017 188.252308 
L 128.692898 182.049231 
L 139.965625 184.375385 
L 151.238352 185.538462 
L 162.51108 182.824615 
L 173.783807 185.150769 
L 185.056534 180.498462 
L 196.329261 182.436923 
L 207.601989 182.824615 
L 218.874716 178.947692 
L 230.147443 182.436923 
L 241.42017 176.621538 
L 252.692898 164.603077 
L 263.965625 165.378462 
L 275.238352 163.827692 
L 286.51108 152.972308 
L 297.783807 151.421538 
L 309.056534 152.972308 
L 320.329261 126.609231 
L 331.601989 147.544615 
L 342.874716 171.193846 
L 354.147443 181.273846 
L 365.42017 197.169231 
L 376.692898 202.596923 
L 387.965625 211.126154 
L 399.238352 213.064615 
L 410.51108 213.84 
L 421.783807 212.289231 
L 433.056534 215.390769 
L 444.329261 217.329231 
L 455.601989 216.941538 
L 466.874716 216.553846 
L 478.147443 216.941538 
L 489.42017 217.329231 
L 500.692898 216.553846 
L 511.965625 218.492308 
L 523.238352 217.329231 
L 534.51108 218.104615 
L 545.783807 218.104615 
L 557.056534 218.492308 
L 568.329261 218.492308 
" clip-path="url(#p51c3473f75)" style="fill: none; stroke: #1f77b4; stroke-width: 1.5; stroke-linecap: square"/>
   </g>
   <g id="line2d_31">
    <path d="M 162.51108 218.104615 
L 173.783807 214.615385 
L 185.056534 209.575385 
L 196.329261 200.658462 
L 207.601989 199.883077 
L 218.874716 197.556923 
L 230.147443 180.498462 
L 241.42017 170.030769 
L 252.692898 163.44 
L 263.965625 162.664615 
L 275.238352 133.2 
L 286.51108 133.587692 
L 297.783807 80.473846 
L 309.056534 63.803077 
L 320.329261 77.76 
L 331.601989 92.88 
L 342.874716 123.895385 
L 354.147443 165.378462 
L 365.42017 180.886154 
L 376.692898 196.781538 
L 387.965625 208.024615 
L 399.238352 207.636923 
L 410.51108 213.452308 
L 421.783807 213.064615 
L 433.056534 215.003077 
L 444.329261 216.166154 
L 455.601989 214.615385 
L 466.874716 215.390769 
L 478.147443 213.84 
L 489.42017 210.738462 
L 500.692898 215.390769 
L 511.965625 211.901538 
L 523.238352 204.923077 
L 534.51108 207.636923 
L 545.783807 206.086154 
L 557.056534 208.024615 
L 568.329261 216.941538 
L 579.601989 218.88 
" clip-path="url(#p51c3473f75)" style="fill: none; stroke: #ff7f0e; stroke-width: 1.5; stroke-linecap: square"/>
   </g>
   <g id="line2d_32">
    <path d="M 162.51108 218.492308 
L 173.783807 213.064615 
L 185.056534 209.963077 
L 196.329261 204.535385 
L 207.601989 199.883077 
L 218.874716 196.006154 
L 230.147443 181.661538 
L 241.42017 171.193846 
L 252.692898 156.461538 
L 263.965625 149.870769 
L 275.238352 140.178462 
L 286.51108 109.163077 
L 297.783807 88.615385 
L 309.056534 54.498462 
L 320.329261 55.661538 
L 331.601989 48.683077 
L 342.874716 110.713846 
L 354.147443 141.341538 
L 365.42017 181.273846 
L 376.692898 196.006154 
L 387.965625 204.923077 
L 399.238352 211.901538 
L 410.51108 213.452308 
L 421.783807 216.166154 
L 433.056534 215.390769 
L 444.329261 215.390769 
L 455.601989 216.553846 
L 466.874716 216.166154 
L 478.147443 215.778462 
L 489.42017 216.553846 
L 500.692898 214.615385 
L 511.965625 213.452308 
L 523.238352 210.350769 
L 534.51108 208.412308 
L 545.783807 211.513846 
L 557.056534 215.003077 
L 568.329261 218.104615 
L 579.601989 218.88 
" clip-path="url(#p51c3473f75)" style="fill: none; stroke: #ff7f0e; stroke-width: 1.5; stroke-linecap: square"/>
   </g>
   <g id="line2d_33">
    <path d="M 162.51108 218.492308 
L 173.783807 213.84 
L 185.056534 208.8 
L 196.329261 208.024615 
L 207.601989 196.781538 
L 218.874716 190.966154 
L 230.147443 182.049231 
L 241.42017 176.233846 
L 252.692898 171.193846 
L 263.965625 161.501538 
L 275.238352 147.932308 
L 286.51108 127.772308 
L 297.783807 102.96 
L 309.056534 89.778462 
L 320.329261 95.593846 
L 331.601989 93.267692 
L 342.874716 136.689231 
L 354.147443 167.704615 
L 365.42017 190.190769 
L 376.692898 205.698462 
L 387.965625 211.513846 
L 399.238352 209.963077 
L 410.51108 213.064615 
L 421.783807 214.615385 
L 433.056534 216.553846 
L 444.329261 214.615385 
L 455.601989 216.553846 
L 466.874716 215.390769 
L 478.147443 213.452308 
L 489.42017 215.003077 
L 500.692898 217.329231 
L 511.965625 208.412308 
L 523.238352 210.350769 
L 534.51108 211.126154 
L 545.783807 211.901538 
L 557.056534 213.064615 
L 568.329261 215.003077 
L 579.601989 218.492308 
" clip-path="url(#p51c3473f75)" style="fill: none; stroke: #ff7f0e; stroke-width: 1.5; stroke-linecap: square"/>
   </g>
   <g id="line2d_34">
    <path d="M 162.51108 218.492308 
L 173.783807 216.553846 
L 185.056534 212.289231 
L 196.329261 208.412308 
L 207.601989 207.636923 
L 218.874716 197.556923 
L 230.147443 190.190769 
L 241.42017 189.027692 
L 252.692898 179.723077 
L 263.965625 176.233846 
L 275.238352 163.827692 
L 286.51108 156.849231 
L 297.783807 134.750769 
L 309.056534 120.406154 
L 320.329261 111.876923 
L 331.601989 129.323077 
L 342.874716 149.870769 
L 354.147443 185.538462 
L 365.42017 191.741538 
L 376.692898 208.412308 
L 387.965625 211.901538 
L 399.238352 215.003077 
L 410.51108 215.778462 
L 421.783807 215.003077 
L 433.056534 216.941538 
L 444.329261 216.553846 
L 455.601989 217.329231 
L 466.874716 218.104615 
L 478.147443 218.104615 
L 489.42017 215.390769 
L 500.692898 214.615385 
L 511.965625 215.003077 
L 523.238352 215.003077 
L 534.51108 216.553846 
L 545.783807 213.84 
L 557.056534 216.941538 
L 568.329261 217.329231 
" clip-path="url(#p51c3473f75)" style="fill: none; stroke: #ff7f0e; stroke-width: 1.5; stroke-linecap: square"/>
   </g>
   <g id="line2d_35">
    <path d="M 173.783807 216.941538 
L 185.056534 213.452308 
L 196.329261 211.126154 
L 207.601989 207.636923 
L 218.874716 201.046154 
L 230.147443 200.270769 
L 241.42017 191.353846 
L 252.692898 192.129231 
L 263.965625 175.070769 
L 275.238352 167.316923 
L 286.51108 154.523077 
L 297.783807 136.301538 
L 309.056534 129.323077 
L 320.329261 128.547692 
L 331.601989 135.526154 
L 342.874716 153.747692 
L 354.147443 181.273846 
L 365.42017 189.027692 
L 376.692898 206.473846 
L 387.965625 209.187692 
L 399.238352 208.412308 
L 410.51108 210.738462 
L 421.783807 213.84 
L 433.056534 215.390769 
L 444.329261 216.553846 
L 455.601989 216.941538 
L 466.874716 214.615385 
L 478.147443 216.941538 
L 489.42017 216.553846 
L 500.692898 216.941538 
L 511.965625 215.003077 
L 523.238352 215.390769 
L 534.51108 215.003077 
L 545.783807 215.778462 
L 557.056534 217.329231 
L 568.329261 216.941538 
L 579.601989 218.88 
" clip-path="url(#p51c3473f75)" style="fill: none; stroke: #ff7f0e; stroke-width: 1.5; stroke-linecap: square"/>
   </g>
   <g id="line2d_36">
    <path d="M 162.51108 218.88 
L 173.783807 214.615385 
L 185.056534 210.350769 
L 196.329261 211.901538 
L 207.601989 208.024615 
L 218.874716 201.433846 
L 230.147443 194.455385 
L 241.42017 186.701538 
L 252.692898 185.150769 
L 263.965625 178.947692 
L 275.238352 168.092308 
L 286.51108 153.747692 
L 297.783807 139.015385 
L 309.056534 116.141538 
L 320.329261 117.692308 
L 331.601989 115.753846 
L 342.874716 132.036923 
L 354.147443 172.744615 
L 365.42017 191.353846 
L 376.692898 198.332308 
L 387.965625 204.147692 
L 399.238352 210.738462 
L 410.51108 213.064615 
L 421.783807 214.615385 
L 433.056534 216.553846 
L 444.329261 213.84 
L 455.601989 216.941538 
L 466.874716 217.716923 
L 478.147443 215.390769 
L 489.42017 215.778462 
L 500.692898 216.941538 
L 511.965625 216.166154 
L 523.238352 217.329231 
L 534.51108 216.941538 
L 545.783807 216.941538 
L 557.056534 217.716923 
L 568.329261 218.88 
" clip-path="url(#p51c3473f75)" style="fill: none; stroke: #ff7f0e; stroke-width: 1.5; stroke-linecap: square"/>
   </g>
   <g id="line2d_37">
    <path d="M 162.51108 218.88 
L 173.783807 216.553846 
L 185.056534 213.84 
L 196.329261 207.636923 
L 207.601989 206.086154 
L 218.874716 207.249231 
L 230.147443 199.883077 
L 241.42017 195.618462 
L 252.692898 185.150769 
L 263.965625 183.212308 
L 275.238352 182.824615 
L 286.51108 150.646154 
L 297.783807 149.483077 
L 309.056534 125.446154 
L 320.329261 127.384615 
L 331.601989 151.033846 
L 342.874716 166.153846 
L 354.147443 185.150769 
L 365.42017 198.72 
L 376.692898 206.473846 
L 387.965625 209.963077 
L 399.238352 210.350769 
L 410.51108 216.941538 
L 421.783807 215.778462 
L 433.056534 216.166154 
L 444.329261 216.941538 
L 455.601989 216.553846 
L 466.874716 213.452308 
L 478.147443 216.166154 
L 489.42017 217.329231 
L 500.692898 216.553846 
L 511.965625 218.104615 
L 523.238352 215.390769 
L 534.51108 217.329231 
L 545.783807 218.104615 
L 557.056534 217.716923 
L 568.329261 218.104615 
L 579.601989 218.88 
" clip-path="url(#p51c3473f75)" style="fill: none; stroke: #ff7f0e; stroke-width: 1.5; stroke-linecap: square"/>
   </g>
   <g id="line2d_38">
    <path d="M 173.783807 216.941538 
L 185.056534 216.166154 
L 196.329261 213.452308 
L 207.601989 211.126154 
L 218.874716 206.086154 
L 230.147443 205.698462 
L 241.42017 200.270769 
L 252.692898 189.803077 
L 263.965625 185.150769 
L 275.238352 184.763077 
L 286.51108 171.969231 
L 297.783807 166.153846 
L 309.056534 169.643077 
L 320.329261 139.403077 
L 331.601989 158.4 
L 342.874716 179.335385 
L 354.147443 188.252308 
L 365.42017 202.596923 
L 376.692898 209.575385 
L 387.965625 212.676923 
L 399.238352 215.003077 
L 410.51108 215.003077 
L 421.783807 213.064615 
L 433.056534 215.390769 
L 444.329261 217.716923 
L 455.601989 217.329231 
L 466.874716 217.716923 
L 478.147443 217.716923 
L 489.42017 217.329231 
L 500.692898 216.553846 
L 511.965625 218.492308 
L 523.238352 217.716923 
L 534.51108 218.104615 
L 545.783807 218.104615 
L 557.056534 218.492308 
L 568.329261 218.492308 
" clip-path="url(#p51c3473f75)" style="fill: none; stroke: #ff7f0e; stroke-width: 1.5; stroke-linecap: square"/>
   </g>
   <g id="line2d_39"/>
   <g id="line2d_40"/>
   <g id="patch_3">
    <path d="M 46.965625 228.96 
L 46.965625 7.2 
" style="fill: none; stroke: #000000; stroke-width: 0.8; stroke-linejoin: miter; stroke-linecap: square"/>
   </g>
   <g id="patch_4">
    <path d="M 46.965625 228.96 
L 604.965625 228.96 
" style="fill: none; stroke: #000000; stroke-width: 0.8; stroke-linejoin: miter; stroke-linecap: square"/>
   </g>
   <g id="legend_1">
    <g id="patch_5">
     <path d="M 509.046875 59.5125 
L 597.965625 59.5125 
Q 599.965625 59.5125 599.965625 57.5125 
L 599.965625 14.2 
Q 599.965625 12.2 597.965625 12.2 
L 509.046875 12.2 
Q 507.046875 12.2 507.046875 14.2 
L 507.046875 57.5125 
Q 507.046875 59.5125 509.046875 59.5125 
z
" style="fill: #ffffff; opacity: 0.8; stroke: #cccccc; stroke-linejoin: miter"/>
    </g>
    <g id="text_14">
     <!-- stage -->
     <g transform="translate(539.626562 23.798437) scale(0.1 -0.1)">
      <defs>
       <path id="DejaVuSans-74" d="M 1172 4494 
L 1172 3500 
L 2356 3500 
L 2356 3053 
L 1172 3053 
L 1172 1153 
Q 1172 725 1289 603 
Q 1406 481 1766 481 
L 2356 481 
L 2356 0 
L 1766 0 
Q 1100 0 847 248 
Q 594 497 594 1153 
L 594 3053 
L 172 3053 
L 172 3500 
L 594 3500 
L 594 4494 
L 1172 4494 
z
" transform="scale(0.015625)"/>
       <path id="DejaVuSans-67" d="M 2906 1791 
Q 2906 2416 2648 2759 
Q 2391 3103 1925 3103 
Q 1463 3103 1205 2759 
Q 947 2416 947 1791 
Q 947 1169 1205 825 
Q 1463 481 1925 481 
Q 2391 481 2648 825 
Q 2906 1169 2906 1791 
z
M 3481 434 
Q 3481 -459 3084 -895 
Q 2688 -1331 1869 -1331 
Q 1566 -1331 1297 -1286 
Q 1028 -1241 775 -1147 
L 775 -588 
Q 1028 -725 1275 -790 
Q 1522 -856 1778 -856 
Q 2344 -856 2625 -561 
Q 2906 -266 2906 331 
L 2906 616 
Q 2728 306 2450 153 
Q 2172 0 1784 0 
Q 1141 0 747 490 
Q 353 981 353 1791 
Q 353 2603 747 3093 
Q 1141 3584 1784 3584 
Q 2172 3584 2450 3431 
Q 2728 3278 2906 2969 
L 2906 3500 
L 3481 3500 
L 3481 434 
z
" transform="scale(0.015625)"/>
      </defs>
      <use xlink:href="#DejaVuSans-73"/>
      <use xlink:href="#DejaVuSans-74" x="52.099609"/>
      <use xlink:href="#DejaVuSans-61" x="91.308594"/>
      <use xlink:href="#DejaVuSans-67" x="152.587891"/>
      <use xlink:href="#DejaVuSans-65" x="216.064453"/>
     </g>
    </g>
    <g id="line2d_41">
     <path d="M 511.046875 34.976562 
L 521.046875 34.976562 
L 531.046875 34.976562 
" style="fill: none; stroke: #1f77b4; stroke-width: 1.5; stroke-linecap: square"/>
    </g>
    <g id="text_15">
     <!-- raw_concat -->
     <g transform="translate(539.046875 38.476562) scale(0.1 -0.1)">
      <defs>
       <path id="DejaVuSans-77" d="M 269 3500 
L 844 3500 
L 1563 769 
L 2278 3500 
L 2956 3500 
L 3675 769 
L 4391 3500 
L 4966 3500 
L 4050 0 
L 3372 0 
L 2619 2869 
L 1863 0 
L 1184 0 
L 269 3500 
z
" transform="scale(0.015625)"/>
      </defs>
      <use xlink:href="#DejaVuSans-72"/>
      <use xlink:href="#DejaVuSans-61" x="41.113281"/>
      <use xlink:href="#DejaVuSans-77" x="102.392578"/>
      <use xlink:href="#DejaVuSans-5f" x="184.179688"/>
      <use xlink:href="#DejaVuSans-63" x="234.179688"/>
      <use xlink:href="#DejaVuSans-6f" x="289.160156"/>
      <use xlink:href="#DejaVuSans-6e" x="350.341797"/>
      <use xlink:href="#DejaVuSans-63" x="413.720703"/>
      <use xlink:href="#DejaVuSans-61" x="468.701172"/>
      <use xlink:href="#DejaVuSans-74" x="529.980469"/>
     </g>
    </g>
    <g id="line2d_42">
     <path d="M 511.046875 49.932812 
L 521.046875 49.932812 
L 531.046875 49.932812 
" style="fill: none; stroke: #ff7f0e; stroke-width: 1.5; stroke-linecap: square"/>
    </g>
    <g id="text_16">
     <!-- cleaned -->
     <g transform="translate(539.046875 53.432812) scale(0.1 -0.1)">
      <defs>
       <path id="DejaVuSans-6c" d="M 603 4863 
L 1178 4863 
L 1178 0 
L 603 0 
L 603 4863 
z
" transform="scale(0.015625)"/>
      </defs>
      <use xlink:href="#DejaVuSans-63"/>
      <use xlink:href="#DejaVuSans-6c" x="54.980469"/>
      <use xlink:href="#DejaVuSans-65" x="82.763672"/>
      <use xlink:href="#DejaVuSans-61" x="144.287109"/>
      <use xlink:href="#DejaVuSans-6e" x="205.566406"/>
      <use xlink:href="#DejaVuSans-65" x="268.945312"/>
      <use xlink:href="#DejaVuSans-64" x="330.46875"/>
     </g>
    </g>
   </g>
  </g>
 </g>
 <defs>
  <clipPath id="p51c3473f75">
   <rect x="46.965625" y="7.2" width="558" height="221.76"/>
  </clipPath>
 </defs>
</svg>
