<?xml version="1.0" encoding="utf-8" standalone="no"?>
<!DOCTYPE svg PUBLIC "-//W3C//DTD SVG 1.1//EN"
  "http://www.w3.org/Graphics/SVG/1.1/DTD/svg11.dtd">
<svg xmlns:xlink="http://www.w3.org/1999/xlink" width="723.765625pt" height="281.634375pt" viewBox="0 0 723.765625 281.634375" xmlns="http://www.w3.org/2000/svg" version="1.1">
 <metadata>
  <rdf:RDF xmlns:dc="http://purl.org/dc/elements/1.1/" xmlns:cc="http://creativecommons.org/ns#" xmlns:rdf="http://www.w3.org/1999/02/22-rdf-syntax-ns#">
   <cc:Work>
    <dc:type rdf:resource="http://purl.org/dc/dcmitype/StillImage"/>
    <dc:date>2024-07-25T17:18:14.509172</dc:date>
    <dc:format>image/svg+xml</dc:format>
    <dc:creator>
     <cc:Agent>
      <dc:title>Matplotlib v3.8.1, https://matplotlib.org/</dc:title>
     </cc:Agent>
    </dc:creator>
   </cc:Work>
  </rdf:RDF>
 </metadata>
 <defs>
  <style type="text/css">*{stroke-linejoin: round; stroke-linecap: butt}</style>
 </defs>
 <g id="figure_1">
  <g id="patch_1">
   <path d="M 0 281.634375 
L 723.765625 281.634375 
L 723.765625 0 
L 0 0 
z
" style="fill: #ffffff"/>
  </g>
  <g id="axes_1">
   <g id="patch_2">
    <path d="M 46.965625 244.078125 
L 716.565625 244.078125 
L 716.565625 22.318125 
L 46.965625 22.318125 
z
" style="fill: #ffffff"/>
   </g>
   <g id="line2d_1">
    <path d="M 46.965625 244.078125 
L 716.565625 244.078125 
" clip-path="url(#p0148b3110b)" style="fill: none; stroke-dasharray: 1.85,0.8; stroke-dashoffset: 0; stroke: #808080; stroke-width: 0.5"/>
   </g>
   <g id="line2d_2">
    <path d="M 46.965625 212.398125 
L 716.565625 212.398125 
" clip-path="url(#p0148b3110b)" style="fill: none; stroke-dasharray: 1.85,0.8; stroke-dashoffset: 0; stroke: #808080; stroke-width: 0.5"/>
   </g>
   <g id="line2d_3">
    <path d="M 46.965625 180.718125 
L 716.565625 180.718125 
" clip-path="url(#p0148b3110b)" style="fill: none; stroke-dasharray: 1.85,0.8; stroke-dashoffset: 0; stroke: #808080; stroke-width: 0.5"/>
   </g>
   <g id="line2d_4">
    <path d="M 46.965625 149.038125 
L 716.565625 149.038125 
" clip-path="url(#p0148b3110b)" style="fill: none; stroke-dasharray: 1.85,0.8; stroke-dashoffset: 0; stroke: #808080; stroke-width: 0.5"/>
   </g>
   <g id="line2d_5">
    <path d="M 46.965625 117.358125 
L 716.565625 117.358125 
" clip-path="url(#p0148b3110b)" style="fill: none; stroke-dasharray: 1.85,0.8; stroke-dashoffset: 0; stroke: #808080; stroke-width: 0.5"/>
   </g>
   <g id="line2d_6">
    <path d="M 46.965625 85.678125 
L 716.565625 85.678125 
" clip-path="url(#p0148b3110b)" style="fill: none; stroke-dasharray: 1.85,0.8; stroke-dashoffset: 0; stroke: #808080; stroke-width: 0.5"/>
   </g>
   <g id="line2d_7">
    <path d="M 46.965625 53.998125 
L 716.565625 53.998125 
" clip-path="url(#p0148b3110b)" style="fill: none; stroke-dasharray: 1.85,0.8; stroke-dashoffset: 0; stroke: #808080; stroke-width: 0.5"/>
   </g>
   <g id="matplotlib.axis_1">
    <g id="xtick_1">
     <g id="line2d_8">
      <defs>
       <path id="m812e43b0bb" d="M 0 0 
L 0 3.5 
" style="stroke: #000000; stroke-width: 0.8"/>
      </defs>
      <g>
       <use xlink:href="#m812e43b0bb" x="96.829455" y="244.078125" style="stroke: #000000; stroke-width: 0.8"/>
      </g>
     </g>
     <g id="text_1">
      <!-- 01:00 -->
      <g transform="translate(82.42008 258.676562) scale(0.1 -0.1)">
       <defs>
        <path id="DejaVuSans-30" d="M 2034 4250 
Q 1547 4250 1301 3770 
Q 1056 3291 1056 2328 
Q 1056 1369 1301 889 
Q 1547 409 2034 409 
Q 2525 409 2770 889 
Q 3016 1369 3016 2328 
Q 3016 3291 2770 3770 
Q 2525 4250 2034 4250 
z
M 2034 4750 
Q 2819 4750 3233 4129 
Q 3647 3509 3647 2328 
Q 3647 1150 3233 529 
Q 2819 -91 2034 -91 
Q 1250 -91 836 529 
Q 422 1150 422 2328 
Q 422 3509 836 4129 
Q 1250 4750 2034 4750 
z
" transform="scale(0.015625)"/>
        <path id="DejaVuSans-31" d="M 794 531 
L 1825 531 
L 1825 4091 
L 703 3866 
L 703 4441 
L 1819 4666 
L 2450 4666 
L 2450 531 
L 3481 531 
L 3481 0 
L 794 0 
L 794 531 
z
" transform="scale(0.015625)"/>
        <path id="DejaVuSans-3a" d="M 750 794 
L 1409 794 
L 1409 0 
L 750 0 
L 750 794 
z
M 750 3309 
L 1409 3309 
L 1409 2516 
L 750 2516 
L 750 3309 
z
" transform="scale(0.015625)"/>
       </defs>
       <use xlink:href="#DejaVuSans-30"/>
       <use xlink:href="#DejaVuSans-31" x="63.623047"/>
       <use xlink:href="#DejaVuSans-3a" x="127.246094"/>
       <use xlink:href="#DejaVuSans-30" x="160.9375"/>
       <use xlink:href="#DejaVuSans-30" x="224.560547"/>
      </g>
     </g>
    </g>
    <g id="xtick_2">
     <g id="line2d_9">
      <g>
       <use xlink:href="#m812e43b0bb" x="148.636031" y="244.078125" style="stroke: #000000; stroke-width: 0.8"/>
      </g>
     </g>
     <g id="text_2">
      <!-- 03:00 -->
      <g transform="translate(134.226656 258.676562) scale(0.1 -0.1)">
       <defs>
        <path id="DejaVuSans-33" d="M 2597 2516 
Q 3050 2419 3304 2112 
Q 3559 1806 3559 1356 
Q 3559 666 3084 287 
Q 2609 -91 1734 -91 
Q 1441 -91 1130 -33 
Q 819 25 488 141 
L 488 750 
Q 750 597 1062 519 
Q 1375 441 1716 441 
Q 2309 441 2620 675 
Q 2931 909 2931 1356 
Q 2931 1769 2642 2001 
Q 2353 2234 1838 2234 
L 1294 2234 
L 1294 2753 
L 1863 2753 
Q 2328 2753 2575 2939 
Q 2822 3125 2822 3475 
Q 2822 3834 2567 4026 
Q 2313 4219 1838 4219 
Q 1578 4219 1281 4162 
Q 984 4106 628 3988 
L 628 4550 
Q 988 4650 1302 4700 
Q 1616 4750 1894 4750 
Q 2613 4750 3031 4423 
Q 3450 4097 3450 3541 
Q 3450 3153 3228 2886 
Q 3006 2619 2597 2516 
z
" transform="scale(0.015625)"/>
       </defs>
       <use xlink:href="#DejaVuSans-30"/>
       <use xlink:href="#DejaVuSans-33" x="63.623047"/>
       <use xlink:href="#DejaVuSans-3a" x="127.246094"/>
       <use xlink:href="#DejaVuSans-30" x="160.9375"/>
       <use xlink:href="#DejaVuSans-30" x="224.560547"/>
      </g>
     </g>
    </g>
    <g id="xtick_3">
     <g id="line2d_10">
      <g>
       <use xlink:href="#m812e43b0bb" x="200.442608" y="244.078125" style="stroke: #000000; stroke-width: 0.8"/>
      </g>
     </g>
     <g id="text_3">
      <!-- 05:00 -->
      <g transform="translate(186.033233 258.676562) scale(0.1 -0.1)">
       <defs>
        <path id="DejaVuSans-35" d="M 691 4666 
L 3169 4666 
L 3169 4134 
L 1269 4134 
L 1269 2991 
Q 1406 3038 1543 3061 
Q 1681 3084 1819 3084 
Q 2600 3084 3056 2656 
Q 3513 2228 3513 1497 
Q 3513 744 3044 326 
Q 2575 -91 1722 -91 
Q 1428 -91 1123 -41 
Q 819 9 494 109 
L 494 744 
Q 775 591 1075 516 
Q 1375 441 1709 441 
Q 2250 441 2565 725 
Q 2881 1009 2881 1497 
Q 2881 1984 2565 2268 
Q 2250 2553 1709 2553 
Q 1456 2553 1204 2497 
Q 953 2441 691 2322 
L 691 4666 
z
" transform="scale(0.015625)"/>
       </defs>
       <use xlink:href="#DejaVuSans-30"/>
       <use xlink:href="#DejaVuSans-35" x="63.623047"/>
       <use xlink:href="#DejaVuSans-3a" x="127.246094"/>
       <use xlink:href="#DejaVuSans-30" x="160.9375"/>
       <use xlink:href="#DejaVuSans-30" x="224.560547"/>
      </g>
     </g>
    </g>
    <g id="xtick_4">
     <g id="line2d_11">
      <g>
       <use xlink:href="#m812e43b0bb" x="252.249184" y="244.078125" style="stroke: #000000; stroke-width: 0.8"/>
      </g>
     </g>
     <g id="text_4">
      <!-- 07:00 -->
      <g transform="translate(237.839809 258.676562) scale(0.1 -0.1)">
       <defs>
        <path id="DejaVuSans-37" d="M 525 4666 
L 3525 4666 
L 3525 4397 
L 1831 0 
L 1172 0 
L 2766 4134 
L 525 4134 
L 525 4666 
z
" transform="scale(0.015625)"/>
       </defs>
       <use xlink:href="#DejaVuSans-30"/>
       <use xlink:href="#DejaVuSans-37" x="63.623047"/>
       <use xlink:href="#DejaVuSans-3a" x="127.246094"/>
       <use xlink:href="#DejaVuSans-30" x="160.9375"/>
       <use xlink:href="#DejaVuSans-30" x="224.560547"/>
      </g>
     </g>
    </g>
    <g id="xtick_5">
     <g id="line2d_12">
      <g>
       <use xlink:href="#m812e43b0bb" x="304.05576" y="244.078125" style="stroke: #000000; stroke-width: 0.8"/>
      </g>
     </g>
     <g id="text_5">
      <!-- 09:00 -->
      <g transform="translate(289.646385 258.676562) scale(0.1 -0.1)">
       <defs>
        <path id="DejaVuSans-39" d="M 703 97 
L 703 672 
Q 941 559 1184 500 
Q 1428 441 1663 441 
Q 2288 441 2617 861 
Q 2947 1281 2994 2138 
Q 2813 1869 2534 1725 
Q 2256 1581 1919 1581 
Q 1219 1581 811 2004 
Q 403 2428 403 3163 
Q 403 3881 828 4315 
Q 1253 4750 1959 4750 
Q 2769 4750 3195 4129 
Q 3622 3509 3622 2328 
Q 3622 1225 3098 567 
Q 2575 -91 1691 -91 
Q 1453 -91 1209 -44 
Q 966 3 703 97 
z
M 1959 2075 
Q 2384 2075 2632 2365 
Q 2881 2656 2881 3163 
Q 2881 3666 2632 3958 
Q 2384 4250 1959 4250 
Q 1534 4250 1286 3958 
Q 1038 3666 1038 3163 
Q 1038 2656 1286 2365 
Q 1534 2075 1959 2075 
z
" transform="scale(0.015625)"/>
       </defs>
       <use xlink:href="#DejaVuSans-30"/>
       <use xlink:href="#DejaVuSans-39" x="63.623047"/>
       <use xlink:href="#DejaVuSans-3a" x="127.246094"/>
       <use xlink:href="#DejaVuSans-30" x="160.9375"/>
       <use xlink:href="#DejaVuSans-30" x="224.560547"/>
      </g>
     </g>
    </g>
    <g id="xtick_6">
     <g id="line2d_13">
      <g>
       <use xlink:href="#m812e43b0bb" x="355.862337" y="244.078125" style="stroke: #000000; stroke-width: 0.8"/>
      </g>
     </g>
     <g id="text_6">
      <!-- 11:00 -->
      <g transform="translate(341.452962 258.676562) scale(0.1 -0.1)">
       <use xlink:href="#DejaVuSans-31"/>
       <use xlink:href="#DejaVuSans-31" x="63.623047"/>
       <use xlink:href="#DejaVuSans-3a" x="127.246094"/>
       <use xlink:href="#DejaVuSans-30" x="160.9375"/>
       <use xlink:href="#DejaVuSans-30" x="224.560547"/>
      </g>
     </g>
    </g>
    <g id="xtick_7">
     <g id="line2d_14">
      <g>
       <use xlink:href="#m812e43b0bb" x="407.668913" y="244.078125" style="stroke: #000000; stroke-width: 0.8"/>
      </g>
     </g>
     <g id="text_7">
      <!-- 13:00 -->
      <g transform="translate(393.259538 258.676562) scale(0.1 -0.1)">
       <use xlink:href="#DejaVuSans-31"/>
       <use xlink:href="#DejaVuSans-33" x="63.623047"/>
       <use xlink:href="#DejaVuSans-3a" x="127.246094"/>
       <use xlink:href="#DejaVuSans-30" x="160.9375"/>
       <use xlink:href="#DejaVuSans-30" x="224.560547"/>
      </g>
     </g>
    </g>
    <g id="xtick_8">
     <g id="line2d_15">
      <g>
       <use xlink:href="#m812e43b0bb" x="459.47549" y="244.078125" style="stroke: #000000; stroke-width: 0.8"/>
      </g>
     </g>
     <g id="text_8">
      <!-- 15:00 -->
      <g transform="translate(445.066115 258.676562) scale(0.1 -0.1)">
       <use xlink:href="#DejaVuSans-31"/>
       <use xlink:href="#DejaVuSans-35" x="63.623047"/>
       <use xlink:href="#DejaVuSans-3a" x="127.246094"/>
       <use xlink:href="#DejaVuSans-30" x="160.9375"/>
       <use xlink:href="#DejaVuSans-30" x="224.560547"/>
      </g>
     </g>
    </g>
    <g id="xtick_9">
     <g id="line2d_16">
      <g>
       <use xlink:href="#m812e43b0bb" x="511.282066" y="244.078125" style="stroke: #000000; stroke-width: 0.8"/>
      </g>
     </g>
     <g id="text_9">
      <!-- 17:00 -->
      <g transform="translate(496.872691 258.676562) scale(0.1 -0.1)">
       <use xlink:href="#DejaVuSans-31"/>
       <use xlink:href="#DejaVuSans-37" x="63.623047"/>
       <use xlink:href="#DejaVuSans-3a" x="127.246094"/>
       <use xlink:href="#DejaVuSans-30" x="160.9375"/>
       <use xlink:href="#DejaVuSans-30" x="224.560547"/>
      </g>
     </g>
    </g>
    <g id="xtick_10">
     <g id="line2d_17">
      <g>
       <use xlink:href="#m812e43b0bb" x="563.088642" y="244.078125" style="stroke: #000000; stroke-width: 0.8"/>
      </g>
     </g>
     <g id="text_10">
      <!-- 19:00 -->
      <g transform="translate(548.679267 258.676562) scale(0.1 -0.1)">
       <use xlink:href="#DejaVuSans-31"/>
       <use xlink:href="#DejaVuSans-39" x="63.623047"/>
       <use xlink:href="#DejaVuSans-3a" x="127.246094"/>
       <use xlink:href="#DejaVuSans-30" x="160.9375"/>
       <use xlink:href="#DejaVuSans-30" x="224.560547"/>
      </g>
     </g>
    </g>
    <g id="xtick_11">
     <g id="line2d_18">
      <g>
       <use xlink:href="#m812e43b0bb" x="614.895219" y="244.078125" style="stroke: #000000; stroke-width: 0.8"/>
      </g>
     </g>
     <g id="text_11">
      <!-- 21:00 -->
      <g transform="translate(600.485844 258.676562) scale(0.1 -0.1)">
       <defs>
        <path id="DejaVuSans-32" d="M 1228 531 
L 3431 531 
L 3431 0 
L 469 0 
L 469 531 
Q 828 903 1448 1529 
Q 2069 2156 2228 2338 
Q 2531 2678 2651 2914 
Q 2772 3150 2772 3378 
Q 2772 3750 2511 3984 
Q 2250 4219 1831 4219 
Q 1534 4219 1204 4116 
Q 875 4013 500 3803 
L 500 4441 
Q 881 4594 1212 4672 
Q 1544 4750 1819 4750 
Q 2544 4750 2975 4387 
Q 3406 4025 3406 3419 
Q 3406 3131 3298 2873 
Q 3191 2616 2906 2266 
Q 2828 2175 2409 1742 
Q 1991 1309 1228 531 
z
" transform="scale(0.015625)"/>
       </defs>
       <use xlink:href="#DejaVuSans-32"/>
       <use xlink:href="#DejaVuSans-31" x="63.623047"/>
       <use xlink:href="#DejaVuSans-3a" x="127.246094"/>
       <use xlink:href="#DejaVuSans-30" x="160.9375"/>
       <use xlink:href="#DejaVuSans-30" x="224.560547"/>
      </g>
     </g>
    </g>
    <g id="xtick_12">
     <g id="line2d_19">
      <g>
       <use xlink:href="#m812e43b0bb" x="666.701795" y="244.078125" style="stroke: #000000; stroke-width: 0.8"/>
      </g>
     </g>
     <g id="text_12">
      <!-- 23:00 -->
      <g transform="translate(652.29242 258.676562) scale(0.1 -0.1)">
       <use xlink:href="#DejaVuSans-32"/>
       <use xlink:href="#DejaVuSans-33" x="63.623047"/>
       <use xlink:href="#DejaVuSans-3a" x="127.246094"/>
       <use xlink:href="#DejaVuSans-30" x="160.9375"/>
       <use xlink:href="#DejaVuSans-30" x="224.560547"/>
      </g>
     </g>
    </g>
    <g id="text_13">
     <!-- Time of day -->
     <g transform="translate(352.336719 272.354687) scale(0.1 -0.1)">
      <defs>
       <path id="DejaVuSans-54" d="M -19 4666 
L 3928 4666 
L 3928 4134 
L 2272 4134 
L 2272 0 
L 1638 0 
L 1638 4134 
L -19 4134 
L -19 4666 
z
" transform="scale(0.015625)"/>
       <path id="DejaVuSans-69" d="M 603 3500 
L 1178 3500 
L 1178 0 
L 603 0 
L 603 3500 
z
M 603 4863 
L 1178 4863 
L 1178 4134 
L 603 4134 
L 603 4863 
z
" transform="scale(0.015625)"/>
       <path id="DejaVuSans-6d" d="M 3328 2828 
Q 3544 3216 3844 3400 
Q 4144 3584 4550 3584 
Q 5097 3584 5394 3201 
Q 5691 2819 5691 2113 
L 5691 0 
L 5113 0 
L 5113 2094 
Q 5113 2597 4934 2840 
Q 4756 3084 4391 3084 
Q 3944 3084 3684 2787 
Q 3425 2491 3425 1978 
L 3425 0 
L 2847 0 
L 2847 2094 
Q 2847 2600 2669 2842 
Q 2491 3084 2119 3084 
Q 1678 3084 1418 2786 
Q 1159 2488 1159 1978 
L 1159 0 
L 581 0 
L 581 3500 
L 1159 3500 
L 1159 2956 
Q 1356 3278 1631 3431 
Q 1906 3584 2284 3584 
Q 2666 3584 2933 3390 
Q 3200 3197 3328 2828 
z
" transform="scale(0.015625)"/>
       <path id="DejaVuSans-65" d="M 3597 1894 
L 3597 1613 
L 953 1613 
Q 991 1019 1311 708 
Q 1631 397 2203 397 
Q 2534 397 2845 478 
Q 3156 559 3463 722 
L 3463 178 
Q 3153 47 2828 -22 
Q 2503 -91 2169 -91 
Q 1331 -91 842 396 
Q 353 884 353 1716 
Q 353 2575 817 3079 
Q 1281 3584 2069 3584 
Q 2775 3584 3186 3129 
Q 3597 2675 3597 1894 
z
M 3022 2063 
Q 3016 2534 2758 2815 
Q 2500 3097 2075 3097 
Q 1594 3097 1305 2825 
Q 1016 2553 972 2059 
L 3022 2063 
z
" transform="scale(0.015625)"/>
       <path id="DejaVuSans-20" transform="scale(0.015625)"/>
       <path id="DejaVuSans-6f" d="M 1959 3097 
Q 1497 3097 1228 2736 
Q 959 2375 959 1747 
Q 959 1119 1226 758 
Q 1494 397 1959 397 
Q 2419 397 2687 759 
Q 2956 1122 2956 1747 
Q 2956 2369 2687 2733 
Q 2419 3097 1959 3097 
z
M 1959 3584 
Q 2709 3584 3137 3096 
Q 3566 2609 3566 1747 
Q 3566 888 3137 398 
Q 2709 -91 1959 -91 
Q 1206 -91 779 398 
Q 353 888 353 1747 
Q 353 2609 779 3096 
Q 1206 3584 1959 3584 
z
" transform="scale(0.015625)"/>
       <path id="DejaVuSans-66" d="M 2375 4863 
L 2375 4384 
L 1825 4384 
Q 1516 4384 1395 4259 
Q 1275 4134 1275 3809 
L 1275 3500 
L 2222 3500 
L 2222 3053 
L 1275 3053 
L 1275 0 
L 697 0 
L 697 3053 
L 147 3053 
L 147 3500 
L 697 3500 
L 697 3744 
Q 697 4328 969 4595 
Q 1241 4863 1831 4863 
L 2375 4863 
z
" transform="scale(0.015625)"/>
       <path id="DejaVuSans-64" d="M 2906 2969 
L 2906 4863 
L 3481 4863 
L 3481 0 
L 2906 0 
L 2906 525 
Q 2725 213 2448 61 
Q 2172 -91 1784 -91 
Q 1150 -91 751 415 
Q 353 922 353 1747 
Q 353 2572 751 3078 
Q 1150 3584 1784 3584 
Q 2172 3584 2448 3432 
Q 2725 3281 2906 2969 
z
M 947 1747 
Q 947 1113 1208 752 
Q 1469 391 1925 391 
Q 2381 391 2643 752 
Q 2906 1113 2906 1747 
Q 2906 2381 2643 2742 
Q 2381 3103 1925 3103 
Q 1469 3103 1208 2742 
Q 947 2381 947 1747 
z
" transform="scale(0.015625)"/>
       <path id="DejaVuSans-61" d="M 2194 1759 
Q 1497 1759 1228 1600 
Q 959 1441 959 1056 
Q 959 750 1161 570 
Q 1363 391 1709 391 
Q 2188 391 2477 730 
Q 2766 1069 2766 1631 
L 2766 1759 
L 2194 1759 
z
M 3341 1997 
L 3341 0 
L 2766 0 
L 2766 531 
Q 2569 213 2275 61 
Q 1981 -91 1556 -91 
Q 1019 -91 701 211 
Q 384 513 384 1019 
Q 384 1609 779 1909 
Q 1175 2209 1959 2209 
L 2766 2209 
L 2766 2266 
Q 2766 2663 2505 2880 
Q 2244 3097 1772 3097 
Q 1472 3097 1187 3025 
Q 903 2953 641 2809 
L 641 3341 
Q 956 3463 1253 3523 
Q 1550 3584 1831 3584 
Q 2591 3584 2966 3190 
Q 3341 2797 3341 1997 
z
" transform="scale(0.015625)"/>
       <path id="DejaVuSans-79" d="M 2059 -325 
Q 1816 -950 1584 -1140 
Q 1353 -1331 966 -1331 
L 506 -1331 
L 506 -850 
L 844 -850 
Q 1081 -850 1212 -737 
Q 1344 -625 1503 -206 
L 1606 56 
L 191 3500 
L 800 3500 
L 1894 763 
L 2988 3500 
L 3597 3500 
L 2059 -325 
z
" transform="scale(0.015625)"/>
      </defs>
      <use xlink:href="#DejaVuSans-54"/>
      <use xlink:href="#DejaVuSans-69" x="57.958984"/>
      <use xlink:href="#DejaVuSans-6d" x="85.742188"/>
      <use xlink:href="#DejaVuSans-65" x="183.154297"/>
      <use xlink:href="#DejaVuSans-20" x="244.677734"/>
      <use xlink:href="#DejaVuSans-6f" x="276.464844"/>
      <use xlink:href="#DejaVuSans-66" x="337.646484"/>
      <use xlink:href="#DejaVuSans-20" x="372.851562"/>
      <use xlink:href="#DejaVuSans-64" x="404.638672"/>
      <use xlink:href="#DejaVuSans-61" x="468.115234"/>
      <use xlink:href="#DejaVuSans-79" x="529.394531"/>
     </g>
    </g>
   </g>
   <g id="matplotlib.axis_2">
    <g id="ytick_1">
     <g id="line2d_20">
      <defs>
       <path id="m7d02990776" d="M 0 0 
L -3.5 0 
" style="stroke: #000000; stroke-width: 0.8"/>
      </defs>
      <g>
       <use xlink:href="#m7d02990776" x="46.965625" y="244.078125" style="stroke: #000000; stroke-width: 0.8"/>
      </g>
     </g>
     <g id="text_14">
      <!-- 0 -->
      <g transform="translate(33.603125 247.877344) scale(0.1 -0.1)">
       <use xlink:href="#DejaVuSans-30"/>
      </g>
     </g>
    </g>
    <g id="ytick_2">
     <g id="line2d_21">
      <g>
       <use xlink:href="#m7d02990776" x="46.965625" y="212.398125" style="stroke: #000000; stroke-width: 0.8"/>
      </g>
     </g>
     <g id="text_15">
      <!-- 100 -->
      <g transform="translate(20.878125 216.197344) scale(0.1 -0.1)">
       <use xlink:href="#DejaVuSans-31"/>
       <use xlink:href="#DejaVuSans-30" x="63.623047"/>
       <use xlink:href="#DejaVuSans-30" x="127.246094"/>
      </g>
     </g>
    </g>
    <g id="ytick_3">
     <g id="line2d_22">
      <g>
       <use xlink:href="#m7d02990776" x="46.965625" y="180.718125" style="stroke: #000000; stroke-width: 0.8"/>
      </g>
     </g>
     <g id="text_16">
      <!-- 200 -->
      <g transform="translate(20.878125 184.517344) scale(0.1 -0.1)">
       <use xlink:href="#DejaVuSans-32"/>
       <use xlink:href="#DejaVuSans-30" x="63.623047"/>
       <use xlink:href="#DejaVuSans-30" x="127.246094"/>
      </g>
     </g>
    </g>
    <g id="ytick_4">
     <g id="line2d_23">
      <g>
       <use xlink:href="#m7d02990776" x="46.965625" y="149.038125" style="stroke: #000000; stroke-width: 0.8"/>
      </g>
     </g>
     <g id="text_17">
      <!-- 300 -->
      <g transform="translate(20.878125 152.837344) scale(0.1 -0.1)">
       <use xlink:href="#DejaVuSans-33"/>
       <use xlink:href="#DejaVuSans-30" x="63.623047"/>
       <use xlink:href="#DejaVuSans-30" x="127.246094"/>
      </g>
     </g>
    </g>
    <g id="ytick_5">
     <g id="line2d_24">
      <g>
       <use xlink:href="#m7d02990776" x="46.965625" y="117.358125" style="stroke: #000000; stroke-width: 0.8"/>
      </g>
     </g>
     <g id="text_18">
      <!-- 400 -->
      <g transform="translate(20.878125 121.157344) scale(0.1 -0.1)">
       <defs>
        <path id="DejaVuSans-34" d="M 2419 4116 
L 825 1625 
L 2419 1625 
L 2419 4116 
z
M 2253 4666 
L 3047 4666 
L 3047 1625 
L 3713 1625 
L 3713 1100 
L 3047 1100 
L 3047 0 
L 2419 0 
L 2419 1100 
L 313 1100 
L 313 1709 
L 2253 4666 
z
" transform="scale(0.015625)"/>
       </defs>
       <use xlink:href="#DejaVuSans-34"/>
       <use xlink:href="#DejaVuSans-30" x="63.623047"/>
       <use xlink:href="#DejaVuSans-30" x="127.246094"/>
      </g>
     </g>
    </g>
    <g id="ytick_6">
     <g id="line2d_25">
      <g>
       <use xlink:href="#m7d02990776" x="46.965625" y="85.678125" style="stroke: #000000; stroke-width: 0.8"/>
      </g>
     </g>
     <g id="text_19">
      <!-- 500 -->
      <g transform="translate(20.878125 89.477344) scale(0.1 -0.1)">
       <use xlink:href="#DejaVuSans-35"/>
       <use xlink:href="#DejaVuSans-30" x="63.623047"/>
       <use xlink:href="#DejaVuSans-30" x="127.246094"/>
      </g>
     </g>
    </g>
    <g id="ytick_7">
     <g id="line2d_26">
      <g>
       <use xlink:href="#m7d02990776" x="46.965625" y="53.998125" style="stroke: #000000; stroke-width: 0.8"/>
      </g>
     </g>
     <g id="text_20">
      <!-- 600 -->
      <g transform="translate(20.878125 57.797344) scale(0.1 -0.1)">
       <defs>
        <path id="DejaVuSans-36" d="M 2113 2584 
Q 1688 2584 1439 2293 
Q 1191 2003 1191 1497 
Q 1191 994 1439 701 
Q 1688 409 2113 409 
Q 2538 409 2786 701 
Q 3034 994 3034 1497 
Q 3034 2003 2786 2293 
Q 2538 2584 2113 2584 
z
M 3366 4563 
L 3366 3988 
Q 3128 4100 2886 4159 
Q 2644 4219 2406 4219 
Q 1781 4219 1451 3797 
Q 1122 3375 1075 2522 
Q 1259 2794 1537 2939 
Q 1816 3084 2150 3084 
Q 2853 3084 3261 2657 
Q 3669 2231 3669 1497 
Q 3669 778 3244 343 
Q 2819 -91 2113 -91 
Q 1303 -91 875 529 
Q 447 1150 447 2328 
Q 447 3434 972 4092 
Q 1497 4750 2381 4750 
Q 2619 4750 2861 4703 
Q 3103 4656 3366 4563 
z
" transform="scale(0.015625)"/>
       </defs>
       <use xlink:href="#DejaVuSans-36"/>
       <use xlink:href="#DejaVuSans-30" x="63.623047"/>
       <use xlink:href="#DejaVuSans-30" x="127.246094"/>
      </g>
     </g>
    </g>
    <g id="ytick_8">
     <g id="line2d_27">
      <g>
       <use xlink:href="#m7d02990776" x="46.965625" y="22.318125" style="stroke: #000000; stroke-width: 0.8"/>
      </g>
     </g>
     <g id="text_21">
      <!-- 700 -->
      <g transform="translate(20.878125 26.117344) scale(0.1 -0.1)">
       <use xlink:href="#DejaVuSans-37"/>
       <use xlink:href="#DejaVuSans-30" x="63.623047"/>
       <use xlink:href="#DejaVuSans-30" x="127.246094"/>
      </g>
     </g>
    </g>
    <g id="text_22">
     <!-- Number of passengers per half-hour -->
     <g transform="translate(14.798438 223.733281) rotate(-90) scale(0.1 -0.1)">
      <defs>
       <path id="DejaVuSans-4e" d="M 628 4666 
L 1478 4666 
L 3547 763 
L 3547 4666 
L 4159 4666 
L 4159 0 
L 3309 0 
L 1241 3903 
L 1241 0 
L 628 0 
L 628 4666 
z
" transform="scale(0.015625)"/>
       <path id="DejaVuSans-75" d="M 544 1381 
L 544 3500 
L 1119 3500 
L 1119 1403 
Q 1119 906 1312 657 
Q 1506 409 1894 409 
Q 2359 409 2629 706 
Q 2900 1003 2900 1516 
L 2900 3500 
L 3475 3500 
L 3475 0 
L 2900 0 
L 2900 538 
Q 2691 219 2414 64 
Q 2138 -91 1772 -91 
Q 1169 -91 856 284 
Q 544 659 544 1381 
z
M 1991 3584 
L 1991 3584 
z
" transform="scale(0.015625)"/>
       <path id="DejaVuSans-62" d="M 3116 1747 
Q 3116 2381 2855 2742 
Q 2594 3103 2138 3103 
Q 1681 3103 1420 2742 
Q 1159 2381 1159 1747 
Q 1159 1113 1420 752 
Q 1681 391 2138 391 
Q 2594 391 2855 752 
Q 3116 1113 3116 1747 
z
M 1159 2969 
Q 1341 3281 1617 3432 
Q 1894 3584 2278 3584 
Q 2916 3584 3314 3078 
Q 3713 2572 3713 1747 
Q 3713 922 3314 415 
Q 2916 -91 2278 -91 
Q 1894 -91 1617 61 
Q 1341 213 1159 525 
L 1159 0 
L 581 0 
L 581 4863 
L 1159 4863 
L 1159 2969 
z
" transform="scale(0.015625)"/>
       <path id="DejaVuSans-72" d="M 2631 2963 
Q 2534 3019 2420 3045 
Q 2306 3072 2169 3072 
Q 1681 3072 1420 2755 
Q 1159 2438 1159 1844 
L 1159 0 
L 581 0 
L 581 3500 
L 1159 3500 
L 1159 2956 
Q 1341 3275 1631 3429 
Q 1922 3584 2338 3584 
Q 2397 3584 2469 3576 
Q 2541 3569 2628 3553 
L 2631 2963 
z
" transform="scale(0.015625)"/>
       <path id="DejaVuSans-70" d="M 1159 525 
L 1159 -1331 
L 581 -1331 
L 581 3500 
L 1159 3500 
L 1159 2969 
Q 1341 3281 1617 3432 
Q 1894 3584 2278 3584 
Q 2916 3584 3314 3078 
Q 3713 2572 3713 1747 
Q 3713 922 3314 415 
Q 2916 -91 2278 -91 
Q 1894 -91 1617 61 
Q 1341 213 1159 525 
z
M 3116 1747 
Q 3116 2381 2855 2742 
Q 2594 3103 2138 3103 
Q 1681 3103 1420 2742 
Q 1159 2381 1159 1747 
Q 1159 1113 1420 752 
Q 1681 391 2138 391 
Q 2594 391 2855 752 
Q 3116 1113 3116 1747 
z
" transform="scale(0.015625)"/>
       <path id="DejaVuSans-73" d="M 2834 3397 
L 2834 2853 
Q 2591 2978 2328 3040 
Q 2066 3103 1784 3103 
Q 1356 3103 1142 2972 
Q 928 2841 928 2578 
Q 928 2378 1081 2264 
Q 1234 2150 1697 2047 
L 1894 2003 
Q 2506 1872 2764 1633 
Q 3022 1394 3022 966 
Q 3022 478 2636 193 
Q 2250 -91 1575 -91 
Q 1294 -91 989 -36 
Q 684 19 347 128 
L 347 722 
Q 666 556 975 473 
Q 1284 391 1588 391 
Q 1994 391 2212 530 
Q 2431 669 2431 922 
Q 2431 1156 2273 1281 
Q 2116 1406 1581 1522 
L 1381 1569 
Q 847 1681 609 1914 
Q 372 2147 372 2553 
Q 372 3047 722 3315 
Q 1072 3584 1716 3584 
Q 2034 3584 2315 3537 
Q 2597 3491 2834 3397 
z
" transform="scale(0.015625)"/>
       <path id="DejaVuSans-6e" d="M 3513 2113 
L 3513 0 
L 2938 0 
L 2938 2094 
Q 2938 2591 2744 2837 
Q 2550 3084 2163 3084 
Q 1697 3084 1428 2787 
Q 1159 2491 1159 1978 
L 1159 0 
L 581 0 
L 581 3500 
L 1159 3500 
L 1159 2956 
Q 1366 3272 1645 3428 
Q 1925 3584 2291 3584 
Q 2894 3584 3203 3211 
Q 3513 2838 3513 2113 
z
" transform="scale(0.015625)"/>
       <path id="DejaVuSans-67" d="M 2906 1791 
Q 2906 2416 2648 2759 
Q 2391 3103 1925 3103 
Q 1463 3103 1205 2759 
Q 947 2416 947 1791 
Q 947 1169 1205 825 
Q 1463 481 1925 481 
Q 2391 481 2648 825 
Q 2906 1169 2906 1791 
z
M 3481 434 
Q 3481 -459 3084 -895 
Q 2688 -1331 1869 -1331 
Q 1566 -1331 1297 -1286 
Q 1028 -1241 775 -1147 
L 775 -588 
Q 1028 -725 1275 -790 
Q 1522 -856 1778 -856 
Q 2344 -856 2625 -561 
Q 2906 -266 2906 331 
L 2906 616 
Q 2728 306 2450 153 
Q 2172 0 1784 0 
Q 1141 0 747 490 
Q 353 981 353 1791 
Q 353 2603 747 3093 
Q 1141 3584 1784 3584 
Q 2172 3584 2450 3431 
Q 2728 3278 2906 2969 
L 2906 3500 
L 3481 3500 
L 3481 434 
z
" transform="scale(0.015625)"/>
       <path id="DejaVuSans-68" d="M 3513 2113 
L 3513 0 
L 2938 0 
L 2938 2094 
Q 2938 2591 2744 2837 
Q 2550 3084 2163 3084 
Q 1697 3084 1428 2787 
Q 1159 2491 1159 1978 
L 1159 0 
L 581 0 
L 581 4863 
L 1159 4863 
L 1159 2956 
Q 1366 3272 1645 3428 
Q 1925 3584 2291 3584 
Q 2894 3584 3203 3211 
Q 3513 2838 3513 2113 
z
" transform="scale(0.015625)"/>
       <path id="DejaVuSans-6c" d="M 603 4863 
L 1178 4863 
L 1178 0 
L 603 0 
L 603 4863 
z
" transform="scale(0.015625)"/>
       <path id="DejaVuSans-2d" d="M 313 2009 
L 1997 2009 
L 1997 1497 
L 313 1497 
L 313 2009 
z
" transform="scale(0.015625)"/>
      </defs>
      <use xlink:href="#DejaVuSans-4e"/>
      <use xlink:href="#DejaVuSans-75" x="74.804688"/>
      <use xlink:href="#DejaVuSans-6d" x="138.183594"/>
      <use xlink:href="#DejaVuSans-62" x="235.595703"/>
      <use xlink:href="#DejaVuSans-65" x="299.072266"/>
      <use xlink:href="#DejaVuSans-72" x="360.595703"/>
      <use xlink:href="#DejaVuSans-20" x="401.708984"/>
      <use xlink:href="#DejaVuSans-6f" x="433.496094"/>
      <use xlink:href="#DejaVuSans-66" x="494.677734"/>
      <use xlink:href="#DejaVuSans-20" x="529.882812"/>
      <use xlink:href="#DejaVuSans-70" x="561.669922"/>
      <use xlink:href="#DejaVuSans-61" x="625.146484"/>
      <use xlink:href="#DejaVuSans-73" x="686.425781"/>
      <use xlink:href="#DejaVuSans-73" x="738.525391"/>
      <use xlink:href="#DejaVuSans-65" x="790.625"/>
      <use xlink:href="#DejaVuSans-6e" x="852.148438"/>
      <use xlink:href="#DejaVuSans-67" x="915.527344"/>
      <use xlink:href="#DejaVuSans-65" x="979.003906"/>
      <use xlink:href="#DejaVuSans-72" x="1040.527344"/>
      <use xlink:href="#DejaVuSans-73" x="1081.640625"/>
      <use xlink:href="#DejaVuSans-20" x="1133.740234"/>
      <use xlink:href="#DejaVuSans-70" x="1165.527344"/>
      <use xlink:href="#DejaVuSans-65" x="1229.003906"/>
      <use xlink:href="#DejaVuSans-72" x="1290.527344"/>
      <use xlink:href="#DejaVuSans-20" x="1331.640625"/>
      <use xlink:href="#DejaVuSans-68" x="1363.427734"/>
      <use xlink:href="#DejaVuSans-61" x="1426.806641"/>
      <use xlink:href="#DejaVuSans-6c" x="1488.085938"/>
      <use xlink:href="#DejaVuSans-66" x="1515.869141"/>
      <use xlink:href="#DejaVuSans-2d" x="1545.574219"/>
      <use xlink:href="#DejaVuSans-68" x="1581.658203"/>
      <use xlink:href="#DejaVuSans-6f" x="1645.037109"/>
      <use xlink:href="#DejaVuSans-75" x="1706.21875"/>
      <use xlink:href="#DejaVuSans-72" x="1769.597656"/>
     </g>
    </g>
   </g>
   <g id="line2d_28">
    <path d="M 77.401989 228.040125 
L 90.353633 237.631934 
L 103.305277 242.394083 
L 116.256921 243.550125 
L 129.208565 243.602925 
L 193.966786 243.655725 
L 206.91843 241.777882 
L 219.870074 238.481325 
L 232.821718 229.478925 
L 245.773362 227.578125 
L 258.725006 210.695325 
L 271.67665 199.548717 
L 284.628294 199.052925 
L 297.579938 198.775725 
L 310.531582 213.957756 
L 323.483227 211.738125 
L 336.434871 216.780525 
L 349.386515 213.458187 
L 362.338159 213.601965 
L 375.289803 210.091821 
L 388.241447 196.426125 
L 401.193091 191.071149 
L 414.144735 189.335085 
L 427.096379 185.377725 
L 440.048023 181.790371 
L 452.999668 175.205805 
L 465.951312 152.866125 
L 478.902956 159.783981 
L 491.8546 139.850925 
L 504.806244 123.773325 
L 517.757888 107.342371 
L 530.709532 136.188717 
L 543.661176 148.784685 
L 556.61282 170.012925 
L 569.564464 171.280125 
L 582.516109 186.050925 
L 595.467753 200.542494 
L 608.419397 205.283325 
L 621.371041 202.298541 
L 634.322685 206.761725 
L 647.274329 202.141725 
L 660.225973 207.037869 
L 673.177617 204.240525 
L 686.129261 217.742403 
" clip-path="url(#p0148b3110b)" style="fill: none; stroke: #1f77b4; stroke-width: 1.5; stroke-linecap: square"/>
   </g>
   <g id="line2d_29">
    <path d="M 77.401989 237.900842 
L 90.353633 241.649219 
L 103.305277 242.819009 
L 116.256921 243.748257 
L 129.208565 243.519981 
L 142.160209 243.478015 
L 155.111853 243.754989 
L 168.063497 243.893476 
L 181.015141 243.881935 
L 193.966786 241.891571 
L 206.91843 234.249405 
L 219.870074 232.628339 
L 232.821718 227.512019 
L 245.773362 228.330631 
L 258.725006 227.705901 
L 271.67665 226.628781 
L 284.628294 226.467213 
L 297.579938 225.890954 
L 310.531582 228.831491 
L 323.483227 227.237354 
L 336.434871 228.082893 
L 349.386515 227.652045 
L 362.338159 227.221197 
L 375.289803 223.192768 
L 388.241447 222.514183 
L 401.193091 219.745984 
L 414.144735 220.322243 
L 427.096379 217.225523 
L 440.048023 215.475203 
L 452.999668 212.233072 
L 465.951312 211.85608 
L 478.902956 212.141517 
L 491.8546 209.168666 
L 504.806244 208.226186 
L 517.757888 205.129466 
L 530.709532 211.926093 
L 543.661176 216.875459 
L 556.61282 219.428234 
L 569.564464 222.498026 
L 582.516109 223.919824 
L 595.467753 224.458384 
L 608.419397 225.707843 
L 621.371041 223.903667 
L 634.322685 226.445671 
L 647.274329 229.106157 
L 660.225973 230.818778 
L 673.177617 229.504691 
L 686.129261 232.208263 
" clip-path="url(#p0148b3110b)" style="fill: none; stroke: #ff7f0e; stroke-width: 1.5; stroke-linecap: square"/>
   </g>
   <g id="line2d_30">
    <path d="M 77.401989 231.855981 
L 90.353633 237.102189 
L 103.305277 241.626093 
L 116.256921 243.222765 
L 129.208565 243.108717 
L 142.160209 243.678957 
L 155.111853 243.793005 
L 168.063497 243.650445 
L 181.015141 243.593421 
L 193.966786 243.188551 
L 206.91843 241.226925 
L 219.870074 241.198413 
L 232.821718 239.516205 
L 245.773362 235.372461 
L 258.725006 234.241485 
L 271.67665 233.196045 
L 284.628294 231.390285 
L 297.579938 230.449389 
L 310.531582 231.428301 
L 323.483227 229.356429 
L 336.434871 227.313069 
L 349.386515 223.958157 
L 362.338159 221.981325 
L 375.289803 215.585133 
L 388.241447 206.147661 
L 401.193091 207.136077 
L 414.144735 201.471693 
L 427.096379 197.004813 
L 440.048023 186.141741 
L 452.999668 179.669517 
L 465.951312 161.184237 
L 478.902956 161.089197 
L 491.8546 135.837069 
L 504.806244 116.743533 
L 517.757888 88.725741 
L 530.709532 138.479181 
L 543.661176 159.159885 
L 556.61282 179.061261 
L 569.564464 188.679309 
L 582.516109 200.198157 
L 595.467753 202.469613 
L 608.419397 205.605933 
L 621.371041 205.510893 
L 634.322685 212.391789 
L 647.274329 215.109933 
L 660.225973 218.949549 
L 673.177617 216.478509 
L 686.129261 224.404845 
" clip-path="url(#p0148b3110b)" style="fill: none; stroke: #2ca02c; stroke-width: 1.5; stroke-linecap: square"/>
   </g>
   <g id="line2d_31">
    <path d="M 77.401989 240.580653 
L 90.353633 242.921116 
L 103.305277 243.268525 
L 116.256921 243.311136 
L 129.208565 243.602925 
L 142.160209 243.761325 
L 155.111853 243.761325 
L 168.063497 243.761325 
L 181.015141 243.655725 
L 193.966786 243.517633 
L 206.91843 242.508525 
L 219.870074 240.441812 
L 232.821718 240.099117 
L 245.773362 234.983325 
L 258.725006 229.571325 
L 271.67665 228.922413 
L 284.628294 230.290989 
L 297.579938 230.270925 
L 310.531582 230.090187 
L 323.483227 229.736833 
L 336.434871 225.941325 
L 349.386515 227.389101 
L 362.338159 228.030987 
L 375.289803 228.407839 
L 388.241447 223.352094 
L 401.193091 226.982658 
L 414.144735 224.668033 
L 427.096379 222.826125 
L 440.048023 220.411992 
L 452.999668 216.66274 
L 465.951312 208.157879 
L 478.902956 207.091725 
L 491.8546 199.702658 
L 504.806244 195.071602 
L 517.757888 198.142125 
L 530.709532 211.75234 
L 543.661176 217.530285 
L 556.61282 223.714221 
L 569.564464 220.001325 
L 582.516109 226.641453 
L 595.467753 231.613263 
L 608.419397 232.280493 
L 621.371041 231.947325 
L 634.322685 229.439325 
L 647.274329 232.000125 
L 660.225973 235.030317 
L 673.177617 231.760941 
L 686.129261 237.023233 
" clip-path="url(#p0148b3110b)" style="fill: none; stroke: #d62728; stroke-width: 1.5; stroke-linecap: square"/>
   </g>
   <g id="line2d_32">
    <path d="M 77.401989 241.042125 
L 90.353633 242.480925 
L 103.305277 243.51122 
L 116.256921 243.726125 
L 129.208565 243.761325 
L 142.160209 243.761325 
L 155.111853 243.444525 
L 181.015141 243.563325 
L 193.966786 243.697965 
L 206.91843 243.592365 
L 219.870074 243.022125 
L 232.821718 241.807725 
L 245.773362 239.590125 
L 258.725006 238.639725 
L 271.67665 238.388925 
L 284.628294 237.068925 
L 297.579938 235.326525 
L 310.531582 236.145453 
L 323.483227 234.494925 
L 336.434871 234.371373 
L 349.386515 234.293879 
L 362.338159 234.057858 
L 375.289803 232.016258 
L 388.241447 226.375341 
L 401.193091 226.451373 
L 414.144735 226.139325 
L 427.096379 222.773325 
L 440.048023 220.001325 
L 452.999668 223.220013 
L 465.951312 219.963309 
L 478.902956 220.357725 
L 491.8546 217.745709 
L 504.806244 212.926125 
L 517.757888 210.431325 
L 530.709532 218.549325 
L 543.661176 221.123325 
L 556.61282 224.474541 
L 569.564464 225.437613 
L 582.516109 226.561725 
L 595.467753 227.45831 
L 608.419397 227.376429 
L 621.371041 227.419725 
L 634.322685 226.856877 
L 647.274329 231.203373 
L 660.225973 231.524925 
L 673.177617 232.435725 
L 686.129261 238.305325 
" clip-path="url(#p0148b3110b)" style="fill: none; stroke: #9467bd; stroke-width: 1.5; stroke-linecap: square"/>
   </g>
   <g id="patch_3">
    <path d="M 46.965625 244.078125 
L 46.965625 22.318125 
" style="fill: none; stroke: #000000; stroke-width: 0.8; stroke-linejoin: miter; stroke-linecap: square"/>
   </g>
   <g id="patch_4">
    <path d="M 46.965625 244.078125 
L 716.565625 244.078125 
" style="fill: none; stroke: #000000; stroke-width: 0.8; stroke-linejoin: miter; stroke-linecap: square"/>
   </g>
   <g id="text_23">
    <!-- Average number of passengers per half-hour interval for Orange Line stations in June 2024 -->
    <g transform="translate(108.629687 16.318125) scale(0.12 -0.12)">
     <defs>
      <path id="DejaVuSans-41" d="M 2188 4044 
L 1331 1722 
L 3047 1722 
L 2188 4044 
z
M 1831 4666 
L 2547 4666 
L 4325 0 
L 3669 0 
L 3244 1197 
L 1141 1197 
L 716 0 
L 50 0 
L 1831 4666 
z
" transform="scale(0.015625)"/>
      <path id="DejaVuSans-76" d="M 191 3500 
L 800 3500 
L 1894 563 
L 2988 3500 
L 3597 3500 
L 2284 0 
L 1503 0 
L 191 3500 
z
" transform="scale(0.015625)"/>
      <path id="DejaVuSans-74" d="M 1172 4494 
L 1172 3500 
L 2356 3500 
L 2356 3053 
L 1172 3053 
L 1172 1153 
Q 1172 725 1289 603 
Q 1406 481 1766 481 
L 2356 481 
L 2356 0 
L 1766 0 
Q 1100 0 847 248 
Q 594 497 594 1153 
L 594 3053 
L 172 3053 
L 172 3500 
L 594 3500 
L 594 4494 
L 1172 4494 
z
" transform="scale(0.015625)"/>
      <path id="DejaVuSans-4f" d="M 2522 4238 
Q 1834 4238 1429 3725 
Q 1025 3213 1025 2328 
Q 1025 1447 1429 934 
Q 1834 422 2522 422 
Q 3209 422 3611 934 
Q 4013 1447 4013 2328 
Q 4013 3213 3611 3725 
Q 3209 4238 2522 4238 
z
M 2522 4750 
Q 3503 4750 4090 4092 
Q 4678 3434 4678 2328 
Q 4678 1225 4090 567 
Q 3503 -91 2522 -91 
Q 1538 -91 948 565 
Q 359 1222 359 2328 
Q 359 3434 948 4092 
Q 1538 4750 2522 4750 
z
" transform="scale(0.015625)"/>
      <path id="DejaVuSans-4c" d="M 628 4666 
L 1259 4666 
L 1259 531 
L 3531 531 
L 3531 0 
L 628 0 
L 628 4666 
z
" transform="scale(0.015625)"/>
      <path id="DejaVuSans-4a" d="M 628 4666 
L 1259 4666 
L 1259 325 
Q 1259 -519 939 -900 
Q 619 -1281 -91 -1281 
L -331 -1281 
L -331 -750 
L -134 -750 
Q 284 -750 456 -515 
Q 628 -281 628 325 
L 628 4666 
z
" transform="scale(0.015625)"/>
     </defs>
     <use xlink:href="#DejaVuSans-41"/>
     <use xlink:href="#DejaVuSans-76" x="62.533203"/>
     <use xlink:href="#DejaVuSans-65" x="121.712891"/>
     <use xlink:href="#DejaVuSans-72" x="183.236328"/>
     <use xlink:href="#DejaVuSans-61" x="224.349609"/>
     <use xlink:href="#DejaVuSans-67" x="285.628906"/>
     <use xlink:href="#DejaVuSans-65" x="349.105469"/>
     <use xlink:href="#DejaVuSans-20" x="410.628906"/>
     <use xlink:href="#DejaVuSans-6e" x="442.416016"/>
     <use xlink:href="#DejaVuSans-75" x="505.794922"/>
     <use xlink:href="#DejaVuSans-6d" x="569.173828"/>
     <use xlink:href="#DejaVuSans-62" x="666.585938"/>
     <use xlink:href="#DejaVuSans-65" x="730.0625"/>
     <use xlink:href="#DejaVuSans-72" x="791.585938"/>
     <use xlink:href="#DejaVuSans-20" x="832.699219"/>
     <use xlink:href="#DejaVuSans-6f" x="864.486328"/>
     <use xlink:href="#DejaVuSans-66" x="925.667969"/>
     <use xlink:href="#DejaVuSans-20" x="960.873047"/>
     <use xlink:href="#DejaVuSans-70" x="992.660156"/>
     <use xlink:href="#DejaVuSans-61" x="1056.136719"/>
     <use xlink:href="#DejaVuSans-73" x="1117.416016"/>
     <use xlink:href="#DejaVuSans-73" x="1169.515625"/>
     <use xlink:href="#DejaVuSans-65" x="1221.615234"/>
     <use xlink:href="#DejaVuSans-6e" x="1283.138672"/>
     <use xlink:href="#DejaVuSans-67" x="1346.517578"/>
     <use xlink:href="#DejaVuSans-65" x="1409.994141"/>
     <use xlink:href="#DejaVuSans-72" x="1471.517578"/>
     <use xlink:href="#DejaVuSans-73" x="1512.630859"/>
     <use xlink:href="#DejaVuSans-20" x="1564.730469"/>
     <use xlink:href="#DejaVuSans-70" x="1596.517578"/>
     <use xlink:href="#DejaVuSans-65" x="1659.994141"/>
     <use xlink:href="#DejaVuSans-72" x="1721.517578"/>
     <use xlink:href="#DejaVuSans-20" x="1762.630859"/>
     <use xlink:href="#DejaVuSans-68" x="1794.417969"/>
     <use xlink:href="#DejaVuSans-61" x="1857.796875"/>
     <use xlink:href="#DejaVuSans-6c" x="1919.076172"/>
     <use xlink:href="#DejaVuSans-66" x="1946.859375"/>
     <use xlink:href="#DejaVuSans-2d" x="1976.564453"/>
     <use xlink:href="#DejaVuSans-68" x="2012.648438"/>
     <use xlink:href="#DejaVuSans-6f" x="2076.027344"/>
     <use xlink:href="#DejaVuSans-75" x="2137.208984"/>
     <use xlink:href="#DejaVuSans-72" x="2200.587891"/>
     <use xlink:href="#DejaVuSans-20" x="2241.701172"/>
     <use xlink:href="#DejaVuSans-69" x="2273.488281"/>
     <use xlink:href="#DejaVuSans-6e" x="2301.271484"/>
     <use xlink:href="#DejaVuSans-74" x="2364.650391"/>
     <use xlink:href="#DejaVuSans-65" x="2403.859375"/>
     <use xlink:href="#DejaVuSans-72" x="2465.382812"/>
     <use xlink:href="#DejaVuSans-76" x="2506.496094"/>
     <use xlink:href="#DejaVuSans-61" x="2565.675781"/>
     <use xlink:href="#DejaVuSans-6c" x="2626.955078"/>
     <use xlink:href="#DejaVuSans-20" x="2654.738281"/>
     <use xlink:href="#DejaVuSans-66" x="2686.525391"/>
     <use xlink:href="#DejaVuSans-6f" x="2721.730469"/>
     <use xlink:href="#DejaVuSans-72" x="2782.912109"/>
     <use xlink:href="#DejaVuSans-20" x="2824.025391"/>
     <use xlink:href="#DejaVuSans-4f" x="2855.8125"/>
     <use xlink:href="#DejaVuSans-72" x="2934.523438"/>
     <use xlink:href="#DejaVuSans-61" x="2975.636719"/>
     <use xlink:href="#DejaVuSans-6e" x="3036.916016"/>
     <use xlink:href="#DejaVuSans-67" x="3100.294922"/>
     <use xlink:href="#DejaVuSans-65" x="3163.771484"/>
     <use xlink:href="#DejaVuSans-20" x="3225.294922"/>
     <use xlink:href="#DejaVuSans-4c" x="3257.082031"/>
     <use xlink:href="#DejaVuSans-69" x="3312.794922"/>
     <use xlink:href="#DejaVuSans-6e" x="3340.578125"/>
     <use xlink:href="#DejaVuSans-65" x="3403.957031"/>
     <use xlink:href="#DejaVuSans-20" x="3465.480469"/>
     <use xlink:href="#DejaVuSans-73" x="3497.267578"/>
     <use xlink:href="#DejaVuSans-74" x="3549.367188"/>
     <use xlink:href="#DejaVuSans-61" x="3588.576172"/>
     <use xlink:href="#DejaVuSans-74" x="3649.855469"/>
     <use xlink:href="#DejaVuSans-69" x="3689.064453"/>
     <use xlink:href="#DejaVuSans-6f" x="3716.847656"/>
     <use xlink:href="#DejaVuSans-6e" x="3778.029297"/>
     <use xlink:href="#DejaVuSans-73" x="3841.408203"/>
     <use xlink:href="#DejaVuSans-20" x="3893.507812"/>
     <use xlink:href="#DejaVuSans-69" x="3925.294922"/>
     <use xlink:href="#DejaVuSans-6e" x="3953.078125"/>
     <use xlink:href="#DejaVuSans-20" x="4016.457031"/>
     <use xlink:href="#DejaVuSans-4a" x="4048.244141"/>
     <use xlink:href="#DejaVuSans-75" x="4077.736328"/>
     <use xlink:href="#DejaVuSans-6e" x="4141.115234"/>
     <use xlink:href="#DejaVuSans-65" x="4204.494141"/>
     <use xlink:href="#DejaVuSans-20" x="4266.017578"/>
     <use xlink:href="#DejaVuSans-32" x="4297.804688"/>
     <use xlink:href="#DejaVuSans-30" x="4361.427734"/>
     <use xlink:href="#DejaVuSans-32" x="4425.050781"/>
     <use xlink:href="#DejaVuSans-34" x="4488.673828"/>
    </g>
   </g>
   <g id="legend_1">
    <g id="patch_5">
     <path d="M 575.83125 103.70875 
L 709.565625 103.70875 
Q 711.565625 103.70875 711.565625 101.70875 
L 711.565625 29.318125 
Q 711.565625 27.318125 709.565625 27.318125 
L 575.83125 27.318125 
Q 573.83125 27.318125 573.83125 29.318125 
L 573.83125 101.70875 
Q 573.83125 103.70875 575.83125 103.70875 
z
" style="fill: #ffffff; opacity: 0.8; stroke: #cccccc; stroke-linejoin: miter"/>
    </g>
    <g id="line2d_33">
     <path d="M 577.83125 35.416562 
L 587.83125 35.416562 
L 597.83125 35.416562 
" style="fill: none; stroke: #1f77b4; stroke-width: 1.5; stroke-linecap: square"/>
    </g>
    <g id="text_24">
     <!-- Back Bay -->
     <g transform="translate(605.83125 38.916562) scale(0.1 -0.1)">
      <defs>
       <path id="DejaVuSans-42" d="M 1259 2228 
L 1259 519 
L 2272 519 
Q 2781 519 3026 730 
Q 3272 941 3272 1375 
Q 3272 1813 3026 2020 
Q 2781 2228 2272 2228 
L 1259 2228 
z
M 1259 4147 
L 1259 2741 
L 2194 2741 
Q 2656 2741 2882 2914 
Q 3109 3088 3109 3444 
Q 3109 3797 2882 3972 
Q 2656 4147 2194 4147 
L 1259 4147 
z
M 628 4666 
L 2241 4666 
Q 2963 4666 3353 4366 
Q 3744 4066 3744 3513 
Q 3744 3084 3544 2831 
Q 3344 2578 2956 2516 
Q 3422 2416 3680 2098 
Q 3938 1781 3938 1306 
Q 3938 681 3513 340 
Q 3088 0 2303 0 
L 628 0 
L 628 4666 
z
" transform="scale(0.015625)"/>
       <path id="DejaVuSans-63" d="M 3122 3366 
L 3122 2828 
Q 2878 2963 2633 3030 
Q 2388 3097 2138 3097 
Q 1578 3097 1268 2742 
Q 959 2388 959 1747 
Q 959 1106 1268 751 
Q 1578 397 2138 397 
Q 2388 397 2633 464 
Q 2878 531 3122 666 
L 3122 134 
Q 2881 22 2623 -34 
Q 2366 -91 2075 -91 
Q 1284 -91 818 406 
Q 353 903 353 1747 
Q 353 2603 823 3093 
Q 1294 3584 2113 3584 
Q 2378 3584 2631 3529 
Q 2884 3475 3122 3366 
z
" transform="scale(0.015625)"/>
       <path id="DejaVuSans-6b" d="M 581 4863 
L 1159 4863 
L 1159 1991 
L 2875 3500 
L 3609 3500 
L 1753 1863 
L 3688 0 
L 2938 0 
L 1159 1709 
L 1159 0 
L 581 0 
L 581 4863 
z
" transform="scale(0.015625)"/>
      </defs>
      <use xlink:href="#DejaVuSans-42"/>
      <use xlink:href="#DejaVuSans-61" x="68.603516"/>
      <use xlink:href="#DejaVuSans-63" x="129.882812"/>
      <use xlink:href="#DejaVuSans-6b" x="184.863281"/>
      <use xlink:href="#DejaVuSans-20" x="242.773438"/>
      <use xlink:href="#DejaVuSans-42" x="274.560547"/>
      <use xlink:href="#DejaVuSans-61" x="343.164062"/>
      <use xlink:href="#DejaVuSans-79" x="404.443359"/>
     </g>
    </g>
    <g id="line2d_34">
     <path d="M 577.83125 50.094687 
L 587.83125 50.094687 
L 597.83125 50.094687 
" style="fill: none; stroke: #ff7f0e; stroke-width: 1.5; stroke-linecap: square"/>
    </g>
    <g id="text_25">
     <!-- Haymarket -->
     <g transform="translate(605.83125 53.594687) scale(0.1 -0.1)">
      <defs>
       <path id="DejaVuSans-48" d="M 628 4666 
L 1259 4666 
L 1259 2753 
L 3553 2753 
L 3553 4666 
L 4184 4666 
L 4184 0 
L 3553 0 
L 3553 2222 
L 1259 2222 
L 1259 0 
L 628 0 
L 628 4666 
z
" transform="scale(0.015625)"/>
      </defs>
      <use xlink:href="#DejaVuSans-48"/>
      <use xlink:href="#DejaVuSans-61" x="75.195312"/>
      <use xlink:href="#DejaVuSans-79" x="136.474609"/>
      <use xlink:href="#DejaVuSans-6d" x="195.654297"/>
      <use xlink:href="#DejaVuSans-61" x="293.066406"/>
      <use xlink:href="#DejaVuSans-72" x="354.345703"/>
      <use xlink:href="#DejaVuSans-6b" x="395.458984"/>
      <use xlink:href="#DejaVuSans-65" x="449.744141"/>
      <use xlink:href="#DejaVuSans-74" x="511.267578"/>
     </g>
    </g>
    <g id="line2d_35">
     <path d="M 577.83125 64.772812 
L 587.83125 64.772812 
L 597.83125 64.772812 
" style="fill: none; stroke: #2ca02c; stroke-width: 1.5; stroke-linecap: square"/>
    </g>
    <g id="text_26">
     <!-- State Street -->
     <g transform="translate(605.83125 68.272812) scale(0.1 -0.1)">
      <defs>
       <path id="DejaVuSans-53" d="M 3425 4513 
L 3425 3897 
Q 3066 4069 2747 4153 
Q 2428 4238 2131 4238 
Q 1616 4238 1336 4038 
Q 1056 3838 1056 3469 
Q 1056 3159 1242 3001 
Q 1428 2844 1947 2747 
L 2328 2669 
Q 3034 2534 3370 2195 
Q 3706 1856 3706 1288 
Q 3706 609 3251 259 
Q 2797 -91 1919 -91 
Q 1588 -91 1214 -16 
Q 841 59 441 206 
L 441 856 
Q 825 641 1194 531 
Q 1563 422 1919 422 
Q 2459 422 2753 634 
Q 3047 847 3047 1241 
Q 3047 1584 2836 1778 
Q 2625 1972 2144 2069 
L 1759 2144 
Q 1053 2284 737 2584 
Q 422 2884 422 3419 
Q 422 4038 858 4394 
Q 1294 4750 2059 4750 
Q 2388 4750 2728 4690 
Q 3069 4631 3425 4513 
z
" transform="scale(0.015625)"/>
      </defs>
      <use xlink:href="#DejaVuSans-53"/>
      <use xlink:href="#DejaVuSans-74" x="63.476562"/>
      <use xlink:href="#DejaVuSans-61" x="102.685547"/>
      <use xlink:href="#DejaVuSans-74" x="163.964844"/>
      <use xlink:href="#DejaVuSans-65" x="203.173828"/>
      <use xlink:href="#DejaVuSans-20" x="264.697266"/>
      <use xlink:href="#DejaVuSans-53" x="296.484375"/>
      <use xlink:href="#DejaVuSans-74" x="359.960938"/>
      <use xlink:href="#DejaVuSans-72" x="399.169922"/>
      <use xlink:href="#DejaVuSans-65" x="438.033203"/>
      <use xlink:href="#DejaVuSans-65" x="499.556641"/>
      <use xlink:href="#DejaVuSans-74" x="561.080078"/>
     </g>
    </g>
    <g id="line2d_36">
     <path d="M 577.83125 79.450937 
L 587.83125 79.450937 
L 597.83125 79.450937 
" style="fill: none; stroke: #d62728; stroke-width: 1.5; stroke-linecap: square"/>
    </g>
    <g id="text_27">
     <!-- Tufts Medical Center -->
     <g transform="translate(605.83125 82.950937) scale(0.1 -0.1)">
      <defs>
       <path id="DejaVuSans-4d" d="M 628 4666 
L 1569 4666 
L 2759 1491 
L 3956 4666 
L 4897 4666 
L 4897 0 
L 4281 0 
L 4281 4097 
L 3078 897 
L 2444 897 
L 1241 4097 
L 1241 0 
L 628 0 
L 628 4666 
z
" transform="scale(0.015625)"/>
       <path id="DejaVuSans-43" d="M 4122 4306 
L 4122 3641 
Q 3803 3938 3442 4084 
Q 3081 4231 2675 4231 
Q 1875 4231 1450 3742 
Q 1025 3253 1025 2328 
Q 1025 1406 1450 917 
Q 1875 428 2675 428 
Q 3081 428 3442 575 
Q 3803 722 4122 1019 
L 4122 359 
Q 3791 134 3420 21 
Q 3050 -91 2638 -91 
Q 1578 -91 968 557 
Q 359 1206 359 2328 
Q 359 3453 968 4101 
Q 1578 4750 2638 4750 
Q 3056 4750 3426 4639 
Q 3797 4528 4122 4306 
z
" transform="scale(0.015625)"/>
      </defs>
      <use xlink:href="#DejaVuSans-54"/>
      <use xlink:href="#DejaVuSans-75" x="45.958984"/>
      <use xlink:href="#DejaVuSans-66" x="109.337891"/>
      <use xlink:href="#DejaVuSans-74" x="142.792969"/>
      <use xlink:href="#DejaVuSans-73" x="182.001953"/>
      <use xlink:href="#DejaVuSans-20" x="234.101562"/>
      <use xlink:href="#DejaVuSans-4d" x="265.888672"/>
      <use xlink:href="#DejaVuSans-65" x="352.167969"/>
      <use xlink:href="#DejaVuSans-64" x="413.691406"/>
      <use xlink:href="#DejaVuSans-69" x="477.167969"/>
      <use xlink:href="#DejaVuSans-63" x="504.951172"/>
      <use xlink:href="#DejaVuSans-61" x="559.931641"/>
      <use xlink:href="#DejaVuSans-6c" x="621.210938"/>
      <use xlink:href="#DejaVuSans-20" x="648.994141"/>
      <use xlink:href="#DejaVuSans-43" x="680.78125"/>
      <use xlink:href="#DejaVuSans-65" x="750.605469"/>
      <use xlink:href="#DejaVuSans-6e" x="812.128906"/>
      <use xlink:href="#DejaVuSans-74" x="875.507812"/>
      <use xlink:href="#DejaVuSans-65" x="914.716797"/>
      <use xlink:href="#DejaVuSans-72" x="976.240234"/>
     </g>
    </g>
    <g id="line2d_37">
     <path d="M 577.83125 94.129062 
L 587.83125 94.129062 
L 597.83125 94.129062 
" style="fill: none; stroke: #9467bd; stroke-width: 1.5; stroke-linecap: square"/>
    </g>
    <g id="text_28">
     <!-- Chinatown -->
     <g transform="translate(605.83125 97.629062) scale(0.1 -0.1)">
      <defs>
       <path id="DejaVuSans-77" d="M 269 3500 
L 844 3500 
L 1563 769 
L 2278 3500 
L 2956 3500 
L 3675 769 
L 4391 3500 
L 4966 3500 
L 4050 0 
L 3372 0 
L 2619 2869 
L 1863 0 
L 1184 0 
L 269 3500 
z
" transform="scale(0.015625)"/>
      </defs>
      <use xlink:href="#DejaVuSans-43"/>
      <use xlink:href="#DejaVuSans-68" x="69.824219"/>
      <use xlink:href="#DejaVuSans-69" x="133.203125"/>
      <use xlink:href="#DejaVuSans-6e" x="160.986328"/>
      <use xlink:href="#DejaVuSans-61" x="224.365234"/>
      <use xlink:href="#DejaVuSans-74" x="285.644531"/>
      <use xlink:href="#DejaVuSans-6f" x="324.853516"/>
      <use xlink:href="#DejaVuSans-77" x="386.035156"/>
      <use xlink:href="#DejaVuSans-6e" x="467.822266"/>
     </g>
    </g>
   </g>
  </g>
 </g>
 <defs>
  <clipPath id="p0148b3110b">
   <rect x="46.965625" y="22.318125" width="669.6" height="221.76"/>
  </clipPath>
 </defs>
</svg>
